<svg id="Layer_1" data-name="Layer 1" xmlns="http://www.w3.org/2000/svg" viewBox="0 0 499.79 429.97"><defs><style>.cls-1{fill:#e5e6ec;}.cls-2{fill:#ef4761;}.cls-3{fill:#fff;}.cls-4{fill:#010101;}.cls-5{fill:#f58668;}.cls-6{fill:#e35a40;}.cls-7{fill:#170e38;}.cls-8{fill:#2bc2dd;}.cls-9{fill:#00a7cc;}.cls-10{fill:#f99e3b;}.cls-11{fill:#fcb65e;}</style></defs><title>aboutus</title><rect class="cls-1" x="183.38" width="316.41" height="346.25"/><rect class="cls-2" x="204.65" y="24.5" width="273.86" height="297.25"/><path class="cls-3" d="M417,217.9a13.69,13.69,0,0,0-17.21-3.51s20.4-45,7.49-67.3a20.06,20.06,0,0,0-4.62-5.43c3.23-14.85-11-21.09-22.28-26.86a94.09,94.09,0,0,0-22.8-8.21c-14.74-3.07-31.33-2.4-44.73,5-15,8.27-30,25.15-45.59,21.31-3.22,7.56-2.76,13.78-.58,22.78,1.84,7.66,6.26,15.9,11.95,22.68,3.58,18.66,11.66,36,11.66,36A13.69,13.69,0,0,0,273,217.9c-7.82,9,12.9,31.68,17.6,34.42a98.54,98.54,0,0,0,17.29,33.51,76.54,76.54,0,0,0,17.73,15.58h-1.5s-4.37,41.27-12.37,55.24h63.58c-7.39-12.9-11.67-49-12.29-54.47a76.4,76.4,0,0,0,19-16.35,98.54,98.54,0,0,0,17.29-33.51C404.05,249.58,424.77,226.89,417,217.9Z" transform="translate(-0.21 -34.9)"/><path class="cls-4" d="M332.63,233.09V218.47a57.89,57.89,0,0,0,15.7-14.72q5.25-7.33,5.26-14.62a17.43,17.43,0,0,0-.14-2.13c-.22-2-.86-3.31-1.93-3.91a8.08,8.08,0,0,0-4.06-.91A5,5,0,0,0,344,183.5a4.3,4.3,0,0,0-1.47,3.44,14.26,14.26,0,0,0,.14,2.14,7.9,7.9,0,0,0,.26,1.29c.09.27.28.74.57,1.42s.52,1.23.69,1.67l-21.88,4.27c-.14-.48-.37-1.21-.7-2.22s-.54-1.68-.63-2-.24-.89-.43-1.62a9.75,9.75,0,0,1-.37-1.78c0-.45-.1-1-.17-1.69s-.1-1.38-.1-2.11v-.44a23.72,23.72,0,0,1,1.2-7.72,18.44,18.44,0,0,1,12.68-11.49,43.8,43.8,0,0,1,13-1.7q15,0,22.92,6t7.95,16.92q0,9.74-6.69,19.75t-16.06,14.45v11Zm-.6,24.19V238.45h23.62v18.83Z" transform="translate(-0.21 -34.9)"/><path class="cls-5" d="M29.31,204.29s7.38,13.13,3.78,17.09c0,0,9.89,9,17.63,5.22S54,219.42,54,219.42s-5.41-2.36-8.11-13.69S29.31,204.29,29.31,204.29Z" transform="translate(-0.21 -34.9)"/><path class="cls-6" d="M37.12,224.33a17.87,17.87,0,0,1,5-5.36,17.59,17.59,0,0,1,8.33-2.76,27.49,27.49,0,0,1-4.58-10.48c-2.7-11.33-16.55-1.44-16.55-1.44s7.38,13.13,3.78,17.09A30.88,30.88,0,0,0,37.12,224.33Z" transform="translate(-0.21 -34.9)"/><path class="cls-5" d="M23.08,188.71s4.33-11.7,11.51-11.9,11.87.54,13.08,3.2,3.5,10.12,5.59,12.76,6.36,5.95,6.4,7.23-4,2.1-4.19,2.64-1.54,10-2.94,11.09-15.61-3-18.11-6.88S23.13,196,23.08,188.71Z" transform="translate(-0.21 -34.9)"/><path class="cls-7" d="M37.76,188.23c1.91,1.29,6.64,2.58,13.87-1.57S54,165.53,38.28,168.27,23.8,176.58,21,178.12s-4.91,3.42-5.91,6.76c-1.72,5.76-1.26,12.37,6.8,18.24s13,4.33,13,4.33c.11-2-.38-5.32-2.21-6.14A11.19,11.19,0,0,1,30,200.2c-2.14-1.44-1.33-5.63,2.46-5.45,1.78.08,2.93,3.09,4.09,4.11s1.89.76,2.47.47c1.11-.57,1.57-4.18-1.3-7.63C35.81,189.48,35.84,186.93,37.76,188.23Z" transform="translate(-0.21 -34.9)"/><path class="cls-7" d="M5.46,437.07S-1,449.78.42,452.42,29,466.33,32.26,464.71s3.41-6.29-1.79-10c-5.58-4-9.25-3.45-12.54-6.51s0-8.81,0-8.81Z" transform="translate(-0.21 -34.9)"/><path class="cls-7" d="M78.93,440.63s.86,15,3.22,16.87,31.75,1.71,34.11-1,.87-6.56-5.11-7.76c-5.38-1.08-9.35.05-13.52-1.63C94,445.6,92,437.5,92,437.5Z" transform="translate(-0.21 -34.9)"/><path class="cls-8" d="M72.87,287.77l-38.31,2.36s28.83,68.76,32.78,77,10.14,76.46,10.14,76.46l17.67-2.85S91.42,371,90.5,365.27C84.14,325.74,72.87,287.77,72.87,287.77Z" transform="translate(-0.21 -34.9)"/><path class="cls-9" d="M59.89,316.05c1.24-6.41,2.12-14.73,3.52-21.11.55-2.54,4.09-2.67,4.36-5.19a7.11,7.11,0,0,1-1.53-1.57l-31.68,1.95s28.83,68.76,32.78,77c.4.82,1,2.16,1.62,3.88,0-1.39-.07-2.78-.17-4.16C68,355.73,58.47,323.34,59.89,316.05Z" transform="translate(-0.21 -34.9)"/><path class="cls-8" d="M62.08,291H29.35a49.61,49.61,0,0,0-3.78,25.9c2,14-2.28,41.22-2.52,44.82s-17.19,62.58-19.7,76l15.08,5.4s24.78-72.25,25.74-73.69S62.08,291,62.08,291Z" transform="translate(-0.21 -34.9)"/><path class="cls-10" d="M75.06,274.4s6.47,9.35,11,8.63,35.91-21.34,35.91-21.34l-6.59-4.38s-25,17.09-27.52,16.37c-1.33-.38-8-17.51-13.39-30.34C67.78,227.52,64,225.23,64,225.23Z" transform="translate(-0.21 -34.9)"/><path class="cls-10" d="M75.06,274.4s6.47,9.35,11,8.63,35.91-21.34,35.91-21.34l-6.59-4.38s-25,17.09-27.52,16.37C86.6,273.33,79.31,254,74,242.29c-7.23-16-10-17.06-10-17.06Z" transform="translate(-0.21 -34.9)"/><path class="cls-10" d="M77.7,248.56c0-.07-2.69-6-3.6-7.78C66.76,226.39,64,225.23,64,225.23l6.36,28.17C72.87,252,76.36,250.48,77.7,248.56Z" transform="translate(-0.21 -34.9)"/><path class="cls-10" d="M77.7,248.56c0-.07-2.69-6-3.6-7.78C66.76,226.39,64,225.23,64,225.23l6.36,28.17C72.87,252,76.36,250.48,77.7,248.56Z" transform="translate(-0.21 -34.9)"/><path class="cls-11" d="M23.13,302.67S52.52,310,77.7,300.93c0,0-5.37-24.36-5.37-37.46,0-11.13-3.49-35-9.33-39.14-5.6-4-9.4-5.11-9.4-5.11s-2,4.86-6.48,5.94-13.18-4.66-13.18-4.66-17.73,6.94-20.11,10.83c-4.87,8,8.06,30.49,10.93,42.18S23.13,302.67,23.13,302.67Z" transform="translate(-0.21 -34.9)"/><path class="cls-10" d="M46.42,305.4c-1.24-5.38-1.37-10.92-2-16.6-.52-4.79-.79-9.42.24-13.87-.35-1.21-.7-2.44-1-3.5-1.53-5.34-1.38-17.29-7.71-23.33-3.66-3.49-8.12-8.9-13.55-9.83-6.55-1.14-3.36-1.17-9.23-2.53.27,2.16-2.63,6.26-1.7,9.2,3.78,9.37,11.41,21,13.28,28.57,2.88,11.69-1.63,29.16-1.63,29.16A119,119,0,0,0,46.42,305.4Z" transform="translate(-0.21 -34.9)"/><path class="cls-7" d="M223,279.47a72.86,72.86,0,1,0-100.66-44.4L16.86,286A10.17,10.17,0,0,0,12,299.56l.09.19a10.16,10.16,0,0,0,13.53,4.85l105.52-51A72.81,72.81,0,0,0,223,279.47Zm-81.88-41.91a56.14,56.14,0,1,1,74.74,26.79A56.14,56.14,0,0,1,141.15,237.56Z" transform="translate(-0.21 -34.9)"/><path class="cls-5" d="M32,257s9.35,19.25,11.33,19.43,36.06-2.52,38.54-4a28.73,28.73,0,0,0,3.81-3.17,17.79,17.79,0,0,1,1.76-1.38,22.57,22.57,0,0,0,2.2-1.24c.53-.45,2.39-3.21,3.44-2.95.83.2.76.84.61,1.51-.19.86-1.37,1.68-1.94,2.3-.33.35-1.31,1.34-1.14,1.91.23.76,1.92-.58,2.31-.82a6.94,6.94,0,0,0,1.57-1.35,22.61,22.61,0,0,0,1.43-1.91c.28-.4.54-.83.81-1.22.45-.68.85-1.28,1.24-2,.29-.53.76-1.14,1.43-.78s0,1.65-.28,2.19a17.21,17.21,0,0,0-.84,1.73c-.16.4-.82,1.06-.59,1.53a9.28,9.28,0,0,0,1.86-2.13c.34-.46,2.09-3.33,2.89-2.77,1.27.89-.25,2.77-.84,3.55a8.23,8.23,0,0,1-1.3,1.46c-.22.18-1.16,1.18-1,1.17,1.2-.12,2.07-1.94,2.82-2.79.46-.53,1.92-2.07,2.12-.54a2.37,2.37,0,0,1-.62,1.63,8.65,8.65,0,0,1-1.88,2,6.92,6.92,0,0,0-1.23,1.38c.9,0,2.67-2.3,3.48-1.69.53.4-.05,1.49-.34,1.81-2.07,2.32-5.22,3.87-7.91,5.33a83.79,83.79,0,0,1-9.07,4.21c-4.42,1.74-41.91,13.49-46.4,12.95s-16.37-23.52-19.79-30.2S32,257,32,257Z" transform="translate(-0.21 -34.9)"/><path class="cls-11" d="M19.24,267.43S31.11,263,38,256.86c0,0-11.25-35.21-22.56-27.16C2.49,238.88,19.24,267.43,19.24,267.43Z" transform="translate(-0.21 -34.9)"/><path class="cls-5" d="M115.41,259.42c.59-.38,1.4,0,2.41.92-1.33-1.67-2.93-3.39-1.36-3.62s2.57,2.13,3.68,2.86c-.59-.82-4.07-3.24-2.72-5.06.81-1.08,4.53,3.15,5.3,4-.72-.69-3.86-4-2.19-4.67,1.5-.62,3.65,2.21,4.72,3.11.78.66,1.88,1.21,2.07,2.3.35,2.1-2.72,3.53-4.31,4a8.28,8.28,0,0,1-6.28-1.05C115.65,261.55,114.82,259.8,115.41,259.42Z" transform="translate(-0.21 -34.9)"/></svg>