<svg xmlns="http://www.w3.org/2000/svg" viewBox="0 0 476.98 499.88"><defs><style>.cls-1{isolation:isolate;}.cls-2{fill:#170e38;}.cls-3{fill:#ef4761;}.cls-4{fill:#616262;}.cls-5{fill:#0dbad0;}.cls-6{fill:#00557b;opacity:0.32;mix-blend-mode:multiply;}.cls-7{fill:#010101;}.cls-8{fill:#e35a40;}.cls-9{fill:#f58668;}.cls-10{fill:#fcb65e;}.cls-11{fill:#f99e3b;}.cls-12{fill:#fff;}.cls-13{fill:#2bc2dd;}.cls-14{fill:#e5e6ec;}</style></defs><title>author-website</title><g class="cls-1"><g id="Layer_1" data-name="Layer 1"><polygon class="cls-2" points="282.17 472.44 194.81 472.44 201.99 367.13 274.99 367.13 282.17 472.44"/><path class="cls-2" d="M304.89,455.7a5.71,5.71,0,0,0-4.74-2.53H199.37a5.71,5.71,0,0,0-4.74,2.53l-13.2,19.7a5.7,5.7,0,0,0,4.74,8.88H313.34a5.71,5.71,0,0,0,4.75-8.88Z" transform="translate(-11.27 -0.12)"/><rect class="cls-2" y="75.39" width="476.98" height="319.74" rx="24.59"/><rect class="cls-3" x="21.96" y="96.57" width="433.06" height="274.06"/><path class="cls-4" d="M409.7,452.1c-50.31-9.33-109-20.38-109.13-.9-.15,18.41,22.15,32.69,41.41,41.81,10.44-4,22.22-4.74,33.37-6.46,19.71-3.05,39,.1,58.78.06a79,79,0,0,0,31.44-23.27S448.47,459.29,409.7,452.1Z" transform="translate(-11.27 -0.12)"/><path class="cls-5" d="M367.33,487c1.59.82-17.64,9.91-16.11,10.67,8.23,2.59,89.31,3.05,96.74,1.14,12.84-3.31-23.83-19.26-11-21.92,21.07-14.9,32.91-34.39,21.5-36.83-12.87-2.74-33,4-46,5.4-9.91,1-15.64,1.7-25-1.58l-31.66-3.49c-32.46,6.45-39.15,18.13-39.49,18,0,4.63,23.68,14.17,44.9,25.41A22.93,22.93,0,0,1,367.33,487Z" transform="translate(-11.27 -0.12)"/><path class="cls-6" d="M367.33,487c1.59.82-17.64,9.91-16.11,10.67,8.23,2.59,89.31,3.05,96.74,1.14,12.84-3.31-23.83-19.26-11-21.92,21.07-14.9,32.91-34.39,21.5-36.83-12.87-2.74-33,4-46,5.4-9.91,1-15.64,1.7-25-1.58l-31.66-3.49c-32.46,6.45-39.15,18.13-39.49,18,0,4.63,23.68,14.17,44.9,25.41A22.93,22.93,0,0,1,367.33,487Z" transform="translate(-11.27 -0.12)"/><path class="cls-7" d="M355.23,474.56l10.29,13.94s-11.18,7.81-14.3,9.19-28.37,2.42-35-2.66c-5.93-4.55-8-10.52-4.93-13.33,3.87-3.59,13.23-4.73,17.9-5.35C339.46,475,355.23,474.56,355.23,474.56Z" transform="translate(-11.27 -0.12)"/><path class="cls-5" d="M349,475.07l5.93,21S454.61,494.6,465,479.3c13.37-13.81,18.78-40.95-8.16-41.5-4.07-.08-10.62,1.22-17.38,3.5C402.93,453.62,349,475.07,349,475.07Z" transform="translate(-11.27 -0.12)"/><path class="cls-6" d="M459.15,473.64c-6.22,0-11.41-3.1-16.52-6.19A70.28,70.28,0,0,0,422,459.34c-6.3-1.46-12.89-3.67-17.95-5.39-29,9.4-55,21.12-55,21.12l4.65,16.47c2.54.61,5.09,1.27,7.64,2a52.84,52.84,0,0,1,9,1.42c.63.17,1.26.29,1.9.4,28.64-1.56,86.36-6,94-17.24,1.22-1.8,3.76-4.91,4.66-6.94C468.64,472,462,473.64,459.15,473.64Z" transform="translate(-11.27 -0.12)"/><path class="cls-7" d="M434.83,475.83l-8.64,10.95s14.1,8.59,17,10,23.32,2.37,29.78-2.27c5.8-4.16,7.92-9.79,5.11-12.57-3.58-3.54-12.47-4.91-16.91-5.64C451.45,474.69,434.83,475.83,434.83,475.83Z" transform="translate(-11.27 -0.12)"/><path class="cls-5" d="M444.84,473.12,436,497.67S313.54,488,303.58,470.94c-5.95-10.22-6.82-26.12,6-31.78,7.89-3.49,19.05-5.28,34.92.18C384,452.92,444.84,473.12,444.84,473.12Z" transform="translate(-11.27 -0.12)"/><path class="cls-8" d="M396.72,310.3H379.38s-2.49,23.61-7,26.42c0,0-5.58,27.9,15.68,27.9,25.73,0,15.68-27.9,15.68-27.9C399.21,333.91,396.72,310.3,396.72,310.3Z" transform="translate(-11.27 -0.12)"/><path class="cls-9" d="M410.59,314.92c-2.41-2.76-5.29,1.44-5.29,1.44s4-15.61,0-22.46-16.81-3.24-16.81-3.24-12.85-3.6-16.82,3.24,0,22.46,0,22.46-2.88-4.2-5.28-1.44,4,9.73,5.4,10.57c0,0,9.25,17.3,16.7,17.3s16.69-17.3,16.69-17.3C406.62,324.65,413,317.68,410.59,314.92Z" transform="translate(-11.27 -0.12)"/><path class="cls-2" d="M385.25,296.85s-9.72,1.71-10.81,6.93c-.52,2.54.06,5.29.52,7.79.25,1.33,1.18,8.44.84,8.61a1.49,1.49,0,0,1-1.27-.22,17.94,17.94,0,0,1-3.28-4c-1.85-2.71-4.51-2.25-5.27-.54,0,0-2.17-25.63,8.55-26.53S385.25,296.85,385.25,296.85Z" transform="translate(-11.27 -0.12)"/><path class="cls-2" d="M391.59,296.85s9.72,1.71,10.81,6.93c.52,2.54-.06,5.29-.52,7.79-.25,1.33-1.19,8.44-.83,8.61a1.48,1.48,0,0,0,1.26-.22,17.94,17.94,0,0,0,3.28-4c1.85-2.71,4.51-2.25,5.27-.54,0,0,2.17-25.63-8.55-26.53S391.59,296.85,391.59,296.85Z" transform="translate(-11.27 -0.12)"/><path class="cls-2" d="M405.89,290.44s.23-4.22-4.58-6.84-14.34-3.78-21.91,0-9.87,4.64-12.07,3.38-.81-2.52-.81-2.52-5,0-4.72,7.64,9.69,17.24,22,17.24C402.7,309.34,408.8,296.16,405.89,290.44Z" transform="translate(-11.27 -0.12)"/><path class="cls-10" d="M403.73,336.72c-.91,23.72-15.68,21.27-15.68,21.27s-14.77,2.45-15.68-21.27c0,0-23.6,6.52-35.11,14.24a227.47,227.47,0,0,1,5.21,43.7L356,446.9l32.09-5.85,32.08,5.85,13.49-52.24a227.47,227.47,0,0,1,5.21-43.7C427.32,343.24,403.73,336.72,403.73,336.72Z" transform="translate(-11.27 -0.12)"/><path class="cls-11" d="M431.3,364.66c-14.67,7.82-21.8,25.8-36,34.61-14.74,9.12-25.17-9.3-32.34-18.88-6.18-8.26-14-14.91-23.59-18.78a222.51,222.51,0,0,1,3.14,33.05L356,446.9,388.05,443l32.08,3.93,13.49-52.24a222,222,0,0,1,3.06-32.54C434.82,362.93,433,363.75,431.3,364.66Z" transform="translate(-11.27 -0.12)"/><path class="cls-10" d="M337.26,351s-26.74,62.79-27.05,71.45c-.62,16.75,36,23.53,52.73,20.45l6.8-1.25S344.94,350.5,337.26,351Z" transform="translate(-11.27 -0.12)"/><path class="cls-10" d="M438.77,351s27,62.79,27.06,71.45c.11,16.94-36,23.53-52.73,20.45l-6.8-1.25S431.1,350.5,438.77,351Z" transform="translate(-11.27 -0.12)"/><path class="cls-11" d="M348.64,373a44.71,44.71,0,0,1-1.12,9.21c-2.58,11.39-6.64,23.29-2.38,34.86,3.23,8.75,8.4,17.65,13.17,26.05a21.58,21.58,0,0,0,4.63-.27l6.8-1.25S358.36,399.85,348.64,373Z" transform="translate(-11.27 -0.12)"/><path class="cls-11" d="M422.82,442.54a41.08,41.08,0,0,0,3.23-16.8c-.39-11.65-.46-23.29-.27-34.94.08-5,.21-9.91.51-14.69-9.46,26.83-20,65.5-20,65.5l6.8,1.25A27.69,27.69,0,0,0,422.82,442.54Z" transform="translate(-11.27 -0.12)"/><rect class="cls-2" x="334.74" y="442.21" width="84.09" height="4.98"/><path class="cls-2" d="M442.46,384H333.64s-5.87,0-4.87,6.55S343.5,443,346.26,443h83.58c2.43,0,16.48-45.83,17.49-52.38S442.46,384,442.46,384Z" transform="translate(-11.27 -0.12)"/><path class="cls-12" d="M392.55,415.76a4.5,4.5,0,1,1-4.5-4.5A4.5,4.5,0,0,1,392.55,415.76Z" transform="translate(-11.27 -0.12)"/><path class="cls-2" d="M104.09,233.72s136.26,171.89,291.34,0C240.35,61.83,104.09,233.72,104.09,233.72Z" transform="translate(-11.27 -0.12)"/><path class="cls-12" d="M124.48,233.72s117.19,147.83,250.55,0C241.67,85.9,124.48,233.72,124.48,233.72Z" transform="translate(-11.27 -0.12)"/><circle class="cls-13" cx="249.76" cy="233.72" r="64.76" transform="translate(-45.56 424.18) rotate(-76.96)"/><path class="cls-2" d="M290.55,233.72a40.79,40.79,0,1,1-40.79-40.78A40.79,40.79,0,0,1,290.55,233.72Z" transform="translate(-11.27 -0.12)"/><path class="cls-12" d="M298,208a16.59,16.59,0,1,1-16.59-16.59A16.59,16.59,0,0,1,298,208Z" transform="translate(-11.27 -0.12)"/><rect class="cls-14" x="39.59" width="192.87" height="130.47" rx="8.77"/><rect class="cls-2" x="48.36" y="10.39" width="175.33" height="109.68"/><polygon class="cls-3" points="112.43 39.86 112.43 93.59 164.73 66.72 112.43 39.86"/></g></g></svg>