<svg xmlns="http://www.w3.org/2000/svg" viewBox="0 0 500.34 415.9"><defs><style>.cls-1{isolation:isolate;}.cls-2{fill:#2bc2dd;}.cls-3{fill:#170e38;}.cls-4{fill:#fff;}.cls-5{fill:#d1d2df;}.cls-6{fill:#b1b3c8;opacity:0.32;mix-blend-mode:multiply;}.cls-7{fill:#e35a40;}.cls-8{fill:#fcb65e;}.cls-9{fill:#f99e3b;}.cls-10{fill:#f58668;}</style></defs><title>book-reviews</title><g class="cls-1"><g id="Layer_1" data-name="Layer 1"><circle class="cls-2" cx="160.8" cy="187.94" r="160.8"/><circle class="cls-3" cx="160.6" cy="231.37" r="137.16" transform="translate(-116.37 137.89) rotate(-45)"/><rect class="cls-4" x="158.23" y="75.95" width="5.39" height="115.43" rx="2.67"/><path class="cls-4" d="M163.1,233.6l0,.05a2.67,2.67,0,0,1-3.62,1.08l-65.25-35.1A2.67,2.67,0,0,1,93.12,196l0,0a2.68,2.68,0,0,1,3.62-1.08L162,230A2.67,2.67,0,0,1,163.1,233.6Z" transform="translate(0.2 -43.44)"/><rect class="cls-5" x="207.59" y="193.61" width="292.75" height="181.21"/><polygon class="cls-3" points="353.96 292.24 500.34 201.64 500.34 193.61 207.59 193.61 207.59 201.64 353.96 292.24"/><polygon class="cls-5" points="353.96 284.21 207.59 193.61 500.34 193.61 353.96 284.21"/><polygon class="cls-6" points="207.59 374.81 463.89 374.81 463.89 230.06 463.89 222.03 463.89 222.03 207.59 222.03 207.59 374.81"/><rect class="cls-5" x="157" y="234.69" width="292.75" height="181.21"/><polygon class="cls-3" points="303.37 333.32 449.75 242.72 449.75 234.69 157 234.69 157 242.72 303.37 333.32"/><polygon class="cls-5" points="303.37 325.29 157 234.69 449.75 234.69 303.37 325.29"/><path class="cls-7" d="M367.65,77.94l10.49-.74,10.49-.74s5,28.37,10.75,31.39c0,0,9.13,33.28-16.61,35.1-31.15,2.19-21.37-32.43-21.37-32.43C366.64,106.73,367.65,77.94,367.65,77.94Z" transform="translate(0.2 -43.44)"/><path class="cls-8" d="M429.12,237.14l11.38-61.71c-1.58-27.85-5.38-55.32-5.38-55.32-14.59-8.35-35.74-12.26-35.74-12.26l-.18.14a32.24,32.24,0,0,1-37.56,2.67l-.24-.14s-22.34,6.92-35.61,17.24a144.23,144.23,0,0,0,1.72,35.16,321.75,321.75,0,0,0,11.7,47.31l9,26.91Z" transform="translate(0.2 -43.44)"/><path class="cls-9" d="M429.12,237.14l11.38-61.71c-.33-5.81-.4-11.49-.32-16.87-16.09,24.22-35,47.91-65.56,40.17C355.8,194,343.07,170.92,329.35,159c-1-.87-2-1.7-3-2.54.48,2.44.94,5,1.38,7.63a303.49,303.49,0,0,0,11.51,46.22l9,26.8Z" transform="translate(0.2 -43.44)"/><path class="cls-10" d="M351.25,84.71c2.67-3.54,6.52,1.3,6.52,1.3s-6.13-18.56-1.91-27.19,20.08-5.36,20.08-5.36S391.19,48,396.57,56s1.91,27.19,1.91,27.19,3.13-5.33,6.28-2.19-4,12.11-5.65,13.25c0,0-9.72,21.73-18.73,22.36s-21.69-19.51-21.69-19.51C356.88,96.15,348.58,88.26,351.25,84.71Z" transform="translate(0.2 -43.44)"/><path class="cls-3" d="M380.38,60.67s11.92,1.25,13.67,7.48c.85,3,.39,6.4,0,9.47-.19,1.63-.71,10.31-.27,10.49a1.78,1.78,0,0,0,1.5-.37A21.38,21.38,0,0,0,399,82.65c2-3.43,5.26-3.11,6.34-1.1,0,0,.43-31.21-12.62-31.39S380.38,60.67,380.38,60.67Z" transform="translate(0.2 -43.44)"/><path class="cls-3" d="M372.71,61.21s-11.63,2.9-12.49,9.32c-.42,3.12.51,6.4,1.29,9.39.41,1.58,2.15,10.11,1.74,10.34a1.8,1.8,0,0,1-1.55-.15,21.55,21.55,0,0,1-4.31-4.53c-2.47-3.12-5.65-2.34-6.43-.21,0,0-4.8-30.83,8.1-32.84S372.71,61.21,372.71,61.21Z" transform="translate(0.2 -43.44)"/><path class="cls-10" d="M407.45,290.5c-.95,1.76-5.35,4.21-4.08,6.82.64,1.3,4.63-1,5.55-2,1.3-1.41,10.44-13.33,12-16.86,1.23-2.76,2.4-5.45,3.73-8a41.36,41.36,0,0,1-7.57-7.17c-4.3,1.57-8.92,3.86-13.14,5.31-2.26.78-4.72,1.25-7,1.89-1.44.41-4.49.92-4.78,2.79-.31,2,2.75,1.69,3.95,1.55,1.75-.21,5-1.58,6.08.48,1.52,3-4.08,5.87-6,7.67-1.81,1.67-8.36,6.72-3.94,7.54.93.17,7.71-4.75,8.76-5.39-.23.24-4.61,3.83-4.83,4.09-1.17,1.33-4.45,4-3.66,5.55,1.68,3.28,9-4.38,10.15-5.4,0,0-2.81,3-2.8,3-2.37,2.28-3.9,4.24-2.14,5.17C399.91,298.74,405.27,292.4,407.45,290.5Z" transform="translate(0.2 -43.44)"/><path class="cls-8" d="M408.58,265.08l14.7,11.17s51.14-54.77,47.41-76.38c-6.13-35.5-24.25-76-35-79.43-4.46-1.44-9.56,16.68-3.62,42.3,0,0,10.53,37.74,9.86,41.68S408.58,265.08,408.58,265.08Z" transform="translate(0.2 -43.44)"/><path class="cls-8" d="M353.13,320.55c.8,1.84,5,4.64,3.51,7.13-.75,1.25-4.53-1.39-5.37-2.47-1.17-1.52-9.31-14.14-10.59-17.79-1-2.85-1.94-5.63-3.06-8.24a41.84,41.84,0,0,0,8.14-6.52c4.15,1.91,8.57,4.57,12.66,6.36,2.19,1,4.6,1.64,6.82,2.46,1.41.53,4.41,1.29,4.54,3.17.14,2.07-2.87,1.46-4.07,1.22-1.71-.34-4.87-2-6.09,0-1.77,2.86,3.59,6.18,5.39,8.13s7.78,7.39,3.31,7.84c-.94.09-7.29-5.37-8.29-6.09.2.26,4.28,4.2,4.48,4.47,1.05,1.43,4.11,4.38,3.2,5.84-2,3.12-8.66-5.11-9.69-6.21l2.55,3.24c2.18,2.47,3.54,4.55,1.71,5.33C360,329.38,355.14,322.62,353.13,320.55Z" transform="translate(0.2 -43.44)"/><path class="cls-8" d="M352.22,295.31l-13.9,9.26s-48-59.16-43.23-80.57c7.81-35.14,21.1-88.9,31.84-97.13,3.73-2.85,15.66,19.69,14.78,33.77,0,0-17.78,70.2-17.31,74.16S352.22,295.31,352.22,295.31Z" transform="translate(0.2 -43.44)"/><path class="cls-3" d="M397.23,53.89s.26-4.77-5.16-7.72-16.22-4.28-24.77,0S356.15,51.41,353.66,50s-.92-2.85-.92-2.85-5.59,0-5.32,8.63,10.95,19.48,24.9,19.48C393.63,75.25,400.53,60.35,397.23,53.89Z" transform="translate(0.2 -43.44)"/></g></g></svg>