<svg id="Layer_1" data-name="Layer 1" xmlns="http://www.w3.org/2000/svg" xmlns:xlink="http://www.w3.org/1999/xlink" viewBox="0 0 499.59 365.59"><defs><style>.cls-1{fill:none;}.cls-2{fill:#f0e5f1;}.cls-3{fill:#dec9e2;}.cls-4{fill:#44bda3;}.cls-5{fill:#bedef5;}.cls-6{fill:#fff;}.cls-7{fill:#f15d5e;}.cls-8{fill:#fcb32b;}.cls-9{fill:#151c45;}.cls-10{fill:#cc7049;}.cls-11{fill:#e0dfdf;}.cls-12{fill:#a1b1d0;}.cls-13{fill:#c5533a;}.cls-14{fill:#aeadae;}.cls-15{fill:#6fb2e2;}.cls-16{fill:#60c4af;}.cls-17{clip-path:url(#clip-path);}.cls-18{fill:#f69d9e;}.cls-19{fill:#f6ba8a;}.cls-20{fill:#f18665;}.cls-21{fill:#26ad92;}.cls-22{fill:#c4c4c4;}.cls-23{fill:#919191;}.cls-24{fill:#ebebeb;}.cls-25{fill:#eba771;}.cls-26{fill:#f18d6e;}.cls-27{fill:#f79678;}.cls-28{fill:#f47b56;}.cls-29{fill:#e5f2fb;}</style><clipPath id="clip-path" transform="translate(-0.41 -66.21)"><polygon class="cls-1" points="325.6 307.67 117.23 307.67 117.23 280.97 77.39 198.39 101.44 130.45 334.25 125.26 325.6 279.09 325.6 307.67"/></clipPath></defs><title>contact-us</title><circle class="cls-2" cx="191.98" cy="149.38" r="133.64"/><circle class="cls-3" cx="191.98" cy="137.76" r="133.64"/><path class="cls-4" d="M274.73,293c10.1-9.89,23.74,22.44,28.46,34.79l9.45-10.85c-6.61-7.89-30.48-38.39-10.9-46.12,13.48-5.32,13.18,31.67,12.71,44l12.76-14.65c-3.3-7.61-19.07-46.57,2.73-48.26,14.6-1.14,3,34.93-.95,46.22l13.58-15.59c5-12.18,19.59-44.2,29.43-34,13.85,14.32-16.15,31.13-27.28,36.67l-13,14.87c11.42-6.79,42-23.59,43.83-9.6,2.74,21.44-37.63,14.34-46.41,12.56L315.35,318.9c9.61-2.48,50.11-12.07,47.51,3-3.76,21.73-41.69,1.86-48.49-1.9l-9.85,11.31c.06.16.11.31.15.43,10.85,1.64,50.06,8.5,42,21.12-11.55,18.05-37.62-12.63-43.49-20l-21.82,25-2.53-2.2,22.14-25.4C289.93,324.47,260.51,306.88,274.73,293Z" transform="translate(-0.41 -66.21)"/><path class="cls-4" d="M327,410.77c-11.11,0-21.95-3-26-12.2-8.82-20.15,14.84-37.88,30.21-45.17,5.81-2.77,11.9-5.1,17.79-7.36,5.37-2.06,10.93-4.18,16.23-6.62h0A127,127,0,0,0,402.88,313a2.34,2.34,0,0,1,4,1.76c-.64,15.47-1.72,30.49-7.84,44.22-4.65,10.4-12.32,20.3-24.15,31.16-6.09,5.6-14.35,12.52-24.17,16.41A69.19,69.19,0,0,1,327,410.77Zm39.17-69.39c-5.36,2.46-10.95,4.61-16.36,6.68-5.85,2.24-11.9,4.56-17.64,7.28-14.66,7-37.31,23.73-29.15,42.36,6.75,15.41,35.92,11.17,46.94,6.8,9.5-3.76,17.55-10.52,23.51-16,11.61-10.65,19.12-20.33,23.64-30.45,6-13.38,7-28.18,7.66-43.43a.19.19,0,0,0-.12-.19.14.14,0,0,0-.19,0,129.36,129.36,0,0,1-38.29,26.9Z" transform="translate(-0.41 -66.21)"/><path class="cls-4" d="M134.56,350.51c-10.11-9.89-23.75,22.44-28.47,34.79l-9.45-10.85c6.61-7.89,30.48-38.39,10.9-46.12C94.06,323,94.37,360,94.84,372.38L82.07,357.73c3.3-7.61,19.07-46.57-2.73-48.26-14.6-1.13-3,34.93,1,46.22L66.71,340.1c-5-12.17-19.59-44.2-29.43-34-13.85,14.32,16.16,31.13,27.29,36.67l13,14.87c-11.42-6.79-42-23.59-43.83-9.6C31,369.45,71.32,362.36,80.1,360.57l13.83,15.87c-9.61-2.48-50.11-12.06-47.51,3,3.76,21.73,41.69,1.86,48.5-1.89l9.84,11.3c-.05.16-.11.31-.15.43-10.85,1.64-50,8.5-42,21.12,11.56,18.05,37.62-12.63,43.5-20l21.82,25,2.52-2.2-22.14-25.4C119.35,382,148.78,364.42,134.56,350.51Z" transform="translate(-0.41 -66.21)"/><path class="cls-4" d="M98.16,334.56A129.15,129.15,0,0,0,82,291.07a1.27,1.27,0,0,1,1.46-1.85c14.33,4.39,28.79,9.27,40.44,18.61,10.21,8.18,17.63,19.34,23.75,30.91,4.52,8.54,8.46,17.57,9.63,27.16,1.63,13.4-2.51,42.23-19.37,44.89C116.75,414.13,106.09,387,103.06,371,100.78,358.94,100.29,346.63,98.16,334.56Z" transform="translate(-0.41 -66.21)"/><path class="cls-5" d="M392.61,104v-1.13a14.68,14.68,0,0,0,7.23-2l.58,1A16,16,0,0,1,392.61,104Zm-7.85-2a15.8,15.8,0,0,1-5.86-5.59l1-.59a14.72,14.72,0,0,0,5.44,5.19Zm21.33-6-1-.56A14.66,14.66,0,0,0,407,88.21q0-.46,0-.93l1.13-.07c0,.33,0,.66,0,1A15.85,15.85,0,0,1,406.09,96Zm-29.52-7.33v-.5a15.82,15.82,0,0,1,1.83-7.39l1,.53a14.73,14.73,0,0,0-1.7,6.86c0,.16,0,.31,0,.47Zm28.05-8.56a14.79,14.79,0,0,0-5.6-5l.51-1a15.83,15.83,0,0,1,6,5.4ZM384.5,75.83l-.61-1a15.79,15.79,0,0,1,7.72-2.44l.05,1.13A14.58,14.58,0,0,0,384.5,75.83Z" transform="translate(-0.41 -66.21)"/><path class="cls-5" d="M362.46,73a6.77,6.77,0,1,1-6.77-6.77A6.77,6.77,0,0,1,362.46,73Z" transform="translate(-0.41 -66.21)"/><path class="cls-5" d="M106.33,78.06a4,4,0,1,1-4-4A3.94,3.94,0,0,1,106.33,78.06Z" transform="translate(-0.41 -66.21)"/><path class="cls-6" d="M105.18,135.07H67.37a4.52,4.52,0,0,0-4.53,4.53V164a4.53,4.53,0,0,0,4.53,4.53H78.62l3.56,6.16,4.09,7.09,4.1-7.09,3.55-6.16h11.26a4.53,4.53,0,0,0,4.53-4.53V139.6A4.53,4.53,0,0,0,105.18,135.07Z" transform="translate(-0.41 -66.21)"/><path class="cls-7" d="M54.51,209.27c-7.9-4.87-12.82,4.64-12.85,4.69s-5-9.56-12.86-4.69c-9.07,5.6-.2,23.26,12.86,27.55h0C54.72,232.53,63.59,214.87,54.51,209.27Z" transform="translate(-0.41 -66.21)"/><path class="cls-8" d="M403.11,180.31H365.3a4.53,4.53,0,0,0-4.53,4.53v24.38a4.53,4.53,0,0,0,4.53,4.53h11.26l3.55,6.15,4.1,7.1,4.09-7.1,3.56-6.15h11.25a4.53,4.53,0,0,0,4.53-4.53V184.84A4.53,4.53,0,0,0,403.11,180.31Z" transform="translate(-0.41 -66.21)"/><path class="cls-6" d="M381.19,207.91a43,43,0,0,0,9.88.06,5.39,5.39,0,0,0,2.28-.63,1.9,1.9,0,0,0,1-1.93,2.34,2.34,0,0,0,1.51-.87,2.22,2.22,0,0,0,.45-.57,1.57,1.57,0,0,0,.13-.83A2.53,2.53,0,0,0,395.2,201a2.24,2.24,0,0,0,1.09-3.59,2.55,2.55,0,0,0-1.15-.74c.33-.29.78-.44,1-.79a1.29,1.29,0,0,0-.28-1.62,2.84,2.84,0,0,0-1.67-.61,25.72,25.72,0,0,0-3.28.09,6.63,6.63,0,0,1-3.25-.67c-.21-1.44.14-2.95-.25-4.36a4.42,4.42,0,0,0-3.91-3.16.89.89,0,0,0-1.14,1,14.46,14.46,0,0,0,.7,3.41,4.21,4.21,0,0,1-.33,3.38,11.94,11.94,0,0,0-.83,1.08,8,8,0,0,0-.41,1.83c-.15.61-.63,1.25-1.26,1.19Z" transform="translate(-0.41 -66.21)"/><rect class="cls-9" x="375.78" y="128.19" width="5.01" height="14.74" rx="0.55"/><path class="cls-6" d="M379.19,196.23a.62.62,0,1,1-.62-.61A.61.61,0,0,1,379.19,196.23Z" transform="translate(-0.41 -66.21)"/><path class="cls-10" d="M383.26,410.74h-11c.86,6.77,1.54,11.93,1.83,14.12,0,0-7.68,5.21-12.89,4.53a.83.83,0,0,0-.76.3,1.13,1.13,0,0,0,.1,1.47.78.78,0,0,0,.62.29h20.73a1.58,1.58,0,0,0,1.55-1.34,13,13,0,0,0-.35-4.94Z" transform="translate(-0.41 -66.21)"/><path class="cls-9" d="M371.14,426.7s1.83,1.2,2.11,2.47c.14.64,2.13.52,4.07.26a12.54,12.54,0,0,0,5.43-2.27,1.24,1.24,0,0,1,.8-.32c.7.14.63,4.44-.21,4.8s-19.8.05-22.81,0a.43.43,0,0,1-.42-.42c0-.73.12-2.18,1.22-2.33C362.81,428.67,371.14,426.7,371.14,426.7Z" transform="translate(-0.41 -66.21)"/><path class="cls-10" d="M408.57,410.74h-11l2.7,14.43a13.05,13.05,0,0,0,.52,4.94,1.94,1.94,0,0,0,1.78,1.34h17.22c0-.74,0-1.47,0-2.21-4.87-.91-10.61-4.38-10.61-4.38C409.11,422.67,408.89,417.51,408.57,410.74Z" transform="translate(-0.41 -66.21)"/><path class="cls-9" d="M412.59,426.7s-1.83,1.2-2.11,2.47c-.15.64-2.13.52-4.07.26a12.49,12.49,0,0,1-5.43-2.27,1.24,1.24,0,0,0-.8-.32c-.7.14-.63,4.44.21,4.8s19.8.05,22.8,0a.42.42,0,0,0,.42-.42c0-.73-.11-2.18-1.22-2.33C420.91,428.67,412.59,426.7,412.59,426.7Z" transform="translate(-0.41 -66.21)"/><path class="cls-8" d="M370.17,281.82s-6.39,5.83-5.83,10.54,4.89,19,3.58,28.77-4.33,18.24-3.58,28.58,7.15,67.7,7.15,67.7,14.48-4.89,19.56-2.63,19,4.14,20.87,3.39c0,0-3.2-77.3-13.73-91.78,0,0-1.88-20.78,0-25.43s-.43-17.49-5.08-19S370.17,281.82,370.17,281.82Z" transform="translate(-0.41 -66.21)"/><path class="cls-9" d="M374.8,289c3.56-.46,7.06-.88,10.53-1.48,1.74-.3,3.45-.67,5.17-1.06s3.4-.92,5.11-1.48a26.7,26.7,0,0,1-10.08,3.68,43.87,43.87,0,0,1-5.36.56A31.1,31.1,0,0,1,374.8,289Z" transform="translate(-0.41 -66.21)"/><path class="cls-9" d="M378.82,381.22c2.44-3,4.88-6,7.18-9s4.48-6.19,6.73-9.35a44,44,0,0,1-5.8,10A44.69,44.69,0,0,1,378.82,381.22Z" transform="translate(-0.41 -66.21)"/><path class="cls-9" d="M386.24,379.72a22,22,0,0,1,5.18-8.57,21.88,21.88,0,0,1-5.18,8.57Z" transform="translate(-0.41 -66.21)"/><path class="cls-10" d="M386.53,322.27c.07-.89-5.86-2.47-5.63-3.07s1.71-.74,2.49-.72a.25.25,0,0,0,.27-.28c0-.33-.22-.81-1-.89a14.38,14.38,0,0,0-5.63.44h0l-6.8-3.74c-.69,2.33-1.32,4.69-2.2,6.9a63.75,63.75,0,0,0,7.93,1.06v0h0c1.45,1.35,5,4.49,6.92,5.09a.19.19,0,0,0,.24-.24c-.12-.34-.55-1-2-2,0,0,3.45,1.45,4.08,1.19s-3.5-2.72-3.5-2.72,4.05,1.22,4.48.78-3.92-2.39-3.92-2.39S386.5,322.62,386.53,322.27Z" transform="translate(-0.41 -66.21)"/><path class="cls-8" d="M368.1,283.7a156.43,156.43,0,0,0-12.78,14.86c-4.61,6.49-5.55,10.06-4.42,14.11s8.18,6.39,10.25,7.05,12.22,2.54,12.22,2.54l1.69-6-11.75-6.77,12-17.3Z" transform="translate(-0.41 -66.21)"/><path class="cls-9" d="M359,307.87a9.52,9.52,0,0,1,2.29.34,16,16,0,0,1,2.14.76l-.68.81a9.81,9.81,0,0,1-1.07-2.83,10.25,10.25,0,0,1,2,2.25l.94,1.37L363,310a16,16,0,0,1-2.1-.87A9.51,9.51,0,0,1,359,307.87Z" transform="translate(-0.41 -66.21)"/><path class="cls-9" d="M369.37,302.72a8.93,8.93,0,0,1,2-2.74,8.64,8.64,0,0,1,2.8-1.91,9.07,9.07,0,0,1-2,2.74A9,9,0,0,1,369.37,302.72Z" transform="translate(-0.41 -66.21)"/><path class="cls-11" d="M365.36,236.49H397.6a1.65,1.65,0,0,1,1.65,1.65v21.29a0,0,0,0,1,0,0H363.71a0,0,0,0,1,0,0V238.14A1.65,1.65,0,0,1,365.36,236.49Z"/><rect class="cls-12" x="363.71" y="259.06" width="35.54" height="2.63"/><path class="cls-6" d="M385.09,315.11a3.2,3.2,0,1,1-3.2-3.2A3.2,3.2,0,0,1,385.09,315.11Z" transform="translate(-0.41 -66.21)"/><path class="cls-10" d="M401.71,320.82l-.59-.74-.42.1c-.23-.15-.46-.28-.68-.43l-.37.69h0a14.56,14.56,0,0,0-4.95,2.72,1,1,0,0,0-.39,1.32.25.25,0,0,0,.38.09c.64-.45,2-1.1,2.47-.77s-3.56,4.95-3,5.66c.22.28,3.22-2.9,3.22-2.9s-2.58,4-2,4.15,3.33-3.11,3.33-3.11-2.1,4.32-1.43,4.19,2.75-3.23,2.75-3.23a5.33,5.33,0,0,0-.52,2.77.18.18,0,0,0,.33.08c1.3-1.58,2.52-6.13,3-8.05h0c.45-.34.88-.71,1.33-1.07C403.35,321.83,402.53,321.33,401.71,320.82Z" transform="translate(-0.41 -66.21)"/><path class="cls-8" d="M394.62,283.05a40.76,40.76,0,0,1,5,2.44c1.79,1.13,18.62,15.52,18.81,19.65s-14.76,18.62-14.76,18.62l-3.86-3.85,6-12.6-16.36-15.14Z" transform="translate(-0.41 -66.21)"/><path class="cls-9" d="M407.88,304.49a6.56,6.56,0,0,1-.63,1.69,9.43,9.43,0,0,1-1,1.46l-.9,1.13-.12-1.41a8.07,8.07,0,0,1,0-1.39,5.59,5.59,0,0,1,.28-1.41,5.46,5.46,0,0,1,.56,1.33,7.17,7.17,0,0,1,.29,1.36l-1-.28a10.15,10.15,0,0,1,1.09-1.36A6.33,6.33,0,0,1,407.88,304.49Z" transform="translate(-0.41 -66.21)"/><path class="cls-9" d="M400.54,319.22a5.26,5.26,0,0,1,2.33,1.06,5,5,0,0,1,1.62,2,5.15,5.15,0,0,1-2.33-1.06A5.23,5.23,0,0,1,400.54,319.22Z" transform="translate(-0.41 -66.21)"/><polygon class="cls-9" points="397.88 234.19 392.38 231.22 397.38 236.16 397.88 234.19"/><path class="cls-10" d="M394.2,264.51a2.14,2.14,0,0,0-2.4-1.51c.47-13.6-10.87-11.77-10.87-11.77-7.12.62-7.93,8.18-7.88,12a2.47,2.47,0,0,0-.57-.27,2.13,2.13,0,0,0-2.4,1.51,2.81,2.81,0,0,0,.37,2.35,3.53,3.53,0,0,0,1.61,1.35,4.26,4.26,0,0,0,1.24.14c1.1,8.9,9.16,8,9.16,8,7,.35,8.8-4.53,9.2-8.05a4.13,4.13,0,0,0,.56-.11,3.53,3.53,0,0,0,1.61-1.35A2.81,2.81,0,0,0,394.2,264.51Z" transform="translate(-0.41 -66.21)"/><circle class="cls-13" cx="387.72" cy="201.7" r="2.28"/><circle class="cls-13" cx="376.38" cy="201.7" r="2.28"/><ellipse class="cls-9" cx="384.9" cy="197.28" rx="0.66" ry="1.35"/><path class="cls-9" d="M386.65,261.71a2.07,2.07,0,0,1-.44.58,1.67,1.67,0,0,1-.69.35h0a.25.25,0,0,1-.11-.48h.06a1.43,1.43,0,0,0,1.06-.54h0a.07.07,0,0,1,.11,0A.07.07,0,0,1,386.65,261.71Z" transform="translate(-0.41 -66.21)"/><ellipse class="cls-9" cx="379.2" cy="197.28" rx="0.66" ry="1.35"/><path class="cls-9" d="M378.4,261.63a1.43,1.43,0,0,0,1.06.54.24.24,0,0,1,0,.48h-.08a1.67,1.67,0,0,1-.69-.35,2.07,2.07,0,0,1-.44-.58.07.07,0,0,1,0-.1.08.08,0,0,1,.1,0Z" transform="translate(-0.41 -66.21)"/><path class="cls-9" d="M384.93,267.56a3.26,3.26,0,0,1-1,1.13,2.57,2.57,0,0,1-1.47.49,2.61,2.61,0,0,1-1.47-.51,5.51,5.51,0,0,1-.57-.5c-.15-.2-.3-.4-.44-.61.2.15.39.31.57.46s.4.28.61.39a2.78,2.78,0,0,0,1.3.37,2.55,2.55,0,0,0,1.3-.36A5.53,5.53,0,0,0,384.93,267.56Z" transform="translate(-0.41 -66.21)"/><path class="cls-9" d="M383.15,270a1,1,0,0,1-.69.23,1.06,1.06,0,0,1-.69-.23,3.32,3.32,0,0,0,.69.08A2.76,2.76,0,0,0,383.15,270Z" transform="translate(-0.41 -66.21)"/><path class="cls-9" d="M380.82,258.81a1.55,1.55,0,0,0-1-.37,3.09,3.09,0,0,0-1.09.15,2.79,2.79,0,0,0-1,.55,2.92,2.92,0,0,0-.65.84.31.31,0,0,0,.12.42.31.31,0,0,0,.37,0l0,0a3.45,3.45,0,0,1,.65-.52,2.17,2.17,0,0,1,.71-.29,2.91,2.91,0,0,1,.78-.08,3,3,0,0,0,.83-.05l.09,0a.33.33,0,0,0,.24-.4A.59.59,0,0,0,380.82,258.81Z" transform="translate(-0.41 -66.21)"/><path class="cls-9" d="M384.1,258.81a1.55,1.55,0,0,1,1-.37,3.09,3.09,0,0,1,1.09.15,2.79,2.79,0,0,1,1,.55,2.92,2.92,0,0,1,.65.84.31.31,0,0,1-.12.42.31.31,0,0,1-.37,0l0,0a3.45,3.45,0,0,0-.65-.52,2.17,2.17,0,0,0-.71-.29,2.91,2.91,0,0,0-.78-.08,3,3,0,0,1-.83-.05l-.09,0a.33.33,0,0,1-.24-.4A.59.59,0,0,1,384.1,258.81Z" transform="translate(-0.41 -66.21)"/><path class="cls-9" d="M382.61,261.43c.12.51.2,1,.3,1.51s.19,1,.33,1.47c0,.11.07.23.11.34a1.23,1.23,0,0,1,.11.44.88.88,0,0,1-.47.8,1.08,1.08,0,0,1-.86,0,2.22,2.22,0,0,1-.68-.4c.48.17,1,.31,1.36.06a.5.5,0,0,0,.23-.48.79.79,0,0,0-.09-.3,2.46,2.46,0,0,1-.14-.38,7.48,7.48,0,0,1-.25-1.55A8,8,0,0,1,382.61,261.43Z" transform="translate(-0.41 -66.21)"/><path class="cls-9" d="M370.91,265.24a1.09,1.09,0,0,1,.35-.89,1,1,0,0,1,1-.1,1.78,1.78,0,0,1,.82.6,3.11,3.11,0,0,1,.51.86.22.22,0,0,1-.12.29.25.25,0,0,1-.25-.05v0a2,2,0,0,0-.75-.53.35.35,0,0,0-.32,0,.81.81,0,0,0-.23.34c-.11.3-.18.65.07.78a1.66,1.66,0,0,0,1,.07,1.64,1.64,0,0,1-1.1.15.61.61,0,0,1-.38-.52,1.7,1.7,0,0,1,.06-.6,1.17,1.17,0,0,1,.32-.55.79.79,0,0,1,.69-.14,2.27,2.27,0,0,1,1,.66l-.38.23a2.4,2.4,0,0,0-1-1.29.82.82,0,0,0-.76-.05A1.07,1.07,0,0,0,370.91,265.24Z" transform="translate(-0.41 -66.21)"/><path class="cls-9" d="M393.67,265.24a1.12,1.12,0,0,0-.35-.89,1,1,0,0,0-1-.1,1.88,1.88,0,0,0-.82.6,3.11,3.11,0,0,0-.51.86.23.23,0,0,0,.13.29.23.23,0,0,0,.24-.05v0a2,2,0,0,1,.76-.53.35.35,0,0,1,.32,0,.8.8,0,0,1,.22.34c.12.3.19.65-.07.78a1.64,1.64,0,0,1-1,.07,1.6,1.6,0,0,0,1.09.15.62.62,0,0,0,.39-.52,1.7,1.7,0,0,0-.06-.6,1.26,1.26,0,0,0-.32-.55A.79.79,0,0,0,392,265a2.16,2.16,0,0,0-1,.66l.38.23a2.34,2.34,0,0,1,1-1.29.85.85,0,0,1,.77-.05A1.1,1.1,0,0,1,393.67,265.24Z" transform="translate(-0.41 -66.21)"/><path class="cls-9" d="M396.16,283.08l-.12,0a5.08,5.08,0,0,1-3.43-5.91c.88-4.5,2.37-12.6,2.1-14.87-.37-3.2-2.53-12.32-11-13s-13.63,5-14.67,13.16,1.7,17,1.7,17c-.08,1.29-4.4,5.37-5.67,6.55a.28.28,0,0,0,.11.47c12.8,4.05,27.39-1.38,31-2.89A.27.27,0,0,0,396.16,283.08Zm-13.71-7.27c-4.91,0-8.89-4.61-8.89-10.3s4-10.3,8.89-10.3,8.89,4.61,8.89,10.3S387.36,275.81,382.45,275.81Z" transform="translate(-0.41 -66.21)"/><path class="cls-6" d="M366.6,286a108.22,108.22,0,0,0,10.92-4.66,54.93,54.93,0,0,0,5.09-3,36.79,36.79,0,0,0,4.58-3.75,18.92,18.92,0,0,1-4,4.48,31.41,31.41,0,0,1-5.1,3.28,39.24,39.24,0,0,1-5.59,2.28A30.92,30.92,0,0,1,366.6,286Z" transform="translate(-0.41 -66.21)"/><path class="cls-6" d="M376.94,274.4a8.07,8.07,0,0,1-3.13-2,9.31,9.31,0,0,1-2.12-3.15,9.49,9.49,0,0,1-.71-3.71,9.71,9.71,0,0,1,.17-1.87,13.51,13.51,0,0,1,.53-1.78c.05.62,0,1.22,0,1.82s0,1.19.16,1.77l.13.86.21.84c.06.28.16.55.25.83a6,6,0,0,0,.3.8,12.41,12.41,0,0,0,1.72,3A17.08,17.08,0,0,0,376.94,274.4Z" transform="translate(-0.41 -66.21)"/><path class="cls-6" d="M375.34,259.26s7.48-3.44,14.25,0C389.59,259.26,382.68,248.26,375.34,259.26Z" transform="translate(-0.41 -66.21)"/><rect class="cls-11" x="111.56" y="21.44" width="218.9" height="344.15" rx="20.39"/><rect class="cls-14" x="195.62" y="29.71" width="50.78" height="3.76"/><rect class="cls-14" x="196.94" y="346.4" width="48.14" height="9.78"/><rect class="cls-6" x="116.82" y="43.63" width="208.37" height="296.49"/><rect class="cls-9" x="116.82" y="43.63" width="208.37" height="11.28"/><circle class="cls-15" cx="135.35" cy="253.78" r="8.37"/><circle class="cls-16" cx="135.35" cy="323.46" r="8.37"/><circle class="cls-15" cx="158.48" cy="253.78" r="8.37"/><rect class="cls-5" x="171.55" y="247.3" width="44.57" height="4.33"/><rect class="cls-5" x="128.48" y="267.61" width="185.05" height="4.33"/><rect class="cls-5" x="128.48" y="276.45" width="185.05" height="4.33"/><rect class="cls-5" x="128.48" y="285.28" width="44.57" height="4.33"/><rect class="cls-5" x="147.1" y="316.6" width="44.57" height="4.33"/><circle class="cls-7" cx="135.76" cy="160.99" r="8.37" transform="translate(-52.61 189.76) rotate(-76.67)"/><rect class="cls-5" x="147.1" y="87.92" width="44.57" height="4.33"/><rect class="cls-5" x="171.55" y="255.38" width="71.84" height="4.33"/><rect class="cls-7" x="116.82" y="106.06" width="208.37" height="135.4"/><g class="cls-17"><path class="cls-18" d="M267.82,319.78c-6.7,0-13.46-3.11-18.78-5.55-7-3.19-11.44-11.86-10-19.32A14.17,14.17,0,0,1,248.58,284c.5-.15,1-.26,1.52-.37a15.45,15.45,0,0,0,2.25-.62c2.59-1,4.62-3.67,5.43-7.08a31.27,31.27,0,0,0,.31-9.12l0-.5c-.32-5.22-.48-10.74,1.42-15.81,1.76-4.67,6.11-9.58,11.86-10a20.08,20.08,0,0,1,2.05,0,14.42,14.42,0,0,0,2.73-.12c4.14-.73,6.77-5.05,8.89-8.52s5.53-8.08,10.4-8a8.55,8.55,0,0,1,7.33,5.15,12.75,12.75,0,0,1,.25,9c-.28.9-.64,1.81-1,2.69-1.1,2.8-2.14,5.43-1.09,7.89a10.17,10.17,0,0,0,2.19,2.92c.33.35.65.69,1,1a16.31,16.31,0,0,1,1.41,18.76c-2.36,3.74-6.17,6.34-9.85,8.85-4.65,3.18-9,6.17-10.52,11.19-.77,2.61-.57,5.31-.37,8.17a28.25,28.25,0,0,1-.14,7.46,16.1,16.1,0,0,1-9.74,11.45A18.31,18.31,0,0,1,267.82,319.78Zm4.63-78.18c-.35,0-.69,0-1,0-5.25.39-9.25,5-10.88,9.29-1.82,4.86-1.67,10.24-1.35,15.34l0,.5a32.23,32.23,0,0,1-.33,9.45c-.9,3.77-3.18,6.71-6.12,7.87a16.45,16.45,0,0,1-2.42.67c-.48.11-1,.21-1.45.35h0a13,13,0,0,0-8.72,10c-1.34,6.86,2.93,15.14,9.34,18.08,7,3.21,16.61,7.62,24.9,4.19a15,15,0,0,0,9.07-10.62,27.65,27.65,0,0,0,.11-7.16c-.2-2.83-.41-5.77.42-8.57,1.59-5.4,6.36-8.65,11-11.8,3.59-2.45,7.3-5,9.54-8.52a15.17,15.17,0,0,0-1.31-17.43c-.3-.34-.61-.67-.93-1a11.51,11.51,0,0,1-2.41-3.26c-1.23-2.88-.05-5.86,1.08-8.74.34-.86.69-1.76,1-2.61a11.59,11.59,0,0,0-.2-8.22,7.43,7.43,0,0,0-6.32-4.5c-4.29,0-7.44,4.23-9.42,7.47-2.23,3.66-5,8.22-9.65,9a16.33,16.33,0,0,1-2.95.14Z" transform="translate(-0.41 -66.21)"/><path class="cls-18" d="M305.62,217.12a3.81,3.81,0,1,1,3.81-3.8A3.81,3.81,0,0,1,305.62,217.12Zm0-6.48a2.68,2.68,0,1,0,2.68,2.68A2.68,2.68,0,0,0,305.62,210.64Z" transform="translate(-0.41 -66.21)"/><path class="cls-18" d="M288.84,197.1a1.41,1.41,0,1,1-1.41-1.41A1.41,1.41,0,0,1,288.84,197.1Z" transform="translate(-0.41 -66.21)"/><circle class="cls-18" cx="136.8" cy="212.27" r="1.83"/><path class="cls-18" d="M305.34,288.49a3.53,3.53,0,1,1,3.53-3.52A3.53,3.53,0,0,1,305.34,288.49Zm0-5.92a2.4,2.4,0,1,0,2.4,2.4A2.4,2.4,0,0,0,305.34,282.57Z" transform="translate(-0.41 -66.21)"/><path class="cls-9" d="M190.2,278S179.29,296,176.1,311.62h73.53s-5.64-27.08-12-33.47Z" transform="translate(-0.41 -66.21)"/><path class="cls-6" d="M188.41,283.27c2.14-.13,4.28-.18,6.42-.28l6.42-.16c4.28-.11,8.56-.12,12.83-.14s8.56,0,12.84.14l6.42.16c2.14.09,4.27.15,6.41.28-2.14.14-4.27.19-6.41.29l-6.42.16c-4.28.11-8.56.12-12.84.14s-8.55,0-12.83-.14l-6.42-.16C192.69,283.46,190.55,283.4,188.41,283.27Z" transform="translate(-0.41 -66.21)"/><path class="cls-6" d="M195.89,283.7a16.34,16.34,0,0,1-1.37,4.08,17.09,17.09,0,0,1-2.35,3.67,10.17,10.17,0,0,1-3.51,2.71,6,6,0,0,1-4.34.26,7.66,7.66,0,0,0,3.93-1.07,12.34,12.34,0,0,0,3-2.66A44.26,44.26,0,0,0,195.89,283.7Z" transform="translate(-0.41 -66.21)"/><path class="cls-6" d="M217.89,283.13c.17,3.62.3,7.24.37,10.86l.12,5.43,0,5.43v.22l-.15.16c-2,2-3.91,4-5.9,5.95l-1,1v-1.39c.06-4.59,0-9.17.14-13.75s.21-9.17.44-13.76c.23,4.59.34,9.17.43,13.76s.09,9.16.14,13.75l-1-.41c2-2,4-3.93,6-5.89l-.16.37,0-5.43.12-5.43C217.59,290.37,217.72,286.75,217.89,283.13Z" transform="translate(-0.41 -66.21)"/><path class="cls-6" d="M234.54,283.27a28.24,28.24,0,0,0,.7,3.79,11.33,11.33,0,0,0,1.46,3.37,5.87,5.87,0,0,0,2.73,2.18,11.59,11.59,0,0,0,3.71.68,7.14,7.14,0,0,1-4,.18,5.88,5.88,0,0,1-3.4-2.38,9,9,0,0,1-1.38-3.85A10.6,10.6,0,0,1,234.54,283.27Z" transform="translate(-0.41 -66.21)"/><path class="cls-19" d="M274.8,203.78l-9.07.28s-2.94,13.34-7,31.15c-1.33-2.11-2.58-4.11-3.72-6a155.45,155.45,0,0,1-14.35,22.43c3,5.14,6.51,10.75,10.46,16.6l.16.24c7,10.35,23.18,6.54,24.83-5.84l.06-.43C278.67,243.69,279.09,223.34,274.8,203.78Z" transform="translate(-0.41 -66.21)"/><path class="cls-20" d="M269.44,190.36c-.21-2.37-.52-4.83-.9-4.75-.64.13-1,1.78-1.29,3.87A14.11,14.11,0,0,1,269.44,190.36Z" transform="translate(-0.41 -66.21)"/><path class="cls-20" d="M273.27,193.26c0-2.54-.22-7.51-1.06-8-.66-.36-1.39,2.81-1.88,5.54A11.57,11.57,0,0,1,273.27,193.26Z" transform="translate(-0.41 -66.21)"/><path class="cls-19" d="M279.59,189.9c-.6.43-1.62,1.66-2.92,5.1,0,0,.89-7.76,0-8.86-.7-.88-2.42,5-3.11,7.52a5.74,5.74,0,0,1,1,1.87,7,7,0,0,1,.24,2.71,5.93,5.93,0,0,1-3.83,7.4,7.94,7.94,0,0,1-3.68.31,6.08,6.08,0,0,1-2.91.27,26.37,26.37,0,0,0,2.56,3.72l6.32-1.21s6.91-13,7-18.51A.38.38,0,0,0,279.59,189.9Z" transform="translate(-0.41 -66.21)"/><path class="cls-9" d="M257.43,249.28a66.43,66.43,0,0,1,.18-7.06c.07-1.17.19-2.34.3-3.5s.26-2.34.43-3.5l.94.31a59.92,59.92,0,0,1-3.64,5.1c.82-1.94,1.78-3.79,2.77-5.62l1.07-2-.13,2.3c-.07,1.17-.18,2.34-.28,3.51s-.24,2.34-.4,3.5A66.13,66.13,0,0,1,257.43,249.28Z" transform="translate(-0.41 -66.21)"/><path class="cls-11" d="M260.64,186.63,271.53,207a2.12,2.12,0,0,0,2.44,1c2-.55,5.19-1.83,6-4.39,1.17-3.82-8.66-22.86-8.66-22.86Z" transform="translate(-0.41 -66.21)"/><path class="cls-21" d="M248.94,160.17l-3.68,1.1a2.33,2.33,0,0,0-1.63,2.57,83.91,83.91,0,0,0,6.16,20.29,2.33,2.33,0,0,0,2.8,1.31l3.26-1Z" transform="translate(-0.41 -66.21)"/><path class="cls-4" d="M267.06,150.32l-17.33,5.19c-2.55.76-2.45,8.61.22,17.54s6.9,15.54,9.45,14.78l17.33-5.19Z" transform="translate(-0.41 -66.21)"/><path class="cls-16" d="M276.51,165.1c2.67,8.93,2.77,16.78.22,17.54s-6.78-5.85-9.45-14.78-2.76-16.77-.22-17.54S273.84,156.18,276.51,165.1Z" transform="translate(-0.41 -66.21)"/><path class="cls-11" d="M299.76,129.47l-32.11,24.76.11,2.21a48.37,48.37,0,0,0,7.65,23.73h0l40,.24Z" transform="translate(-0.41 -66.21)"/><path class="cls-22" d="M320.94,150.94c4.26,14.23,2.45,27.34-4,29.28-5,1.51-11.38-4.13-16-13.36a56.94,56.94,0,0,1-3.48-8.89,58.19,58.19,0,0,1-1.86-8.46c-1.46-10.64.74-19.27,5.91-20.82C308,126.75,316.69,136.71,320.94,150.94Z" transform="translate(-0.41 -66.21)"/><path class="cls-23" d="M307.69,154.91c2.64,8.84,2.95,17.24,1.24,22.81-4.48-3.72-8.84-10.91-11.49-19.75s-2.95-17.24-1.24-22.81C300.68,138.88,305,146.07,307.69,154.91Z" transform="translate(-0.41 -66.21)"/><path class="cls-24" d="M307.84,148.54l3.47,11.61-10.39,6.71a56.94,56.94,0,0,1-3.48-8.89,58.19,58.19,0,0,1-1.86-8.46Z" transform="translate(-0.41 -66.21)"/><path class="cls-4" d="M312.22,153.55c1,3.21.55,6.16-.91,6.6s-3.43-1.81-4.39-5-.55-6.17.92-6.61S311.26,150.34,312.22,153.55Z" transform="translate(-0.41 -66.21)"/><path class="cls-9" d="M270.88,152.34c.43,2.46,1,4.89,1.51,7.31s1.18,4.81,1.94,7.16a61.2,61.2,0,0,0,2.63,6.9,38.21,38.21,0,0,0,3.79,6.37,24.35,24.35,0,0,1-4.6-6,40.87,40.87,0,0,1-2.93-7,53.17,53.17,0,0,1-1.72-7.34A44.68,44.68,0,0,1,270.88,152.34Z" transform="translate(-0.41 -66.21)"/><path class="cls-9" d="M256.87,184.5a49.48,49.48,0,0,1,14.48-4.33,49.72,49.72,0,0,1-14.48,4.33Z" transform="translate(-0.41 -66.21)"/><path class="cls-9" d="M310.75,153.65a14.23,14.23,0,0,1,.31,1.73,4.51,4.51,0,0,1,0,.9,1.47,1.47,0,0,1-.12.48.74.74,0,0,1-.45.45,1.18,1.18,0,0,1-1.1-.42,4.05,4.05,0,0,1-.61-.77,6.11,6.11,0,0,1-.7-1.72,6,6,0,0,1-.17-1.85,3.63,3.63,0,0,1,.19-1,1.49,1.49,0,0,1,.24-.49.85.85,0,0,1,.56-.39.75.75,0,0,1,.6.19,1.87,1.87,0,0,1,.33.37,4.68,4.68,0,0,1,.4.81A14.62,14.62,0,0,1,310.75,153.65Zm0,0a5.69,5.69,0,0,0-.66-1.59,3.13,3.13,0,0,0-.53-.66c-.18-.18-.48-.3-.53-.22a1,1,0,0,0-.14.49,5.06,5.06,0,0,0,0,.77,12.66,12.66,0,0,0,.29,1.59,11.43,11.43,0,0,0,.47,1.54,3.22,3.22,0,0,0,.33.7.87.87,0,0,0,.35.37c.08.05.29-.19.36-.44a3.15,3.15,0,0,0,.17-.82A5.93,5.93,0,0,0,310.75,153.65Z" transform="translate(-0.41 -66.21)"/><path class="cls-9" d="M302.47,129.77a18.21,18.21,0,0,1,7.06,3.33,17.25,17.25,0,0,1,2.79,2.81,36.8,36.8,0,0,1,2.2,3.28A70.86,70.86,0,0,1,321,153.48a50.24,50.24,0,0,1,1.7,7.69,26.22,26.22,0,0,1,0,7.91,19,19,0,0,1-2.69,7.41,7.22,7.22,0,0,1-3.07,2.51A5.18,5.18,0,0,1,313,179a5,5,0,0,0,1.91.22,4.71,4.71,0,0,0,1.84-.46,6.57,6.57,0,0,0,2.71-2.54,18.41,18.41,0,0,0,2.28-7.22c.64-5.07-.38-10.23-1.9-15.12a75.34,75.34,0,0,0-6.1-14.19,36,36,0,0,0-2-3.29,16.69,16.69,0,0,0-2.57-2.81A19.13,19.13,0,0,0,302.47,129.77Z" transform="translate(-0.41 -66.21)"/><path class="cls-19" d="M265.24,208.24s-3.77-8.28-3.39-10.16,4.66-6.48,6.68-5.73-1.08,6.58-1.08,6.58,5,6.11,4.46,9.21S265.24,208.24,265.24,208.24Z" transform="translate(-0.41 -66.21)"/><path class="cls-8" d="M228.52,201.57s16.41,8.69,19.23,12.08S258.09,233,258.09,233l-16.36,22S224.26,229,228.52,201.57Z" transform="translate(-0.41 -66.21)"/><path class="cls-19" d="M231.78,207.28a5.43,5.43,0,0,1-.81-3.36,13.32,13.32,0,0,1-2.49-2.32c-.29-1-1-3.59-1.47-6.47a30.88,30.88,0,0,1-.54-7.63h0a6.68,6.68,0,0,1,.76-2.74l-24.93-14c0,.09,0,.16,0,.24.39,2.32,3.4,20.48.32,30.11a18.22,18.22,0,0,1-7,1.57,12.84,12.84,0,0,0-8.35,3.32c-2.42,2.28-4.57,6.11-4.61,12.5,2.28.28,4.56.73,6.84,1.14,6.8,1.22,13.59,2.52,20.4,3.65,8.79,1.46,17.8,1.78,26.69,2.76C236.21,219.4,234.91,212.54,231.78,207.28Z" transform="translate(-0.41 -66.21)"/><path class="cls-25" d="M227,195.13c-13.55,1.71-20.41-14.47-20.66-15.08A16,16,0,0,0,216,187a26.57,26.57,0,0,0,10.37.53l.08,0A30.88,30.88,0,0,0,227,195.13Z" transform="translate(-0.41 -66.21)"/><path class="cls-8" d="M202.05,200.86s16,17.67,20.68,14.85,5.89-13.6,5.89-13.6,16.12,14,18.37,18.49,2.07,13.36-3.57,27.27-3.52,32.72-3.52,32.72H188.32a38.88,38.88,0,0,0,3-19.55c-1.32-10.54-13.73-44.2-13.73-44.2S175.16,201.42,202.05,200.86Z" transform="translate(-0.41 -66.21)"/><path class="cls-9" d="M201.58,202.74c1.27,1.37,2.54,2.74,3.88,4s2.65,2.62,4.06,3.83a50.88,50.88,0,0,0,4.34,3.45,21,21,0,0,0,4.77,2.63,6.75,6.75,0,0,0,5.05.15,7.47,7.47,0,0,0,3.63-3.62A18.55,18.55,0,0,0,229,208a34,34,0,0,0,.61-5.54,22.85,22.85,0,0,1-1.49,11.15,8,8,0,0,1-4,4.25,6.88,6.88,0,0,1-3,.54,9.81,9.81,0,0,1-2.91-.62,21.7,21.7,0,0,1-5-2.82,42.33,42.33,0,0,1-4.31-3.69A62.62,62.62,0,0,1,201.58,202.74Z" transform="translate(-0.41 -66.21)"/><path class="cls-9" d="M238.79,223.55a54.89,54.89,0,0,0,3.31,7.13,18.72,18.72,0,0,1,1.8,15.58,46,46,0,0,1-2.85,7.4c.69-2.55,1.43-5.07,2-7.62a24.73,24.73,0,0,0,.53-7.65,24,24,0,0,0-2.27-7.32c-.53-1.21-1.05-2.42-1.49-3.68A27.1,27.1,0,0,1,238.79,223.55Z" transform="translate(-0.41 -66.21)"/><path class="cls-9" d="M214.65,253.12a14.31,14.31,0,0,1,11.1.95c-1.92-.07-3.73-.3-5.56-.44S216.55,253.37,214.65,253.12Z" transform="translate(-0.41 -66.21)"/><path class="cls-19" d="M172.26,248.53c-1.06-1-2.12-1.95-3.17-2.95-4.85-4.59-9.85-9-14.65-13.55q-2,2.17-4.07,4.5c-3.1,3.49-6.26,7.23-9.41,11.18a14.38,14.38,0,0,0-.4,17.38q3.76,5.19,7.93,10.26a153.76,153.76,0,0,0,28,26.77l6.58-6.23s-9.23-16.49-20.31-36.68C166,255.54,169.18,252,172.26,248.53Z" transform="translate(-0.41 -66.21)"/><path class="cls-19" d="M176,300.25s3.5,14.35,7.07,18.49a.38.38,0,0,0,.68-.17c.16-.73.11-2.32-1.2-5.76,0,0,4.49,6.39,5.88,6.63s-3.17-8.69-3.17-8.69,5.81,6.65,7.07,6.35-4.29-8.57-4.29-8.57,6.38,6.5,6.83,5.9c1.11-1.49-7.61-10.86-6.53-11.67s3.83.59,5.18,1.51a.54.54,0,0,0,.8-.21c.31-.61.49-1.67-.87-2.73a28.81,28.81,0,0,0-13.52-6.17Z" transform="translate(-0.41 -66.21)"/><path class="cls-9" d="M158.42,254.83a7.56,7.56,0,0,1,2.57,1.75,7.37,7.37,0,0,1,1.75,2.58,7.58,7.58,0,0,1-2.57-1.76A7.33,7.33,0,0,1,158.42,254.83Z" transform="translate(-0.41 -66.21)"/><path class="cls-8" d="M150,235.84l18.8,17.3,23.7-24.45s1.53-25.37-3.55-25.83C181.36,202.17,157.1,225.49,150,235.84Z" transform="translate(-0.41 -66.21)"/><polygon class="cls-9" points="184.05 170.66 193.65 161.64 186.69 179.03 184.05 170.66"/><path class="cls-19" d="M239.76,164.77c-.27-7.34-1.17-14.91-3.7-21.41-3.25-8.37-18.6-11.62-29.29-2.32-5,4.32-6,12.15-5.73,19.3a4.29,4.29,0,0,0-.64-.26c-2.17-.54-4.36,1.1-5,3.15a5.87,5.87,0,0,0,.76,4.9,7.36,7.36,0,0,0,3.37,2.82,9.49,9.49,0,0,0,2.9.29,21.6,21.6,0,0,0,7.13,12.12,19.52,19.52,0,0,0,16.62,4.21c4.63-1,11.47-3.93,13.18-8.73a12.44,12.44,0,0,0,.5-3.94c0-.31,0-.61,0-.92C239.89,171,239.89,167.91,239.76,164.77Z" transform="translate(-0.41 -66.21)"/><path class="cls-25" d="M239.86,174a4.92,4.92,0,0,1-1.22.16,4.76,4.76,0,0,1,0-9.51,4.58,4.58,0,0,1,1.12.14C239.89,167.91,239.89,171,239.86,174Z" transform="translate(-0.41 -66.21)"/><path class="cls-25" d="M210.22,169.39a4.76,4.76,0,1,0,4.75-4.76A4.75,4.75,0,0,0,210.22,169.39Z" transform="translate(-0.41 -66.21)"/><path class="cls-9" d="M231.38,160.16c0,1.55.62,2.81,1.37,2.81s1.38-1.26,1.38-2.81-.62-2.81-1.38-2.81S231.38,158.61,231.38,160.16Z" transform="translate(-0.41 -66.21)"/><path class="cls-9" d="M235.56,156.46a4.31,4.31,0,0,1-.93,1.2,3.35,3.35,0,0,1-1.44.74h0a.51.51,0,0,1-.23-1l.13,0a3,3,0,0,0,2.21-1.11h0a.16.16,0,0,1,.23,0A.17.17,0,0,1,235.56,156.46Z" transform="translate(-0.41 -66.21)"/><path class="cls-9" d="M215.9,159.78a3,3,0,0,0,2.21,1.11.52.52,0,0,1,.53.49.51.51,0,0,1-.49.53H218a3.3,3.3,0,0,1-1.44-.74,4.31,4.31,0,0,1-.93-1.2.17.17,0,0,1,.08-.22.14.14,0,0,1,.19,0Z" transform="translate(-0.41 -66.21)"/><path class="cls-9" d="M217.73,161a4.59,4.59,0,0,1,1.58-1.11,4,4,0,0,1,1.86-.33,4.79,4.79,0,0,1,1.77.52c.28.14.51.32.77.47l.68.57a.29.29,0,0,1,0,.42.3.3,0,0,1-.41.06l0,0-.66-.47c-.24-.11-.46-.26-.7-.36a3.91,3.91,0,0,0-1.49-.32,3.17,3.17,0,0,0-1.41.36,3.76,3.76,0,0,0-1.12.91l0,0a.57.57,0,0,1-.89-.71Z" transform="translate(-0.41 -66.21)"/><path class="cls-9" d="M232,168.66a6.68,6.68,0,0,1-2.07,2.36,5.26,5.26,0,0,1-3.07,1,5.34,5.34,0,0,1-3.06-1.06,9.93,9.93,0,0,1-1.19-1c-.32-.42-.64-.83-.92-1.27.43.31.81.65,1.2,1s.82.58,1.26.8a5.56,5.56,0,0,0,2.71.77,5.48,5.48,0,0,0,2.73-.73A11.78,11.78,0,0,0,232,168.66Z" transform="translate(-0.41 -66.21)"/><path class="cls-9" d="M228.25,173.65a2.24,2.24,0,0,1-1.44.49,2.41,2.41,0,0,1-1.45-.49,7.4,7.4,0,0,0,1.45.16A6,6,0,0,0,228.25,173.65Z" transform="translate(-0.41 -66.21)"/><path class="cls-9" d="M223.38,150.41a3.26,3.26,0,0,0-2.13-.79,6.53,6.53,0,0,0-2.27.32,5.56,5.56,0,0,0-2,1.14,5.87,5.87,0,0,0-1.37,1.75.66.66,0,0,0,.26.89.63.63,0,0,0,.76-.09l.06,0a8.23,8.23,0,0,1,1.35-1.07,5,5,0,0,1,1.5-.62,5.83,5.83,0,0,1,1.62-.16,6.1,6.1,0,0,0,1.74-.1l.17,0a.69.69,0,0,0,.51-.83A.73.73,0,0,0,223.38,150.41Z" transform="translate(-0.41 -66.21)"/><path class="cls-9" d="M230.24,150.41a3.24,3.24,0,0,1,2.13-.79,6.48,6.48,0,0,1,2.26.32,5.6,5.6,0,0,1,2,1.14,6,6,0,0,1,1.36,1.75.66.66,0,0,1-1,.8l-.05,0a8.29,8.29,0,0,0-1.36-1.07,4.91,4.91,0,0,0-1.5-.62,5.79,5.79,0,0,0-1.62-.16,6,6,0,0,1-1.73-.1l-.18,0a.68.68,0,0,1-.5-.83A.66.66,0,0,1,230.24,150.41Z" transform="translate(-0.41 -66.21)"/><path class="cls-9" d="M227.13,155.86c.24,1.06.42,2.12.61,3.16s.4,2.07.69,3.06q.1.38.24.72a2.85,2.85,0,0,1,.24.91,1.86,1.86,0,0,1-1,1.67,2.21,2.21,0,0,1-1.79.09,4.17,4.17,0,0,1-1.42-.85c1,.38,2.13.66,2.83.14a1.08,1.08,0,0,0,.49-1,2.07,2.07,0,0,0-.21-.63,7.41,7.41,0,0,1-.28-.79,15,15,0,0,1-.51-3.24A16,16,0,0,1,227.13,155.86Z" transform="translate(-0.41 -66.21)"/><path class="cls-9" d="M197.11,164.75a2.34,2.34,0,0,1,.73-1.87,2.18,2.18,0,0,1,2.12-.2,3.93,3.93,0,0,1,1.71,1.25,6.35,6.35,0,0,1,1.07,1.79.47.47,0,0,1-.77.51l0,0a4.2,4.2,0,0,0-1.57-1.12.73.73,0,0,0-.67.08,1.77,1.77,0,0,0-.47.73c-.24.61-.38,1.33.14,1.62a3.52,3.52,0,0,0,2.08.14,3.26,3.26,0,0,1-2.28.31,1.28,1.28,0,0,1-.81-1.08,3.38,3.38,0,0,1,.13-1.24,2.4,2.4,0,0,1,.67-1.15,1.59,1.59,0,0,1,1.44-.3,4.53,4.53,0,0,1,2.05,1.38l-.8.47a5.07,5.07,0,0,0-2.16-2.7,1.78,1.78,0,0,0-1.6-.1A2.39,2.39,0,0,0,197.11,164.75Z" transform="translate(-0.41 -66.21)"/><path class="cls-9" d="M237.46,145.8a15.5,15.5,0,0,0-3.57-7.13c-4-4.36-10.35-5.54-16.24-5.68-4-.1-8.06.2-11.63,1.93-5.65,2.72-9,8.49-13.18,13.18a45.45,45.45,0,0,1-23.72,14.13c-7.46,1.71-15.21,1.5-22.85,2.19s-15.51,2.44-21.37,7.38c-4.56,3.83-7.68,9.44-13,12.14-2.94,1.51-6.31,2-9.6,2.4l-5.39.7C89,188.09,84.48,197,88.66,203.8l.08.14c2.74,4.41,7.15,7.82,8.82,12.74,1.52,4.51.47,9.44.83,14.18.59,7.44,4.82,14.35,10.68,19s13.21,7.13,20.64,7.94a52.2,52.2,0,0,0,8.2.25A14.27,14.27,0,0,1,141,247.71c3.16-4,6.31-7.68,9.41-11.19,0-.06.1-.11.15-.17l-.56-.52c7.14-10.33,31.4-33.66,38.95-33a11.29,11.29,0,0,1,5.07-.05,12.83,12.83,0,0,1,1.64-.16,18.28,18.28,0,0,0,7-1.56c3-9.34.25-26.69-.29-29.86a9.27,9.27,0,0,1-2.86-.28,7.41,7.41,0,0,1-3.37-2.82,5.89,5.89,0,0,1-.76-4.91,4.56,4.56,0,0,1,4.52-3.21,21.65,21.65,0,0,0,3.4,4.4,2.11,2.11,0,0,0,1.48.79c.75,0,1.23-.79,1.58-1.45.46-.85,1.24-1.73,1.69-2.58a17.4,17.4,0,0,0,14.2-6.21,33.88,33.88,0,0,0,2.75-4.08l3.42-5.64c2.53,2.82,6.53,7.92,10.29,8.37A24.81,24.81,0,0,0,237.46,145.8Z" transform="translate(-0.41 -66.21)"/></g><path class="cls-20" d="M57.39,401l-4.67,1.69h0A14.82,14.82,0,0,0,46.51,401c-.85,0-1.12.41-1.21.74a.27.27,0,0,0,.24.34c.8.1,2.3.55,2.43,1.14s-6.14,1.29-6.2,2.21c0,.37,4.46,0,4.46,0s-4.74,1.27-4.36,1.79,4.7-.05,4.7-.05-4.59,1.84-4,2.2,4.34-.55,4.34-.55a5.56,5.56,0,0,0-2.3,1.75.2.2,0,0,0,.2.3c1.67-.24,4.59-2,6.56-3.22h0v.07a69.93,69.93,0,0,0,7.92.25C58.58,405.73,58,403.37,57.39,401Z" transform="translate(-0.41 -66.21)"/><path class="cls-8" d="M86.16,370.62,74.59,394.46l-21.44,7.19.85,7.2s25.39-1.56,29.48-5.65,11.85-23.83,12.13-25.81S86.16,370.62,86.16,370.62Z" transform="translate(-0.41 -66.21)"/><path class="cls-8" d="M93.28,367.19s-5.36,5.48-5.15,9.78.57,27.93.57,27.93L86.51,406,82,404.33s2.18-25,2.25-27.64.85-6.77,3.39-7.9A25.58,25.58,0,0,1,93.28,367.19Z" transform="translate(-0.41 -66.21)"/><path class="cls-26" d="M23.81,415c-9.52,1.2-16,2.09-16,2.09l-2.11,9.08,19.08.21C24.26,422.6,24,418.8,23.81,415Z" transform="translate(-0.41 -66.21)"/><path class="cls-8" d="M9.1,416.66a17.84,17.84,0,0,1-2.86-4c-.83-1.85-.37-10.16-4.53-9.61v19.21L3.42,424H1.53v3.84s4.25,1.47,6.83.09c0,0-2.49-2.77-1.38-5.82S9.1,416.66,9.1,416.66Z" transform="translate(-0.41 -66.21)"/><path class="cls-7" d="M18.88,414.35v12.88h91.4s-3.2-18.43-10.63-20.78S18.88,414.35,18.88,414.35Z" transform="translate(-0.41 -66.21)"/><path class="cls-27" d="M26.13,412.19,12.81,419.6,11.73,426l3.06,3.57,2.93-1,.14-.05c1-.4,6.47-2.67,14.23-5.9C30,419.2,28,415.73,26.13,412.19Z" transform="translate(-0.41 -66.21)"/><path class="cls-8" d="M13.2,418.39a17.94,17.94,0,0,1-4.36-2.22c-1.59-1.26-5-8.85-8.43-6.46l8.81,17.07,2.31.74-1.69.87,1.76,3.4s4.46-.63,6.12-3.05c0,0-3.49-1.32-3.9-4.54S13.2,418.39,13.2,418.39Z" transform="translate(-0.41 -66.21)"/><path class="cls-7" d="M18.74,415.19l5.36,11,33.71-13.4S96.59,434.37,107,430.28s11-24.11,6.77-26.51-27.31.8-27.31.8l-1.18,1s-23-9.73-28.49-9.45S18.74,415.19,18.74,415.19Z" transform="translate(-0.41 -66.21)"/><path class="cls-9" d="M24.52,425.77c2.71-1.3,5.45-2.5,8.2-3.67s5.53-2.31,8.31-3.42,5.57-2.18,8.38-3.22,5.62-2,8.47-3l-.07.28c-.57-.79-1.14-1.57-1.69-2.37.67.7,1.32,1.42,2,2.14l.16.17-.24.11c-2.72,1.26-5.48,2.41-8.23,3.58s-5.54,2.27-8.34,3.35-5.58,2.15-8.41,3.13S27.39,424.88,24.52,425.77Z" transform="translate(-0.41 -66.21)"/><path class="cls-9" d="M89,427.18c-5.37-2-10.58-4.33-15.76-6.74s-10.3-4.95-15.27-7.79c5.37,2,10.58,4.33,15.76,6.74S84,424.35,89,427.18Z" transform="translate(-0.41 -66.21)"/><path class="cls-9" d="M85.45,405.74a23.7,23.7,0,0,1,9.17,4.94,23.7,23.7,0,0,1-9.17-4.94Z" transform="translate(-0.41 -66.21)"/><path class="cls-9" d="M97,408.85a14.08,14.08,0,0,1-4.26-.14,13.76,13.76,0,0,1-4.06-1.27,13.42,13.42,0,0,1,4.25.13A13.76,13.76,0,0,1,97,408.85Z" transform="translate(-0.41 -66.21)"/><path class="cls-27" d="M113.57,369.3a6.34,6.34,0,0,0-4.11-1.64,8.79,8.79,0,0,1-3.45-.77c-1.52-4.73-.05-13.68.15-14.82a.6.6,0,0,1,0-.12l-12.27,6.9a3.21,3.21,0,0,1,.37,1.35h0A14.9,14.9,0,0,1,94,364c-.25,1.42-.58,2.68-.72,3.19-1,1.21-2.32,1.83-4.1,2.79a6.4,6.4,0,0,1-.09,1.43c-.53,2.86.4,6.86.27,9.82-.15,3.46-.27,6.89-.24,10.35,0,4.32.22,8.43.53,12.59h23.25c-.67-6.2.91-15.42,2.65-25.58C116.44,373.47,115.11,370.75,113.57,369.3Z" transform="translate(-0.41 -66.21)"/><path class="cls-28" d="M94,364c6.67.84,10-7.12,10.17-7.42A7.89,7.89,0,0,1,99.43,360a13.38,13.38,0,0,1-5.11.26h0A14.9,14.9,0,0,1,94,364Z" transform="translate(-0.41 -66.21)"/><path class="cls-6" d="M93.23,367.4s-2.61,5.39-.73,6.61,13.64-7.15,13.64-7.15,6.39.75,8.18,5.27-.75,32.44-.75,32.44-21.63,1.31-27.08,0c0,0,.09-13.83-.57-18.15s-.26-11.64,1.08-14.6C87.7,370.28,93.23,367.4,93.23,367.4Z" transform="translate(-0.41 -66.21)"/><path class="cls-8" d="M106.33,366.53s-10,4.66-9,9.73,5.36,55.43,5.36,55.43,13.12.43,18-2.11-6.2-36.95-5.64-40.2,3.53-17.77-.7-20.45A14.46,14.46,0,0,0,106.33,366.53Z" transform="translate(-0.41 -66.21)"/><path class="cls-9" d="M103.32,426.85a27.77,27.77,0,0,0,9,1.67,18.83,18.83,0,0,0,4.49-.42,29.29,29.29,0,0,0,4.41-1.34A13.18,13.18,0,0,1,117,429a14.24,14.24,0,0,1-2.34.56,19.33,19.33,0,0,1-2.4.15,16.4,16.4,0,0,1-4.72-.75A13.82,13.82,0,0,1,103.32,426.85Z" transform="translate(-0.41 -66.21)"/><rect class="cls-9" x="66.2" y="369.9" width="2" height="11.59" transform="translate(379.2 528.71) rotate(135.2)"/><path class="cls-27" d="M66.06,381.22s.45.85.79,1a19.78,19.78,0,0,0,2.16.57h0c.08.06,1.69,1.43,4.08,3.4.75-1,1.52-2,2.3-3,.53-.68,1-1.37,1.55-2.06L74.31,380l-1.52-1.19c-.69-.85-2.68-4.07-3.6-4-1.13.08-1.06.52-1.06.52s1.74,2.22,1.35,3.1-4.17-3.31-4.17-3.31l-1-.8s-.18,2.32.65,3.1a2.23,2.23,0,0,0,.43,2.23S65.42,380.85,66.06,381.22Z" transform="translate(-0.41 -66.21)"/><path class="cls-8" d="M105.34,370.2l-7.62,19L73.32,378.8s-4.23,5.36-3.81,5.5,22,21.16,31,19.61,15.1-28.07,15.1-28.07Z" transform="translate(-0.41 -66.21)"/><path class="cls-9" d="M100.21,404a7,7,0,0,0,4.52-2.72c1.78-2.45,8.18-15.42,8.18-15.42S109.43,408.33,100.21,404Z" transform="translate(-0.41 -66.21)"/><path class="cls-9" d="M101.53,391a8.86,8.86,0,0,1-2.15-.49,15.57,15.57,0,0,1-1.95-.89l-1.36-.74,1.46-.31a9.75,9.75,0,0,1,3-.21,9.22,9.22,0,0,1-2.68,1.3l.1-1.05a13.77,13.77,0,0,1,1.9,1A8.21,8.21,0,0,1,101.53,391Z" transform="translate(-0.41 -66.21)"/><path class="cls-9" d="M76.33,390.37a34.23,34.23,0,0,1,10,7.71,29.5,29.5,0,0,1-5.34-3.4A30.38,30.38,0,0,1,76.33,390.37Z" transform="translate(-0.41 -66.21)"/><path class="cls-9" d="M80.66,381.81a6.5,6.5,0,0,1,4.89,2.26,5.94,5.94,0,0,1-2.69-.6A5.81,5.81,0,0,1,80.66,381.81Z" transform="translate(-0.41 -66.21)"/><path class="cls-9" d="M101.81,374.85a6.79,6.79,0,0,1,.64-2.45,7.65,7.65,0,0,1,1.4-2.15,6,6,0,0,1,2.16-1.5,4.05,4.05,0,0,1,2.57-.1,8.9,8.9,0,0,0-2.17.91A10,10,0,0,0,104.7,371a20.32,20.32,0,0,0-1.47,1.81Z" transform="translate(-0.41 -66.21)"/><path class="cls-27" d="M109.58,348.26a2.2,2.2,0,0,0-2.47-1.55l-.31.13c.14-3.52-.37-7.37-2.82-9.5-5.26-4.58-12.81-3-14.42,1.14C87.73,343.19,87.64,349,87.7,354a6,6,0,0,0,.25,1.93c.83,2.37,4.21,3.83,6.49,4.3a9.6,9.6,0,0,0,8.17-2.07,10.56,10.56,0,0,0,3.51-6,4.37,4.37,0,0,0,1.43-.14,3.72,3.72,0,0,0,1.66-1.38A2.93,2.93,0,0,0,109.58,348.26Z" transform="translate(-0.41 -66.21)"/><path class="cls-9" d="M91.53,346.75c0,.77-.3,1.38-.68,1.38s-.67-.61-.67-1.38.3-1.38.67-1.38S91.53,346,91.53,346.75Z" transform="translate(-0.41 -66.21)"/><ellipse class="cls-9" cx="96.3" cy="280.54" rx="0.68" ry="1.38"/><path class="cls-9" d="M91.24,350.94a3.54,3.54,0,0,0,1,1.16,2.49,2.49,0,0,0,3,0,5.8,5.8,0,0,0,.58-.52c.16-.21.32-.41.46-.62-.21.15-.4.31-.59.47s-.4.29-.62.4a2.83,2.83,0,0,1-1.34.38,2.74,2.74,0,0,1-1.34-.37A5.81,5.81,0,0,1,91.24,350.94Z" transform="translate(-0.41 -66.21)"/><path class="cls-9" d="M93.07,353.39a1.13,1.13,0,0,0,.71.24,1.17,1.17,0,0,0,.71-.24,3.51,3.51,0,0,1-.71.08A3,3,0,0,1,93.07,353.39Z" transform="translate(-0.41 -66.21)"/><path class="cls-9" d="M95.47,342a1.57,1.57,0,0,1,1-.38,3.24,3.24,0,0,1,1.11.15,2.61,2.61,0,0,1,1,.57,2.81,2.81,0,0,1,.68.86.33.33,0,0,1-.13.44.35.35,0,0,1-.38,0l0,0a3.25,3.25,0,0,0-.67-.53,2.29,2.29,0,0,0-.74-.31,2.65,2.65,0,0,0-.8-.07,3.56,3.56,0,0,1-.85-.05l-.09,0a.33.33,0,0,1-.24-.41A.32.32,0,0,1,95.47,342Z" transform="translate(-0.41 -66.21)"/><path class="cls-9" d="M92.09,342a1.54,1.54,0,0,0-1-.38,3.26,3.26,0,0,0-1.12.15,2.69,2.69,0,0,0-1,.57,2.64,2.64,0,0,0-.67.86.33.33,0,0,0,.12.44.35.35,0,0,0,.38,0l0,0a3.49,3.49,0,0,1,.66-.53,2.38,2.38,0,0,1,.74-.31,2.68,2.68,0,0,1,.8-.07,3.53,3.53,0,0,0,.85-.05l.09,0a.35.35,0,0,0,.25-.41A.42.42,0,0,0,92.09,342Z" transform="translate(-0.41 -66.21)"/><path class="cls-9" d="M92.42,344.51c-.12.52-.21,1-.31,1.55a15,15,0,0,1-.34,1.51,3.58,3.58,0,0,1-.11.35,1.28,1.28,0,0,0-.12.45.88.88,0,0,0,.49.82,1.09,1.09,0,0,0,.88.05,2.25,2.25,0,0,0,.7-.42,1.62,1.62,0,0,1-1.4.07.56.56,0,0,1-.24-.5.86.86,0,0,1,.11-.3c0-.13.09-.26.13-.39a7.32,7.32,0,0,0,.26-1.6A8.46,8.46,0,0,0,92.42,344.51Z" transform="translate(-0.41 -66.21)"/><path class="cls-9" d="M108.79,348.88a1.16,1.16,0,0,0-.36-.92,1.08,1.08,0,0,0-1-.1,2,2,0,0,0-.85.62,3.1,3.1,0,0,0-.52.88.23.23,0,0,0,.13.3.23.23,0,0,0,.25-.05v0a2.08,2.08,0,0,1,.78-.54.35.35,0,0,1,.32,0,.91.91,0,0,1,.24.36c.11.3.19.66-.07.8a1.77,1.77,0,0,1-1,.07,1.61,1.61,0,0,0,1.13.15.62.62,0,0,0,.39-.53,1.53,1.53,0,0,0-.06-.61,1.2,1.2,0,0,0-.33-.57.77.77,0,0,0-.71-.14,2.16,2.16,0,0,0-1,.68l.39.23a2.48,2.48,0,0,1,1.06-1.33.89.89,0,0,1,.79-.05A1.15,1.15,0,0,1,108.79,348.88Z" transform="translate(-0.41 -66.21)"/><path class="cls-9" d="M110.12,343.22c-.41-1.29-1-2.77-2.36-3a4.28,4.28,0,0,0,0-3.57,6.14,6.14,0,0,0-2.18-2.32,10.27,10.27,0,0,0-4.14-1.59,20.58,20.58,0,0,0-6.8.56c-1.16.22-2.61.41-3.78.64a3,3,0,0,0-3.93.71,6.24,6.24,0,0,0-1.14,4.2,25.55,25.55,0,0,0,2.07,8.46c.08-1.13.21-2.26.37-3.37a8.74,8.74,0,0,1,2-3.26,10.85,10.85,0,0,0,11.12,2.53,9,9,0,0,0,.73,2.65,3.47,3.47,0,0,0,2.3,2.28,1.08,1.08,0,0,0,1.24-.52c.15-.42,1.2-.83,1.2-.78a3.09,3.09,0,0,1,.32-.13,2.18,2.18,0,0,1,2.46,1.55,2.83,2.83,0,0,1-.38,2.41,3.61,3.61,0,0,1-1.65,1.39,4.64,4.64,0,0,1-1.44.15,11,11,0,0,1-1.35,3.44,4.65,4.65,0,0,0,2.66-.38,6.19,6.19,0,0,0,2.38-3A11.7,11.7,0,0,0,111,349,13,13,0,0,0,110.12,343.22Z" transform="translate(-0.41 -66.21)"/><path class="cls-29" d="M500,248.52a7.05,7.05,0,0,0-4.29-3.86c-2.61-.84-5.48-.64-7.91-2-2.72-1.54-4.91-5-7.93-4.65-2.42.27-4.17,3-6.56,3.51-4.94,1.12-8.23-7.15-13.27-7.15-3,0-5.5,3-8.5,3.12-3.9.14-6.46-4.35-8.84-7.88-3.52-5.24-9.63-9.6-14.84-6.78-3.47,1.87-5.24,6.22-7.13,10.05s-4.75,7.79-8.59,7.8c-4,0-8.09-4.44-11.6-2.17-1.65,1.07-2.44,3.38-2.43,5.56a15.82,15.82,0,0,0,.77,4.46Z" transform="translate(-0.41 -66.21)"/></svg>