<svg id="Layer_1" data-name="Layer 1" xmlns="http://www.w3.org/2000/svg" viewBox="0 0 500.26 440.4"><defs><style>.cls-1{fill:#170e38;}.cls-2{fill:#2bc2dd;}.cls-3{fill:#d1d2df;}.cls-4{fill:#9698b5;}.cls-5{fill:#ef4761;}.cls-6{fill:#fff;}.cls-7{fill:#e5e6ec;}.cls-8{fill:#9b94ab;}.cls-9{fill:#f58668;}.cls-10{fill:#e35a40;}.cls-11{fill:#e02042;}.cls-12{fill:#f99e3b;}.cls-13{fill:#fcb65e;}</style></defs><title>email</title><polygon class="cls-1" points="295.94 416.44 204.32 416.44 211.85 305.98 288.41 305.98 295.94 416.44"/><path class="cls-1" d="M307.69,428.31a6,6,0,0,0-5-2.66H197a6,6,0,0,0-5,2.66L178.2,449a6,6,0,0,0,5,9.32H316.56a6,6,0,0,0,5-9.32Z" transform="translate(0.26 -29.55)"/><rect class="cls-1" width="500.26" height="335.35" rx="25.79"/><rect class="cls-2" x="23.03" y="22.22" width="454.2" height="287.44"/><rect class="cls-3" x="287.98" y="216.67" width="24.92" height="92.72"/><rect class="cls-4" x="287.98" y="216.67" width="24.92" height="29.05"/><path class="cls-5" d="M380,102.41H232.79V252h205.7v-91A58.52,58.52,0,0,0,380,102.41Z" transform="translate(0.26 -29.55)"/><path class="cls-5" d="M291.91,252H173.67v-91a58.53,58.53,0,0,1,58.53-58.53h1.18a58.52,58.52,0,0,1,58.53,58.53Z" transform="translate(0.26 -29.55)"/><path class="cls-1" d="M281.81,239.19h-98V163.71a48.52,48.52,0,0,1,48.52-48.52h1a48.53,48.53,0,0,1,48.53,48.52Z" transform="translate(0.26 -29.55)"/><rect class="cls-5" x="135.02" y="210.91" width="112.13" height="11.51"/><path class="cls-6" d="M376,196.61c3.51,0,7-5.64,7-13.77,0-16.26-10.44-28.93-28.15-28.93a29.15,29.15,0,0,0-29.1,29.18c0,15.92,12.15,27.73,28.08,27.73A28.29,28.29,0,0,0,370,205.6l3.93,6.84c-5,3.86-13.43,6.34-20,6.34-20.8,0-36.55-15.23-36.55-35.69,0-20.79,16.6-37,37.57-37s36.54,15.4,36.54,36.45c0,12.75-6.94,21-16.43,21-5.14,0-8.9-2-10-6.59l-.17-1a15.23,15.23,0,0,1-12.75,6.76c-9.59,0-18.66-7.87-18.66-19.77,0-10.95,6.85-20.11,17.46-20.11,6.76,0,11.12,4.54,11.46,5.31v-4.36h10.53v28.66C372.88,195.5,374.16,196.61,376,196.61ZM345,182.49c0,5.65,3.17,10.62,8.22,10.62,5.31,0,8.47-4.79,8.47-10.53,0-5.56-3.26-10-8.64-10C348.23,172.57,345,177.1,345,182.49Z" transform="translate(0.26 -29.55)"/><path class="cls-7" d="M256.74,271.52c.85-23.26,16.73-43,25.07-51.82v-4.95H204.87c-15.69,0-25,8-33.5,21.21-6.22,9.7-11.8,22-12.29,35.56-1.14,31.58,5.71,47-14.85,67.86s-29.71,32.87-23.62,67h97.67c-6.09-34.14,3.05-46.09,23.61-67S255.6,303.1,256.74,271.52Z" transform="translate(0.26 -29.55)"/><path class="cls-8" d="M268.07,222h-72c-.86,1-1.77,2-2.71,3.15h72C266.3,224,267.2,223,268.07,222Z" transform="translate(0.26 -29.55)"/><path class="cls-8" d="M256.74,237.05h-72c-.64,1-1.27,2.08-1.88,3.16h71.95C255.47,239.13,256.1,238.08,256.74,237.05Z" transform="translate(0.26 -29.55)"/><path class="cls-8" d="M249.21,252.1h-72c-.39,1-.75,2.09-1.1,3.15h72C248.45,254.19,248.82,253.14,249.21,252.1Z" transform="translate(0.26 -29.55)"/><path class="cls-8" d="M245.48,267.15h-72q-.18,1.56-.27,3.15h72Q245.3,268.71,245.48,267.15Z" transform="translate(0.26 -29.55)"/><path class="cls-8" d="M245,282.19H173.05c0,1.07,0,2.12,0,3.15h72C245,284.31,245,283.26,245,282.19Z" transform="translate(0.26 -29.55)"/><path class="cls-8" d="M245.32,297.24h-72c0,1.07,0,2.11,0,3.15h72C245.35,299.35,245.34,298.31,245.32,297.24Z" transform="translate(0.26 -29.55)"/><path class="cls-8" d="M244.64,312.28h-72c-.15,1.06-.34,2.11-.56,3.15h72C244.3,314.39,244.48,313.34,244.64,312.28Z" transform="translate(0.26 -29.55)"/><path class="cls-8" d="M239.59,327.33h-72q-.88,1.56-1.95,3.15h72C238.36,329.42,239,328.37,239.59,327.33Z" transform="translate(0.26 -29.55)"/><path class="cls-8" d="M227.37,342.37h-72q-1.54,1.61-3,3.15h72C225.34,344.49,226.33,343.44,227.37,342.37Z" transform="translate(0.26 -29.55)"/><path class="cls-8" d="M214.39,357.42h-72c-.74,1-1.43,2.09-2.09,3.15h72C213,359.51,213.65,358.46,214.39,357.42Z" transform="translate(0.26 -29.55)"/><path class="cls-8" d="M206.9,372.46h-72c-.31,1-.6,2.07-.84,3.15h72C206.3,374.53,206.59,373.49,206.9,372.46Z" transform="translate(0.26 -29.55)"/><path class="cls-8" d="M204.84,387.51h-72c0,1,0,2.07,0,3.15h71.95C204.85,389.58,204.84,388.53,204.84,387.51Z" transform="translate(0.26 -29.55)"/><path class="cls-9" d="M168,248.63c-.67-1-4.69,2.28-5.27,3.16-.82,1.26-2.1,2.16-2.95,3.93-.67,1.39-1.3,2.71-2,4.09a17,17,0,0,0-.56,2.49,16.1,16.1,0,0,1-2.17,3.29c-.24.29.19.43-.38.86,1.58,1.35,1.69,2.57,2.61,4.43a12.3,12.3,0,0,1,2-1.67c.64-.38,4.69-1.93,5.37-2.25a18.28,18.28,0,0,0,3.91-2.24c.43-.35,2.19-.93,2-1.59-.44-1.44-2.67-.6-3.22-.52-1,.16-2.54,1.13-4.37.94a2.15,2.15,0,0,1-1.29-2.8,7.28,7.28,0,0,1,2.51-3.55c.7-.6,3.31-3,4-3.67,2.14-1.87,1.17-3.19-.77-2-.39.24-3.47,2.74-3.78,2.9.29-.38.62-.67.81-.9C165.62,252.15,168.76,249.85,168,248.63Z" transform="translate(0.26 -29.55)"/><path class="cls-9" d="M82.49,213.34c.16.28.3.56.48.84a45.29,45.29,0,0,0,5.3,7.24c1.26,1.3,3.4,2.45,4.43,3.76A15.73,15.73,0,0,0,94,226.66c-1.66,4-5.93,14.38-6.59,18.67,0,0-13-3.9-16.58-10.31C70.86,235,79.64,221.58,82.49,213.34Z" transform="translate(0.26 -29.55)"/><path class="cls-10" d="M84.6,237a19.54,19.54,0,0,0-3.77-11.29,30,30,0,0,0-2.63-3.06,67.55,67.55,0,0,0,4.29-9.28c.16.28.3.56.48.84a45.29,45.29,0,0,0,5.3,7.24c1.26,1.3,3.4,2.45,4.43,3.76A15.73,15.73,0,0,0,94,226.66c-1.66,4-5.93,14.38-6.59,18.67a50.86,50.86,0,0,1-5.08-1.91A10.15,10.15,0,0,0,84.6,237Z" transform="translate(0.26 -29.55)"/><path class="cls-1" d="M34.39,452.36s-2,13.14.09,15,29.36,3.83,31.74,1.44,1.15-6.56-4.55-8.33c-6.11-1.9-9.18-.31-13-2s-2.6-7.78-2.6-7.78Z" transform="translate(0.26 -29.55)"/><path class="cls-1" d="M80.4,452.36s-2,13.14.09,15,29.36,3.83,31.74,1.44,1.15-6.56-4.55-8.33c-6.11-1.9-9.18-.31-13-2s-2.61-7.78-2.61-7.78Z" transform="translate(0.26 -29.55)"/><path class="cls-5" d="M30.06,378.43a401.32,401.32,0,0,1-6.62-74.81c4.42-.56,8.89-.89,13.62.39,8.67,2.34,17.37,4.53,26.05,6.74-4.34,14.7-11.45,61.53-11.66,71.12-.25,11.93-3.17,74.74-3.17,74.74L32.5,457C31.17,447.42,30.63,381.61,30.06,378.43Z" transform="translate(0.26 -29.55)"/><path class="cls-11" d="M49.23,307.4a137,137,0,0,0,13.94,3.17c-4.27,14.42-11.28,60.88-11.7,71-3.07-5.86-14.79-26.61-21.3-42.38a88.83,88.83,0,0,1-6.72-33.24v-.14C31.75,305,39.85,304.59,49.23,307.4Z" transform="translate(0.26 -29.55)"/><path class="cls-5" d="M38.6,303.5c5.86,1.71,16.49,4.07,24.54,6.58,6.1,13.74,23.07,50.28,26.31,64.86,4.49,20.19,4.5,80.55,4.5,80.55l-15.28.14S68.2,387.26,66.35,382.5C58.91,363.35,45.3,350.06,40,341c-12.81-21.89-13.83-32.72-15.68-40.5C28.88,301.6,33.7,302.07,38.6,303.5Z" transform="translate(0.26 -29.55)"/><path class="cls-3" d="M76,251.82c3.28-6.53.71-11.17,7.66-8.92,11.41,3.7,22.35,28.34,29,29.93,9.22,2.23,43.14-9.52,43.14-9.52l3.51,8.65s-44.75,19.57-52.08,17.71-26.58-22.8-31.27-29.88C74.29,257.31,74.66,254.48,76,251.82Z" transform="translate(0.26 -29.55)"/><path class="cls-12" d="M76,251.82c3.28-6.53.71-11.17,7.66-8.92,11.41,3.7,22.35,28.34,29,29.93,9.22,2.23,43.14-9.52,43.14-9.52l3.51,8.65s-44.75,19.57-52.08,17.71-26.58-22.8-31.27-29.88C74.29,257.31,74.66,254.48,76,251.82Z" transform="translate(0.26 -29.55)"/><path class="cls-13" d="M69.32,320.11A119,119,0,0,1,42,315c-9.93-3.26-18.45-8.83-19.85-13.09,0,0,15.69-40.86,26.51-54.8s23.52-14.22,23.52-14.22,8.23,7.63,16,9.25c0,0-7,30.34-10.35,42.33S69.32,320.11,69.32,320.11Z" transform="translate(0.26 -29.55)"/><path class="cls-13" d="M66.09,274.08c-.1-5.45-1.23-14,1.07-20.34.66.53,1.33,1,1.94,1.62,3.63,3.41,7.22,7.06,11.85,9.09a9.53,9.53,0,0,0,1.84.55c-1.78,7.36-3.64,14.8-4.93,19.47-3.32,12-8.54,35.64-8.54,35.64s-3.89-.2-9.52-1C65.91,306,66.37,289.16,66.09,274.08Z" transform="translate(0.26 -29.55)"/><path class="cls-9" d="M83.52,194.86s10.94-7.66,17.39-3.47,10.12,7.71,9.56,10.79-3.07,11-2.84,14.64,2,9.13,1.23,10.27-4.82-.59-5.3-.23-7.43,7.86-9.34,8-11.93-12.15-11.76-17.09S79.12,201.32,83.52,194.86Z" transform="translate(0.26 -29.55)"/><path class="cls-1" d="M96.74,203.38c.9,2.31,4.27,6.32,13.18,7.07s15-17.17-.56-24.33-17.82-1.5-21.21-1.84-6.42,0-9.33,2.35c-5,4-8.65,10.13-5.12,20.21s8.84,11.75,8.84,11.75c1.32-1.7,2.9-4.91,1.8-6.76a11.86,11.86,0,0,1-1.76-2.66c-1-2.57,2.25-5.76,5.48-3.3,1.53,1.16.7,4.51,1.1,6.12s1.21,1.82,1.89,1.91c1.33.18,3.94-2.72,3.5-7.51C94.27,203.29,95.84,201.07,96.74,203.38Z" transform="translate(0.26 -29.55)"/><path class="cls-9" d="M139.1,321.21a9.31,9.31,0,0,1,1.65.49,6.92,6.92,0,0,0,3.67.93c1.9,0,4.85-.11,6.44.85.92.56,6.32,4.24,3.92,6.11-.32.25-1.25.48-1.43.32l-2-1.74a14.51,14.51,0,0,1,1.32,1.28,3.73,3.73,0,0,1,.59.91c.13.63-.79,1.52-1.37,1.5s-.78-.68-1.12-1.09l0,0c.28.48,1.09,1.05.05,2.09s-1.24.11-1.78-.27a3.14,3.14,0,0,1-.54-.5c.17.22.85.93,1,1.15.37.71-1.5,1.88-2.54,1.32-.65-.35-1.87-1.94-2.29-2a8.87,8.87,0,0,1-1.43-.38,8.65,8.65,0,0,1-3.7-2.35c-.46-.46-1.39-1.33-1.83-1.83a12.57,12.57,0,0,1-1.68-2.28A8.55,8.55,0,0,0,139.1,321.21Z" transform="translate(0.26 -29.55)"/><path class="cls-13" d="M136.48,329.55l7.08-9.48s-25.64-24.31-35.23-36.3-18.86-35.3-26.91-37.56-16.78,1.38-13.25,13.29,26,29.6,30.32,35.15S132,326.34,136.48,329.55Z" transform="translate(0.26 -29.55)"/></svg>