<svg id="Layer_1" data-name="Layer 1" xmlns="http://www.w3.org/2000/svg" viewBox="0 0 476.85 494.48"><defs><style>.cls-1{fill:#ef4761;}.cls-2{fill:#fff;}.cls-3{fill:#f58668;}.cls-4{fill:#fcb65e;}.cls-5{fill:#170e38;}.cls-6{fill:#e35a40;}.cls-7{fill:#d1d2df;}.cls-8{fill:#acaec5;}.cls-9{fill:#0dbad0;}.cls-10{fill:#00a7cc;}</style></defs><title>expertise</title><circle class="cls-1" cx="207.87" cy="252.09" r="207.87"/><circle class="cls-2" cx="219.44" cy="254.77" r="157.56" transform="translate(-71.81 438.76) rotate(-82.98)"/><circle class="cls-1" cx="219.44" cy="254.77" r="112.54" transform="translate(-64.24 54.55) rotate(-13.28)"/><path class="cls-2" d="M296.9,254.77a77.46,77.46,0,1,1-77.46-77.45A77.46,77.46,0,0,1,296.9,254.77Z" transform="translate(-11.57 -2.69)"/><path class="cls-1" d="M255.19,254.77A35.75,35.75,0,1,1,219.44,219,35.74,35.74,0,0,1,255.19,254.77Z" transform="translate(-11.57 -2.69)"/><path class="cls-3" d="M312,161.94s-3,7.32-2.89,7.09-4.61-2.25-4.89-2.19a38.51,38.51,0,0,1-5.82-.41,9.62,9.62,0,0,1-3.36-1.74c-.58-.35-1.55-1.47-.68-1.73s1.62.83,2.12,1a10.26,10.26,0,0,0,2.24.22s-.65-.3-1.92-.81a23.28,23.28,0,0,1-4.29-2c-.44-.44-.34-1.39.86-1.16a16.12,16.12,0,0,1,3,1c.24.07,2.51.89,2.51.89s-2-.75-2.65-1.06-2.94-1.2-4.3-1.81-1-2.07.19-2c.89.06,3.9,1.69,4.37,1.85s2.56,1.11,2.56,1.11-2.49-1.14-2.91-1.41-3.19-1.33-3.51-2.15a.8.8,0,0,1,1-1.05,14,14,0,0,1,3.47,1.19c.6.3,4.55,2.19,5.42,2.22s1.65,0,1.67-1l1.35-2.49s.91.44,1.38,2.7C307.16,159.47,309.22,161,312,161.94Z" transform="translate(-11.57 -2.69)"/><path class="cls-4" d="M394.53,191.15a12.51,12.51,0,0,0-10.84-12.06c-9.9-1.49-28.29-4.33-33.84-5.61-7.72-1.78-39.24-12.3-39.24-12.3l-3.45,8.32s34.3,17.23,40.46,18.58,37.84,12.58,44,9C393.75,195.88,394.53,193.63,394.53,191.15Z" transform="translate(-11.57 -2.69)"/><polygon class="cls-5" points="408 270.96 406.02 265 316.95 265 318.85 270.96 408 270.96"/><polygon class="cls-5" points="418.59 302.71 416.58 296.69 327.05 296.69 328.96 302.71 418.59 302.71"/><polygon class="cls-5" points="394.61 239.21 392.62 233.25 303.56 233.25 305.46 239.21 394.61 239.21"/><polygon class="cls-5" points="429.29 334.8 427.26 328.71 337.24 328.71 339.18 334.8 429.29 334.8"/><polygon class="cls-5" points="440.11 367.24 438.05 361.08 347.55 361.08 349.51 367.24 440.11 367.24"/><polygon class="cls-5" points="451.04 400.03 448.96 393.81 357.97 393.81 359.95 400.03 451.04 400.03"/><polygon class="cls-5" points="462.09 433.17 459.99 426.88 368.5 426.88 370.51 433.17 462.09 433.17"/><path class="cls-5" d="M483.88,483.57h.42a4.12,4.12,0,0,0,3.91-5.43L404.57,227.6a4.13,4.13,0,0,0-3.91-2.82H394.9l85.07,256A4.13,4.13,0,0,0,483.88,483.57Z" transform="translate(-11.57 -2.69)"/><path class="cls-5" d="M393.29,483.57h.46a4.12,4.12,0,0,0,3.92-5.38l-80-250.54a4.11,4.11,0,0,0-3.92-2.87h-.09a4.12,4.12,0,0,0-3.93,5.37l79.6,250.54A4.13,4.13,0,0,0,393.29,483.57Z" transform="translate(-11.57 -2.69)"/><path class="cls-3" d="M393.09,151.91c-.19.19-.35.4-.54.59a37.2,37.2,0,0,1-5.65,4.92c-1.26.84-3.22,1.38-4.3,2.26a13.81,13.81,0,0,1-1.35,1c.62,3.52,2.19,12.8,1.94,16.41,0,0,11.28-.79,15.39-5.35C398.58,171.7,393.9,159.14,393.09,151.91Z" transform="translate(-11.57 -2.69)"/><path class="cls-6" d="M387,170.76a16.33,16.33,0,0,1,5.14-8.5,24.44,24.44,0,0,1,2.7-2,56.88,56.88,0,0,1-1.79-8.35c-.19.19-.35.4-.54.59a37.2,37.2,0,0,1-5.65,4.92c-1.26.84-3.22,1.38-4.3,2.26a13.81,13.81,0,0,1-1.35,1c.62,3.52,2.19,12.8,1.94,16.41a44.15,44.15,0,0,0,4.49-.62A8.41,8.41,0,0,1,387,170.76Z" transform="translate(-11.57 -2.69)"/><path class="cls-5" d="M386.84,353.15s-.31,11.24-2.07,12.78-24.12,2.21-26,.15-.79-5.5,4-6.83c5.15-1.43,7.67,0,10.89-1.38s2.38-6.42,2.38-6.42Z" transform="translate(-11.57 -2.69)"/><path class="cls-5" d="M442.31,352.77s1.73,11,0,12.55-24.48,3.39-26.48,1.42-1-5.47,3.74-7c5.08-1.63,7.55-.59,10.83-1.79,2.58-.94.84-6.16.84-6.16Z" transform="translate(-11.57 -2.69)"/><path class="cls-7" d="M425.78,289.73a335.05,335.05,0,0,0-4.67-62.52,28.63,28.63,0,0,0-11.17,2.16c-6.83,3.11-13.69,6.09-20.55,9.08,5.57,11.52,17.76,49.14,19.23,57,1.83,9.79,22.29,59.74,22.29,59.74l12.39-1.56C443.1,345.59,425.74,292.43,425.78,289.73Z" transform="translate(-11.57 -2.69)"/><path class="cls-8" d="M400.37,233.82a114.62,114.62,0,0,1-11.05,4.49c5.47,11.3,15.44,42.58,17.69,50.89,1.74-5.24,10.14-17.92,13.36-31.8a73.82,73.82,0,0,0,1-28.29l0-.11C414.45,229.48,407.72,230.23,400.37,233.82Z" transform="translate(-11.57 -2.69)"/><path class="cls-7" d="M409.63,232.12c-4.83,1.62-13.61,4-20.24,6.33-4.62,11.67-18.26,39.22-19,51.67-.78,13.75,4,65.81,4,65.81h14.18s1.31-58.69,3.3-62.46c6.54-12.43,13.77-22.29,17.88-30,6.9-13,9.24-21.32,10.45-27.4.54-2.68,2.88-11.67-1.67-14.48C414.76,222.64,413.67,230.75,409.63,232.12Z" transform="translate(-11.57 -2.69)"/><path class="cls-4" d="M384.23,241.28s11.9,4.81,23.62,3.68c8.68-.84,13.17-1,18.25-3.71,0,0-5.43-42.31-11.69-55.64s-16.54-15.9-16.54-15.9-8.1,4.71-14.72,4.61c0,0,.16,26,.66,36.37S384.23,241.28,384.23,241.28Z" transform="translate(-11.57 -2.69)"/><path class="cls-4" d="M383.66,206.89c0-1.14-.07-2.35-.1-3.63,0-.15,0-.31,0-.47,0-1.22-.06-2.49-.09-3.78,0-.21,0-.43,0-.65,0-1.44-.06-2.9-.08-4.37v-.06a8.5,8.5,0,0,0,1.6-.11c4.14-.81,7.74-3.12,11.32-5.24.6-.35,1.24-.65,1.87-1,.72,5.56-1.78,12.35-2.86,16.76-3,12.22-4.6,27.69-2,39.5a63.56,63.56,0,0,1-9-2.6s.09-20.21-.42-30.59c0-.92-.08-2-.12-3.13Z" transform="translate(-11.57 -2.69)"/><path class="cls-3" d="M398.94,141.38s-4.82-10.06-11.23-9.65-10.52,1.45-11.37,3.93-2.29,9.29-3.93,11.81-5.18,5.82-5.11,7,3.75,1.54,3.95,2,2.18,8.76,3.52,9.63,13.65-3.95,15.56-7.61S399.49,147.88,398.94,141.38Z" transform="translate(-11.57 -2.69)"/><path class="cls-5" d="M385.86,142.33a15.9,15.9,0,0,0-1.92.54c-.94.17-1.9.25-2.85.41a11.58,11.58,0,0,1-5.7,0c-2.78-.92-1.89-3.66-3.16-5.59-.63-.94-1.94-.94-2.62-2a6.66,6.66,0,0,1-.83-3.59c0-2.92,2.9-3.2,5.14-3.75,2.62-.66,2.78-2.11,4-4.1,3.11-4.91,7.5,1.9,11,1.49,1.77-.22,3.62-1.37,5.33-.39,1.48.84,2.36,2.32,3.36,3.64s2,.81,3.55,1.38a9,9,0,0,1,3.12,2.37,9.57,9.57,0,0,1,2.37,7.73c-.46,2.25-2.28,3.47-2.37,5.85-.08,1.89,0,4.22-.89,5.95-1.34,2.5-4.31,2.83-6.3,4.54s-4.59,2.79-7.15,2.2c-.27-1.77-.1-4.76,1.46-5.64a10.48,10.48,0,0,0,2.37-1.22c1.78-1.45.72-5.11-2.64-4.65-2,.29-2.93,5.81-5.14,4.91-1.67-.68.35-3.47.81-4.42.61-1.26.93-4.44-.26-5.49A.86.86,0,0,0,385.86,142.33Z" transform="translate(-11.57 -2.69)"/><path class="cls-3" d="M332.16,241.5a10.26,10.26,0,0,0-1.66-.13,6.76,6.76,0,0,1-3.64-.44c-1.72-.65-4.35-1.8-6.12-1.48-1,.18-7.19,1.61-5.68,4.15.2.33,1,.87,1.18.78l2.4-.88a14,14,0,0,0-1.64.7c-.24.17-.69.37-.85.62a1.55,1.55,0,0,0,.71,1.83c.53.19.94-.35,1.39-.59l0,0c-.43.34-1.36.57-.78,1.88s1.08.53,1.7.38a5,5,0,0,0,.66-.26,13.91,13.91,0,0,0-1.27.7c-.58.51.7,2.22,1.84,2.08.7-.09,2.37-1.1,2.76-1a9.27,9.27,0,0,0,5.59-.67c.58-.26,1.72-.72,2.3-1a24.67,24.67,0,0,0,3.42-2.34C333.49,244,332,243.57,332.16,241.5Z" transform="translate(-11.57 -2.69)"/><path class="cls-4" d="M334.31,249.25l-5-9.86S354,223.59,363,214.48s18.78-27.62,25.66-28.79,13.81,2.63,9.82,12.21-24.17,22.27-28.28,26.49S338.34,247,334.31,249.25Z" transform="translate(-11.57 -2.69)"/><path class="cls-1" d="M402.82,15.93c-4.4-1.88-18.46-9.21-29.76,17.47-10.76,25.41-22.14,59.84-22.14,59.84s28-23.06,47.79-42.27C419.5,30.8,406.93,18.57,402.82,15.93Z" transform="translate(-11.57 -2.69)"/><path class="cls-5" d="M378.8,36.3,351.9,64A194.65,194.65,0,0,0,330,91.07L220.08,254.77,344.58,120a194.36,194.36,0,0,0,34.13-51.4l10.51-23.12A32.35,32.35,0,0,1,378.8,36.3Z" transform="translate(-11.57 -2.69)"/><path class="cls-1" d="M346.4,95.34s-18.1-50.47-1.17-83.16,39,29.55,39,29.55Z" transform="translate(-11.57 -2.69)"/><path class="cls-1" d="M346.26,95s53.62-.09,78.63-27.1-41-26.71-41-26.71Z" transform="translate(-11.57 -2.69)"/><path class="cls-3" d="M306.21,162.07c-.41-.17-.84.93-1.24.8,0,0,.07-1.21.07-1.23-.16-1.09-4.29-1.36-5.21-1.84-2.77-1.45-1.65-3.19-.39-2.8.86.27,2.8.85,3.55,1.18a13.94,13.94,0,0,0,2.86.33c.77.14,2.9,2,3.56,2.47C310.83,161.91,307.72,162.68,306.21,162.07Z" transform="translate(-11.57 -2.69)"/><path class="cls-9" d="M112.4,321.13S90.28,326.66,73.69,339,39.9,389.33,36.52,416.06s-10.14,47.62,0,61.29,43,16.43,71.27,19.2,67.27-4,75.11-13.83,7.23-84.24-7.52-112.32S133.91,320.51,112.4,321.13Z" transform="translate(-11.57 -2.69)"/><path class="cls-10" d="M150.07,481.23c-5.68-1.89-11.52-4-16.21-7.81-10.06-8.3-16.2-10.76-28.72-10.63-11.46.11-22.53.08-32.37-6.42-8.76-5.8-13.66-18.74-11.55-28.9,1.54-7.4,3.76-13.29,8.33-19.36,6.44-8.55,7.68-14.7,5.38-25.4-2.74-12.78-3.15-23.7.61-36.37,1.93-6.55,6.5-11.3,11.64-15.58A92.84,92.84,0,0,0,73.69,339C57.1,351.23,39.9,389.33,36.52,416.06s-10.14,47.62,0,61.29,43,16.43,71.27,19.2,67.27-4,75.11-13.83c1.52-1.9,2.72-6.26,3.56-12.22C176.65,480.2,163.93,485.83,150.07,481.23Z" transform="translate(-11.57 -2.69)"/><path class="cls-9" d="M109.33,326.66s-23.73-5.76-27-23.74,6.22-24.19,13.48-20,8.41,1.91,13.48-1.23,12.44,1.92,16.13,7.22,4.38-.92,13.13-1.61,11.75,7.37,7.15,18S136.75,327.12,109.33,326.66Z" transform="translate(-11.57 -2.69)"/><path class="cls-10" d="M135.05,316.55c-6.15,1.59-2.5-6.36-3.51-9.12-1.6.08-2.2,2.75-2.74,3.91a7.18,7.18,0,0,1-6.53,4.14c-3.83,0-4.37-4.23-6-6.8-.69-1.08-1-1-1.44.26s0,3.1-1.35,4.21c-2.45,2.06-6.53-.28-8.44-1.93-2.08-1.81-2.94-4.78-5.16-6.53a2.93,2.93,0,0,0-.69,1.54c-.55,2.59-.39,7.51-4.61,6.61-3.57-.77-6-6.6-7.11-9.58a32.35,32.35,0,0,1-2.56-11.19,33.76,33.76,0,0,1,.32-4.73,13.5,13.5,0,0,1,.87-3.62h0c-3.42,3-5.48,9.33-3.71,19.21,2.75,15.29,20.32,21.74,25.52,23.33a9.45,9.45,0,0,0,2.8.42c21.6.06,28.32-7.47,32.55-15.95l0,0S137.25,316,135.05,316.55Z" transform="translate(-11.57 -2.69)"/><path class="cls-2" d="M119.32,380.05c11.64,1.15,22.15,6.37,22,18l-19.43-.34c0-4.41-4.52-5.43-7.36-5.48-1.78,0-7.56-.14-7.62,3.43-.14,8,35.8.32,35.4,22.89-.23,13.54-10.93,18.39-24,19.1l.59,14.41L107,451.87l1-14.48c-12-1.48-23.18-7.34-23-19.52l19.42.34v.42c0,5.36,6,6.52,9,6.57s8.72-.05,8.78-3.94c.15-8.29-35.78-1.37-35.39-23.2C87.09,385.46,96.94,380.8,109,380l-.47-14.5,11.86.21Z" transform="translate(-11.57 -2.69)"/><path class="cls-5" d="M92.05,318.11,89.9,329.43s6.07,5.83,22.58,5.83,25.42-5.84,25.42-5.84l-1.07-10.21S114.24,324.93,92.05,318.11Z" transform="translate(-11.57 -2.69)"/></svg>