<svg id="Layer_1" data-name="Layer 1" xmlns="http://www.w3.org/2000/svg" xmlns:xlink="http://www.w3.org/1999/xlink" viewBox="0 0 746.61 546.35"><defs><style>.cls-1{fill:none;}.cls-2{fill:#f0e5f1;}.cls-3{fill:#dec9e2;}.cls-4{fill:#44bda3;}.cls-5{fill:#bedef5;}.cls-6{fill:#fff;}.cls-7{fill:#f15d5e;}.cls-8{fill:#fcb32b;}.cls-9{fill:#151c45;}.cls-10{fill:#cc7049;}.cls-11{fill:#e0dfdf;}.cls-12{fill:#a1b1d0;}.cls-13{fill:#c5533a;}.cls-14{fill:#aeadae;}.cls-15{fill:#6fb2e2;}.cls-16{fill:#60c4af;}.cls-17{clip-path:url(#clip-path);}.cls-18{fill:#f69d9e;}.cls-19{fill:#f6ba8a;}.cls-20{fill:#f18665;}.cls-21{fill:#26ad92;}.cls-22{fill:#c4c4c4;}.cls-23{fill:#919191;}.cls-24{fill:#ebebeb;}.cls-25{fill:#eba771;}.cls-26{fill:#f18d6e;}.cls-27{fill:#f79678;}.cls-28{fill:#f47b56;}.cls-29{fill:#e5f2fb;}</style><clipPath id="clip-path" transform="translate(-4.28 -14.5)"><polygon class="cls-1" points="490.27 375.36 178.87 375.36 178.87 335.45 119.33 212.04 155.26 110.51 503.19 102.75 490.27 332.64 490.27 375.36"/></clipPath></defs><title>hero-banner3</title><circle class="cls-2" cx="286.9" cy="223.24" r="199.72"/><circle class="cls-3" cx="286.9" cy="205.88" r="199.72"/><path class="cls-4" d="M414.23,353.38c15.1-14.78,35.49,33.54,42.54,52l14.13-16.21c-9.88-11.78-45.56-57.37-16.29-68.93,20.14-8,19.68,47.34,19,65.84l19.08-21.89c-4.93-11.37-28.5-69.6,4.08-72.13,21.82-1.7,4.52,52.2-1.42,69.08l20.3-23.3c7.53-18.2,29.27-66.06,44-50.86,20.7,21.4-24.15,46.52-40.78,54.8L499.46,364c17.07-10.15,62.82-35.25,65.5-14.34,4.11,32-56.22,21.44-69.35,18.76l-20.67,23.72c14.37-3.7,74.89-18,71,4.51-5.61,32.48-62.3,2.79-72.47-2.83l-14.71,16.9c.08.24.16.46.23.65,16.21,2.44,74.8,12.69,62.72,31.56-17.27,27-56.22-18.89-65-29.86l-32.6,37.42-3.77-3.28,33.08-38C437,400.47,393,374.17,414.23,353.38Z" transform="translate(-4.28 -14.5)"/><path class="cls-4" d="M492.3,529.44c-16.61,0-32.81-4.57-38.8-18.25-13.18-30.1,22.17-56.6,45.14-67.5,8.69-4.13,17.79-7.62,26.59-11,8-3.08,16.33-6.26,24.26-9.91h0a190,190,0,0,0,56.27-39.53,3.5,3.5,0,0,1,6,2.62c-1,23.12-2.58,45.58-11.73,66.09-6.94,15.55-18.41,30.35-36.09,46.57-9.11,8.36-21.44,18.71-36.12,24.52C519,526.55,505.51,529.44,492.3,529.44Zm58.54-103.72c-8,3.69-16.38,6.9-24.46,10-8.74,3.35-17.78,6.82-26.36,10.89-21.92,10.41-55.76,35.45-43.56,63.3,10.08,23,53.68,16.68,70.15,10.16,14.19-5.62,26.23-15.72,35.13-23.89,17.34-15.92,28.57-30.38,35.32-45.51,8.92-20,10.51-42.12,11.45-64.91a.26.26,0,0,0-.17-.28.23.23,0,0,0-.28,0,193.38,193.38,0,0,1-57.22,40.2Z" transform="translate(-4.28 -14.5)"/><path class="cls-4" d="M204.76,439.37c-15.1-14.77-35.49,33.55-42.54,52l-14.13-16.21c9.89-11.78,45.56-57.37,16.29-68.92-20.14-8-19.68,47.34-19,65.83l-19.08-21.89c4.93-11.37,28.5-69.6-4.08-72.13-21.82-1.69-4.52,52.2,1.42,69.08l-20.3-23.3c-7.53-18.2-29.27-66.06-44-50.86-20.7,21.4,24.15,46.53,40.78,54.8L119.53,450c-17.07-10.14-62.82-35.24-65.5-14.34-4.11,32,56.22,21.44,69.35,18.76l20.67,23.72c-14.37-3.7-74.89-18-71,4.52,5.61,32.47,62.3,2.78,72.47-2.83l14.72,16.89-.24.65c-16.21,2.44-74.8,12.7-62.72,31.56,17.27,27,56.22-18.88,65-29.86l32.61,37.42,3.76-3.28-33.08-38C182,486.46,226,460.16,204.76,439.37Z" transform="translate(-4.28 -14.5)"/><path class="cls-4" d="M150.36,415.53a193.17,193.17,0,0,0-24.19-65,1.89,1.89,0,0,1,2.18-2.76c21.41,6.57,43,13.85,60.43,27.81,15.26,12.23,26.35,28.91,35.5,46.2,6.75,12.76,12.65,26.26,14.39,40.59,2.43,20-3.75,63.1-28.95,67.08-31.58,5-47.5-35.55-52-59.47C154.27,452,153.55,433.58,150.36,415.53Z" transform="translate(-4.28 -14.5)"/><path class="cls-5" d="M590.41,71l0-1.69a21.87,21.87,0,0,0,10.82-3l.86,1.45A23.64,23.64,0,0,1,590.41,71Zm-11.74-2.91a23.71,23.71,0,0,1-8.76-8.35l1.44-.89a22,22,0,0,0,8.13,7.76Zm31.88-9-1.47-.84A21.91,21.91,0,0,0,612,47.38c0-.46,0-.93-.05-1.39l1.69-.11c0,.5,0,1,0,1.5A23.68,23.68,0,0,1,610.55,59.08ZM566.44,48.13c0-.25,0-.5,0-.75a23.67,23.67,0,0,1,2.73-11l1.49.79a22,22,0,0,0-2.54,10.25c0,.24,0,.47,0,.7Zm41.91-12.8A22,22,0,0,0,600,27.84l.76-1.5a23.69,23.69,0,0,1,9,8.07Zm-30.07-6.45-.91-1.43a23.68,23.68,0,0,1,11.54-3.65l.08,1.69A21.79,21.79,0,0,0,578.28,28.88Z" transform="translate(-4.28 -14.5)"/><path class="cls-5" d="M545.35,24.62A10.12,10.12,0,1,1,535.23,14.5,10.11,10.11,0,0,1,545.35,24.62Z" transform="translate(-4.28 -14.5)"/><path class="cls-5" d="M162.57,32.21a5.9,5.9,0,1,1-5.9-5.91A5.9,5.9,0,0,1,162.57,32.21Z" transform="translate(-4.28 -14.5)"/><path class="cls-6" d="M160.85,117.4h-56.5a6.79,6.79,0,0,0-6.78,6.78V160.6a6.78,6.78,0,0,0,6.78,6.77h16.82l5.31,9.2,6.12,10.6,6.12-10.6,5.31-9.2h16.82a6.77,6.77,0,0,0,6.77-6.77V124.18A6.78,6.78,0,0,0,160.85,117.4Z" transform="translate(-4.28 -14.5)"/><path class="cls-7" d="M85.14,228.3c-11.81-7.27-19.17,6.93-19.22,7,0-.08-7.4-14.28-19.21-7-13.56,8.36-.3,34.77,19.21,41.17h0C85.44,263.07,98.7,236.66,85.14,228.3Z" transform="translate(-4.28 -14.5)"/><path class="cls-8" d="M606.1,185H549.59a6.77,6.77,0,0,0-6.77,6.77v36.43a6.77,6.77,0,0,0,6.77,6.77h16.82l5.31,9.2,6.12,10.6,6.12-10.6,5.32-9.2H606.1a6.77,6.77,0,0,0,6.77-6.77V191.79A6.77,6.77,0,0,0,606.1,185Z" transform="translate(-4.28 -14.5)"/><path class="cls-6" d="M573.34,226.26a64,64,0,0,0,14.77.09,8,8,0,0,0,3.4-.94,2.81,2.81,0,0,0,1.49-2.88,3.56,3.56,0,0,0,2.26-1.3,3.27,3.27,0,0,0,.68-.85,2.61,2.61,0,0,0,.19-1.24,3.8,3.8,0,0,0-1.85-3.21,3.35,3.35,0,0,0,1.62-5.37,3.94,3.94,0,0,0-1.71-1.11c.48-.43,1.16-.65,1.53-1.17a1.92,1.92,0,0,0-.42-2.43,4.14,4.14,0,0,0-2.49-.9,38.24,38.24,0,0,0-4.9.13,10,10,0,0,1-4.86-1c-.31-2.16.21-4.42-.37-6.52a6.63,6.63,0,0,0-5.85-4.73,1.34,1.34,0,0,0-1.7,1.5,22,22,0,0,0,1,5.1,6.35,6.35,0,0,1-.49,5,15.81,15.81,0,0,0-1.24,1.62,11.29,11.29,0,0,0-.62,2.73c-.23.91-.94,1.87-1.88,1.78Z" transform="translate(-4.28 -14.5)"/><rect class="cls-9" x="561.58" y="191.57" width="7.49" height="22.02" rx="0.82"/><path class="cls-6" d="M570.34,208.81a.91.91,0,1,1-.91-.91A.92.92,0,0,1,570.34,208.81Z" transform="translate(-4.28 -14.5)"/><path class="cls-10" d="M576.43,529.38H560c1.28,10.12,2.31,17.83,2.74,21.1,0,0-11.47,7.79-19.26,6.78a1.22,1.22,0,0,0-1.14.45,1.68,1.68,0,0,0,.15,2.2,1.19,1.19,0,0,0,.92.42h31a2.33,2.33,0,0,0,2.31-2,19.44,19.44,0,0,0-.51-7.38Z" transform="translate(-4.28 -14.5)"/><path class="cls-9" d="M558.31,553.24s2.74,1.79,3.16,3.68c.22,1,3.19.79,6.09.39a18.54,18.54,0,0,0,8.11-3.39,1.8,1.8,0,0,1,1.19-.47c1.06.21.95,6.64-.31,7.16s-29.58.08-34.08,0a.63.63,0,0,1-.63-.63c0-1.09.17-3.25,1.82-3.49C545.88,556.19,558.31,553.24,558.31,553.24Z" transform="translate(-4.28 -14.5)"/><path class="cls-10" d="M614.25,529.38H597.81l4,21.57a19.6,19.6,0,0,0,.78,7.38,2.91,2.91,0,0,0,2.67,2H631c0-1.1,0-2.2.06-3.3-7.29-1.35-15.86-6.55-15.86-6.55C615.06,547.21,614.74,539.5,614.25,529.38Z" transform="translate(-4.28 -14.5)"/><path class="cls-9" d="M620.27,553.24s-2.74,1.79-3.16,3.68c-.22,1-3.19.79-6.09.39a18.54,18.54,0,0,1-8.11-3.39,1.8,1.8,0,0,0-1.19-.47c-1.06.21-1,6.64.31,7.16s29.58.08,34.08,0a.63.63,0,0,0,.63-.63c0-1.09-.17-3.25-1.82-3.49C632.7,556.19,620.27,553.24,620.27,553.24Z" transform="translate(-4.28 -14.5)"/><path class="cls-8" d="M556.87,336.73s-9.55,8.71-8.71,15.74,7.31,28.38,5.34,43-6.46,27.27-5.34,42.72,10.68,101.18,10.68,101.18,21.64-7.31,29.23-3.94,28.38,6.19,31.19,5.06c0,0-4.77-115.51-20.51-137.15,0,0-2.81-31.05-.07-38s-.63-26.13-7.59-28.45S556.87,336.73,556.87,336.73Z" transform="translate(-4.28 -14.5)"/><path class="cls-9" d="M563.79,347.51c2.66-.21,5.3-.5,7.93-.8s5.25-.68,7.85-1.13,5.18-1,7.75-1.65a73.82,73.82,0,0,0,7.56-2.43,37,37,0,0,1-7.31,3.3,58,58,0,0,1-7.8,1.92A64.37,64.37,0,0,1,563.79,347.51Z" transform="translate(-4.28 -14.5)"/><path class="cls-9" d="M569.8,485.26c3.8-4.35,7.5-8.72,11-13.3s6.68-9.31,9.84-14.15a80.49,80.49,0,0,1-20.79,27.45Z" transform="translate(-4.28 -14.5)"/><path class="cls-9" d="M580.89,483a43.74,43.74,0,0,1,3.37-6.7,42.89,42.89,0,0,1,4.37-6.11A48.1,48.1,0,0,1,580.89,483Z" transform="translate(-4.28 -14.5)"/><path class="cls-10" d="M581.31,397.17c.11-1.33-8.75-3.69-8.4-4.59s2.55-1.11,3.72-1.07a.39.39,0,0,0,.41-.42c-.06-.49-.35-1.21-1.57-1.33a21.24,21.24,0,0,0-8.41.65h0l-10.16-5.59c-1,3.48-2,7-3.29,10.31a99.8,99.8,0,0,0,11.85,1.58v0h0c2.16,2,7.42,6.7,10.35,7.6a.27.27,0,0,0,.34-.37c-.17-.5-.81-1.44-2.92-3,0,0,5.16,2.17,6.09,1.79s-5.23-4.07-5.23-4.07,6.06,1.82,6.71,1.16-5.87-3.56-5.87-3.56S581.27,397.7,581.31,397.17Z" transform="translate(-4.28 -14.5)"/><path class="cls-8" d="M553.78,339.54s-12.22,12.5-19.11,22.2-8.29,15-6.6,21.08,12.22,9.55,15.31,10.54,18.27,3.79,18.27,3.79l2.53-9L546.61,378l18-25.86Z" transform="translate(-4.28 -14.5)"/><path class="cls-9" d="M540.19,375.65a20.71,20.71,0,0,1,3.34.74c1.08.33,2.14.73,3.18,1.16l-.68.82a22.2,22.2,0,0,1-1.84-4.09,22.16,22.16,0,0,1,2.8,3.5l.92,1.38-1.6-.56c-1.07-.38-2.12-.79-3.14-1.27A19.55,19.55,0,0,1,540.19,375.65Z" transform="translate(-4.28 -14.5)"/><path class="cls-9" d="M555.68,368a19.43,19.43,0,0,1,3.18-3.9,19.06,19.06,0,0,1,4-3.06,19.11,19.11,0,0,1-3.17,3.9A19.75,19.75,0,0,1,555.68,368Z" transform="translate(-4.28 -14.5)"/><path class="cls-11" d="M545.2,353.42H595a1.65,1.65,0,0,1,1.65,1.65v32.64a0,0,0,0,1,0,0H543.55a0,0,0,0,1,0,0V355.07A1.65,1.65,0,0,1,545.2,353.42Z"/><rect class="cls-12" x="543.55" y="387.15" width="53.12" height="3.93"/><path class="cls-6" d="M579.17,386.47a4.78,4.78,0,1,1-4.78-4.78A4.78,4.78,0,0,1,579.17,386.47Z" transform="translate(-4.28 -14.5)"/><path class="cls-10" d="M604,395l-.89-1.11-.63.14c-.34-.21-.68-.42-1-.64l-.55,1h0a21.51,21.51,0,0,0-7.41,4.07,1.49,1.49,0,0,0-.58,2,.37.37,0,0,0,.57.13c1-.67,3-1.65,3.7-1.15s-5.33,7.4-4.51,8.45c.32.42,4.8-4.32,4.8-4.32s-3.85,6-3,6.19,5-4.64,5-4.64-3.13,6.46-2.14,6.26,4.11-4.82,4.11-4.82c-.89,2.47-.91,3.62-.78,4.13a.27.27,0,0,0,.49.12c1.95-2.36,3.78-9.16,4.49-12h0l0,0c.68-.52,1.32-1.07,2-1.6C606.46,396.51,605.23,395.77,604,395Z" transform="translate(-4.28 -14.5)"/><path class="cls-8" d="M593.41,338.55a62.26,62.26,0,0,1,7.45,3.66c2.67,1.68,27.82,23.18,28.1,29.37S606.9,399.4,606.9,399.4l-5.76-5.76,9-18.83-24.45-22.63Z" transform="translate(-4.28 -14.5)"/><path class="cls-9" d="M613.22,370.59a13.45,13.45,0,0,1-1.13,2.39,23.33,23.33,0,0,1-1.46,2.16l-.9,1.16-.13-1.43a20.45,20.45,0,0,1-.07-2.07,12.46,12.46,0,0,1,.21-2.1,12.34,12.34,0,0,1,.64,2c.15.68.27,1.36.35,2l-1-.28a22.56,22.56,0,0,1,1.6-2.05A13.91,13.91,0,0,1,613.22,370.59Z" transform="translate(-4.28 -14.5)"/><path class="cls-9" d="M602.26,392.62a11,11,0,0,1,3.31,1.8,10.89,10.89,0,0,1,2.59,2.73,12.18,12.18,0,0,1-5.9-4.53Z" transform="translate(-4.28 -14.5)"/><polygon class="cls-9" points="594.6 349.98 586.38 345.55 593.87 352.93 594.6 349.98"/><path class="cls-10" d="M592.78,310.85a3.18,3.18,0,0,0-3.58-2.25c.69-20.33-16.26-17.59-16.26-17.59-10.63.92-11.85,12.23-11.77,18a3.58,3.58,0,0,0-.84-.39,3.18,3.18,0,0,0-3.59,2.25,4.23,4.23,0,0,0,.54,3.52,5.33,5.33,0,0,0,2.42,2,6.59,6.59,0,0,0,1.85.22c1.65,13.29,13.69,12,13.69,12,10.43.52,13.14-6.78,13.75-12a4.41,4.41,0,0,0,.83-.16,5.33,5.33,0,0,0,2.42-2A4.26,4.26,0,0,0,592.78,310.85Z" transform="translate(-4.28 -14.5)"/><circle class="cls-13" cx="579.42" cy="301.43" r="3.4"/><circle class="cls-13" cx="562.48" cy="301.43" r="3.4"/><ellipse class="cls-9" cx="575.21" cy="294.82" rx="0.98" ry="2.01"/><path class="cls-9" d="M581.5,306.67a2.78,2.78,0,0,1-.67.86,2.27,2.27,0,0,1-1,.53h0a.37.37,0,0,1-.44-.28.36.36,0,0,1,.28-.43h.09a2.13,2.13,0,0,0,1.58-.8h0a.11.11,0,0,1,.16,0A.13.13,0,0,1,581.5,306.67Z" transform="translate(-4.28 -14.5)"/><ellipse class="cls-9" cx="566.69" cy="294.82" rx="0.98" ry="2.01"/><path class="cls-9" d="M569.17,306.55a2.13,2.13,0,0,0,1.58.8.37.37,0,0,1,.38.35.37.37,0,0,1-.35.38h-.11a2.25,2.25,0,0,1-1-.53,2.94,2.94,0,0,1-.67-.86.12.12,0,0,1,0-.16.12.12,0,0,1,.14,0Z" transform="translate(-4.28 -14.5)"/><path class="cls-9" d="M578.93,315.41a4.73,4.73,0,0,1-1.49,1.69,3.77,3.77,0,0,1-2.2.73,3.82,3.82,0,0,1-2.19-.76,7.6,7.6,0,0,1-.85-.75c-.23-.3-.45-.6-.66-.91.31.22.59.46.86.69s.59.42.9.58a4,4,0,0,0,2,.55,3.94,3.94,0,0,0,2-.53A8.75,8.75,0,0,0,578.93,315.41Z" transform="translate(-4.28 -14.5)"/><path class="cls-9" d="M576.27,319a1.59,1.59,0,0,1-1,.35,1.67,1.67,0,0,1-1-.35,5.35,5.35,0,0,0,1,.12A4.66,4.66,0,0,0,576.27,319Z" transform="translate(-4.28 -14.5)"/><path class="cls-9" d="M572.78,302.34a2.29,2.29,0,0,0-1.52-.56,4.54,4.54,0,0,0-1.63.23,3.93,3.93,0,0,0-1.43.82,4.17,4.17,0,0,0-1,1.25.47.47,0,0,0,.18.64.49.49,0,0,0,.55-.07l0,0a6.18,6.18,0,0,1,1-.77,3.56,3.56,0,0,1,1.07-.44,4.48,4.48,0,0,1,1.16-.11,4.8,4.8,0,0,0,1.24-.07l.13,0a.5.5,0,0,0,.36-.6A.5.5,0,0,0,572.78,302.34Z" transform="translate(-4.28 -14.5)"/><path class="cls-9" d="M577.69,302.34a2.3,2.3,0,0,1,1.53-.56,4.51,4.51,0,0,1,1.62.23,3.93,3.93,0,0,1,1.43.82,4.17,4.17,0,0,1,1,1.25.47.47,0,0,1-.18.64.49.49,0,0,1-.55-.07l0,0a5.75,5.75,0,0,0-1-.77,3.56,3.56,0,0,0-1.07-.44,4.44,4.44,0,0,0-1.16-.11,4.8,4.8,0,0,1-1.24-.07l-.13,0a.5.5,0,0,1-.36-.6A.58.58,0,0,1,577.69,302.34Z" transform="translate(-4.28 -14.5)"/><path class="cls-9" d="M575.46,306.25c.18.76.31,1.51.45,2.25a22,22,0,0,0,.49,2.2,5.25,5.25,0,0,0,.17.52,1.9,1.9,0,0,1,.17.65,1.32,1.32,0,0,1-.71,1.19,1.6,1.6,0,0,1-1.28.07,3.08,3.08,0,0,1-1-.61c.71.26,1.53.47,2,.1a.8.8,0,0,0,.35-.72,1.45,1.45,0,0,0-.15-.45c-.08-.19-.14-.38-.2-.57a10.8,10.8,0,0,1-.37-2.31A12.83,12.83,0,0,1,575.46,306.25Z" transform="translate(-4.28 -14.5)"/><path class="cls-9" d="M558,311.94a1.7,1.7,0,0,1,.52-1.33,1.57,1.57,0,0,1,1.52-.15,2.78,2.78,0,0,1,1.23.9,4.34,4.34,0,0,1,.76,1.28.33.33,0,0,1-.19.44.32.32,0,0,1-.36-.08l0,0a3,3,0,0,0-1.13-.8.54.54,0,0,0-.47.05,1.25,1.25,0,0,0-.34.53c-.17.44-.28.95.1,1.16a2.54,2.54,0,0,0,1.49.1,2.4,2.4,0,0,1-1.64.22.91.91,0,0,1-.57-.77,2.37,2.37,0,0,1,.09-.89,1.59,1.59,0,0,1,.48-.82,1.12,1.12,0,0,1,1-.22,3.22,3.22,0,0,1,1.46,1l-.57.34a3.65,3.65,0,0,0-1.54-1.94,1.27,1.27,0,0,0-1.15-.06A1.65,1.65,0,0,0,558,311.94Z" transform="translate(-4.28 -14.5)"/><path class="cls-9" d="M592,311.94a1.68,1.68,0,0,0-.53-1.33,1.56,1.56,0,0,0-1.52-.15,2.81,2.81,0,0,0-1.22.9,4.34,4.34,0,0,0-.76,1.28.33.33,0,0,0,.55.36l0,0a3,3,0,0,1,1.13-.8.54.54,0,0,1,.47.05,1.25,1.25,0,0,1,.34.53c.17.44.27.95-.1,1.16a2.56,2.56,0,0,1-1.49.1,2.36,2.36,0,0,0,1.63.22.92.92,0,0,0,.58-.77,2.37,2.37,0,0,0-.1-.89,1.64,1.64,0,0,0-.47-.82,1.13,1.13,0,0,0-1-.22,3.2,3.2,0,0,0-1.47,1l.57.34a3.66,3.66,0,0,1,1.55-1.94,1.25,1.25,0,0,1,1.14-.06A1.66,1.66,0,0,1,592,311.94Z" transform="translate(-4.28 -14.5)"/><path class="cls-9" d="M595.71,338.61l-.18-.05a7.59,7.59,0,0,1-5.13-8.83c1.33-6.73,3.55-18.84,3.15-22.23-.56-4.78-3.8-18.41-16.44-19.39s-20.38,7.44-21.92,19.67,2.53,25.43,2.53,25.43c-.12,1.92-6.57,8-8.47,9.78a.42.42,0,0,0,.16.71c19.13,6.05,40.93-2.06,46.37-4.31A.41.41,0,0,0,595.71,338.61Zm-20.49-10.88c-7.34,0-13.29-6.89-13.29-15.38s6-15.39,13.29-15.39,13.29,6.89,13.29,15.39S582.56,327.73,575.22,327.73Z" transform="translate(-4.28 -14.5)"/><path class="cls-6" d="M551.53,342.91c1.42-.47,2.83-.93,4.22-1.47s2.79-1,4.16-1.59c2.74-1.13,5.45-2.31,8.08-3.65a74.39,74.39,0,0,0,7.6-4.5,40.21,40.21,0,0,0,3.48-2.73,42.49,42.49,0,0,0,3.24-3.06,30.37,30.37,0,0,1-2.85,3.47,40,40,0,0,1-3.33,3,50.63,50.63,0,0,1-7.61,4.82,63.16,63.16,0,0,1-8.3,3.45A55.37,55.37,0,0,1,551.53,342.91Z" transform="translate(-4.28 -14.5)"/><path class="cls-6" d="M567,325.63a13.41,13.41,0,0,1-4.52-3.13,14.79,14.79,0,0,1-4.17-10.13,16.91,16.91,0,0,1,.17-2.76,26,26,0,0,1,.65-2.67c0,.92-.09,1.81-.07,2.71a23.59,23.59,0,0,0,.16,2.66l.17,1.31.29,1.28a11.27,11.27,0,0,0,.36,1.26,10.69,10.69,0,0,0,.46,1.23,17.73,17.73,0,0,0,2.66,4.51A21.56,21.56,0,0,0,567,325.63Z" transform="translate(-4.28 -14.5)"/><path class="cls-6" d="M564.6,303s11.17-5.13,21.29,0C585.89,303,575.56,286.56,564.6,303Z" transform="translate(-4.28 -14.5)"/><rect class="cls-11" x="166.72" y="32.04" width="327.13" height="514.31" rx="20.39"/><rect class="cls-14" x="292.34" y="44.4" width="75.88" height="5.62"/><rect class="cls-14" x="294.31" y="517.68" width="71.95" height="14.61"/><rect class="cls-6" x="174.59" y="65.2" width="311.4" height="443.09"/><rect class="cls-9" x="174.59" y="65.2" width="311.4" height="16.86"/><circle class="cls-15" cx="202.27" cy="379.27" r="12.51"/><circle class="cls-16" cx="202.27" cy="483.39" r="12.51"/><circle class="cls-15" cx="236.84" cy="379.27" r="12.51"/><rect class="cls-5" x="256.37" y="369.57" width="66.61" height="6.46"/><rect class="cls-5" x="192.01" y="399.92" width="276.55" height="6.46"/><rect class="cls-5" x="192.01" y="413.13" width="276.55" height="6.46"/><rect class="cls-5" x="192.01" y="426.34" width="66.61" height="6.46"/><rect class="cls-5" x="219.83" y="473.14" width="66.61" height="6.46"/><circle class="cls-7" cx="206.55" cy="156.15" r="12.51" transform="translate(2.7 306.62) rotate(-76.67)"/><rect class="cls-5" x="219.83" y="131.39" width="66.61" height="6.46"/><rect class="cls-5" x="256.37" y="381.66" width="107.36" height="6.46"/><rect class="cls-7" x="174.59" y="158.51" width="311.4" height="202.35"/><g class="cls-17"><path class="cls-18" d="M403.92,393.45c-10,0-20.13-4.64-28.07-8.29-10.41-4.77-17.1-17.73-14.91-28.88,1.51-7.72,7.22-14.26,14.22-16.26.75-.22,1.51-.39,2.27-.56a20.71,20.71,0,0,0,3.36-.92c3.88-1.52,6.91-5.48,8.12-10.58,1-4.4.74-9.09.45-13.62l0-.76c-.49-7.8-.72-16,2.12-23.61,2.62-7,9.12-14.33,17.71-15,1-.08,2.07-.06,3.07,0a20.43,20.43,0,0,0,4.09-.18c6.18-1.09,10.11-7.54,13.28-12.72s8.27-12.08,15.54-12c4.5.08,8.9,3.18,10.95,7.71a19,19,0,0,1,.37,13.48c-.42,1.34-.95,2.7-1.47,4-1.65,4.17-3.2,8.11-1.64,11.78a15.51,15.51,0,0,0,3.29,4.37c.48.52,1,1,1.43,1.56a24.41,24.41,0,0,1,2.11,28.05c-3.53,5.58-9.22,9.47-14.73,13.23C438.5,339,431.93,343.5,429.72,351c-1.14,3.9-.86,7.94-.56,12.22a42.43,42.43,0,0,1-.19,11.14,24.07,24.07,0,0,1-14.57,17.11A27.17,27.17,0,0,1,403.92,393.45Zm6.92-116.83c-.53,0-1,0-1.56.05-7.85.59-13.83,7.4-16.26,13.89-2.72,7.26-2.49,15.3-2,22.92l.05.75c.29,4.66.6,9.48-.5,14.12-1.34,5.63-4.75,10-9.14,11.76a23,23,0,0,1-3.62,1c-.72.16-1.45.32-2.17.53h0c-6.4,1.83-11.64,7.84-13,15-2,10.25,4.39,22.62,14,27,10.47,4.8,24.83,11.38,37.21,6.27,7-2.9,12.2-9,13.55-15.88a41.09,41.09,0,0,0,.17-10.69c-.3-4.24-.61-8.63.63-12.81,2.38-8.08,9.5-12.94,16.38-17.64,5.37-3.66,10.91-7.44,14.25-12.73a22.62,22.62,0,0,0-2-26c-.44-.52-.91-1-1.38-1.51a17.11,17.11,0,0,1-3.61-4.87c-1.83-4.3-.08-8.75,1.62-13.06.51-1.29,1-2.62,1.44-3.91a17.3,17.3,0,0,0-.31-12.27c-1.79-4-5.58-6.65-9.44-6.72-6.42-.07-11.12,6.31-14.07,11.15-3.34,5.48-7.5,12.29-14.43,13.51a23.44,23.44,0,0,1-4.41.21Z" transform="translate(-4.28 -14.5)"/><path class="cls-18" d="M460.4,240a5.7,5.7,0,1,1,5.7-5.69A5.71,5.71,0,0,1,460.4,240Zm0-9.7a4,4,0,1,0,4,4A4,4,0,0,0,460.4,230.34Z" transform="translate(-4.28 -14.5)"/><path class="cls-18" d="M435.32,210.11a2.11,2.11,0,1,1-2.11-2.11A2.1,2.1,0,0,1,435.32,210.11Z" transform="translate(-4.28 -14.5)"/><circle class="cls-18" cx="204.45" cy="317.23" r="2.74"/><path class="cls-18" d="M460,346.69a5.27,5.27,0,1,1,5.27-5.27A5.28,5.28,0,0,1,460,346.69Zm0-8.85a3.59,3.59,0,1,0,3.59,3.58A3.59,3.59,0,0,0,460,337.84Z" transform="translate(-4.28 -14.5)"/><path class="cls-9" d="M287.91,331s-16.3,27-21.07,50.31H376.72s-8.43-40.47-18-50Z" transform="translate(-4.28 -14.5)"/><path class="cls-6" d="M285.24,338.89c3.2-.13,6.4-.18,9.6-.28l9.59-.16c6.39-.1,12.78-.09,19.18-.14s12.78,0,19.18.13l9.59.17c3.2.09,6.39.15,9.59.28-3.2.14-6.39.19-9.59.29l-9.59.16c-6.4.09-12.79.09-19.18.14s-12.79,0-19.18-.14l-9.59-.16C291.64,339.08,288.44,339,285.24,338.89Z" transform="translate(-4.28 -14.5)"/><path class="cls-6" d="M296.42,339.53a28.41,28.41,0,0,1-2.25,6,27.27,27.27,0,0,1-3.53,5.4,15.65,15.65,0,0,1-5.13,4,9.49,9.49,0,0,1-3.17.88,9.33,9.33,0,0,1-3.21-.3,10.71,10.71,0,0,0,6-1.39,17.84,17.84,0,0,0,4.65-4,38.34,38.34,0,0,0,3.63-5.08C294.46,343.29,295.48,341.44,296.42,339.53Z" transform="translate(-4.28 -14.5)"/><path class="cls-6" d="M329.3,338.68q.26,8.11.37,16.23l.12,8.12,0,8.11v.22l-.16.16c-2.94,3-5.86,5.94-8.82,8.88l-1,1V380c.05-6.85,0-13.71.14-20.56s.21-13.7.44-20.55c.22,6.85.34,13.7.43,20.55S321,373.15,321,380l-1-.41c2.94-3,5.92-5.88,8.88-8.82l-.15.37,0-8.11.12-8.12Q329,346.79,329.3,338.68Z" transform="translate(-4.28 -14.5)"/><path class="cls-6" d="M354.17,338.89a34.73,34.73,0,0,0,.83,5.72,15.57,15.57,0,0,0,2.17,5.14,8.87,8.87,0,0,0,4.23,3.35,15.64,15.64,0,0,0,5.63.76,11.27,11.27,0,0,1-5.91.1,8.83,8.83,0,0,1-4.91-3.55,13.68,13.68,0,0,1-2.1-5.63A17.91,17.91,0,0,1,354.17,338.89Z" transform="translate(-4.28 -14.5)"/><path class="cls-19" d="M414.34,220.1l-13.55.41s-4.39,19.94-10.39,46.55c-2-3.15-3.85-6.14-5.56-8.92a231.67,231.67,0,0,1-21.44,33.53c4.52,7.68,9.72,16.07,15.62,24.8l.25.36c10.48,15.46,34.65,9.78,37.11-8.73,0-.21.06-.43.08-.64C420.12,279.73,420.75,249.33,414.34,220.1Z" transform="translate(-4.28 -14.5)"/><path class="cls-20" d="M406.33,200c-.31-3.53-.77-7.21-1.34-7.09-.95.19-1.52,2.66-1.93,5.78A22.76,22.76,0,0,1,406.33,200Z" transform="translate(-4.28 -14.5)"/><path class="cls-20" d="M412.06,204.37c-.06-3.79-.33-11.22-1.59-11.9-1-.53-2.07,4.21-2.81,8.29A17.15,17.15,0,0,1,412.06,204.37Z" transform="translate(-4.28 -14.5)"/><path class="cls-19" d="M421.51,199.35c-.9.65-2.42,2.48-4.37,7.62,0,0,1.32-11.59,0-13.24-1-1.31-3.62,7.52-4.64,11.24a8.75,8.75,0,0,1,1.43,2.8,10.34,10.34,0,0,1,.36,4c1.6,4.35-1.07,9.46-5.72,11.06a11.86,11.86,0,0,1-5.51.46,9,9,0,0,1-4.34.41,39.77,39.77,0,0,0,3.82,5.56l9.44-1.8s10.34-19.51,10.46-27.67A.57.57,0,0,0,421.51,199.35Z" transform="translate(-4.28 -14.5)"/><path class="cls-9" d="M388.39,288.09c0-1.76.07-3.51.17-5.27s.21-3.5.35-5.25.31-3.49.48-5.24.38-3.48.6-5.22l.94.31c-.83,1.31-1.67,2.62-2.54,3.91s-1.75,2.58-2.67,3.84c.67-1.41,1.38-2.8,2.1-4.18s1.48-2.74,2.24-4.09l1.11-2-.17,2.28c-.13,1.75-.29,3.49-.46,5.24s-.35,3.49-.57,5.23-.44,3.48-.7,5.22S388.72,286.37,388.39,288.09Z" transform="translate(-4.28 -14.5)"/><path class="cls-11" d="M393.18,194.46l16.28,30.47a3.17,3.17,0,0,0,3.65,1.55c3-.83,7.75-2.73,8.93-6.56,1.75-5.71-12.94-34.17-12.94-34.17Z" transform="translate(-4.28 -14.5)"/><path class="cls-21" d="M375.7,154.92l-5.49,1.64a3.48,3.48,0,0,0-2.44,3.85c.75,5,3,15.86,9.2,30.32a3.46,3.46,0,0,0,4.18,2l4.88-1.45Z" transform="translate(-4.28 -14.5)"/><path class="cls-4" d="M402.78,140.21,376.88,148c-3.81,1.14-3.66,12.88.33,26.22s10.31,23.22,14.12,22.08l25.9-7.75Z" transform="translate(-4.28 -14.5)"/><path class="cls-16" d="M416.9,162.29c4,13.34,4.14,25.07.33,26.21s-10.13-8.75-14.12-22.08-4.14-25.07-.33-26.21S412.91,149,416.9,162.29Z" transform="translate(-4.28 -14.5)"/><path class="cls-11" d="M451.64,109l-48,37,.16,3.29a72.23,72.23,0,0,0,11.44,35.47h0l59.8.36Z" transform="translate(-4.28 -14.5)"/><path class="cls-22" d="M483.3,141.13c6.37,21.27,3.66,40.86-6,43.76-7.51,2.25-17-6.18-23.87-20a86,86,0,0,1-8-25.94c-2.2-15.9,1.09-28.79,8.82-31.1C463.92,105,476.94,119.87,483.3,141.13Z" transform="translate(-4.28 -14.5)"/><path class="cls-23" d="M463.49,147.06c3.95,13.21,4.41,25.77,1.86,34.09-6.7-5.56-13.22-16.3-17.17-29.51s-4.4-25.77-1.85-34.09C453,123.1,459.54,133.85,463.49,147.06Z" transform="translate(-4.28 -14.5)"/><path class="cls-24" d="M463.71,137.53l5.2,17.37-15.52,10a86,86,0,0,1-8-25.94Z" transform="translate(-4.28 -14.5)"/><path class="cls-4" d="M470.27,145c1.43,4.79.82,9.21-1.36,9.87s-5.12-2.71-6.56-7.5-.82-9.21,1.36-9.87S468.84,140.24,470.27,145Z" transform="translate(-4.28 -14.5)"/><path class="cls-9" d="M408.48,143.22c.29,1.84.57,3.68.94,5.5s.68,3.66,1.1,5.47c.83,3.61,1.71,7.21,2.85,10.74a86.8,86.8,0,0,0,4,10.33c.39.83.85,1.63,1.27,2.46.22.4.42.82.66,1.22l.75,1.17a23.63,23.63,0,0,0,1.51,2.32c.57.74,1.12,1.48,1.68,2.24a36.24,36.24,0,0,1-3.67-4.24l-.82-1.14c-.27-.39-.5-.8-.74-1.2-.48-.81-1-1.6-1.44-2.43a63.67,63.67,0,0,1-4.32-10.38,83.77,83.77,0,0,1-2.61-10.92A77.36,77.36,0,0,1,408.48,143.22Z" transform="translate(-4.28 -14.5)"/><path class="cls-9" d="M387.54,191.28a110.7,110.7,0,0,1,21.64-6.47,95,95,0,0,1-10.65,3.79A97.28,97.28,0,0,1,387.54,191.28Z" transform="translate(-4.28 -14.5)"/><path class="cls-9" d="M468.06,145.18a16,16,0,0,1,.43,2.58,6.61,6.61,0,0,1,0,1.33,2.38,2.38,0,0,1-.19.68,1,1,0,0,1-.62.58,1.08,1.08,0,0,1-.86-.14,2.61,2.61,0,0,1-.6-.47,6,6,0,0,1-.84-1.13,9.65,9.65,0,0,1-1-2.53,10.16,10.16,0,0,1-.28-2.7,5.61,5.61,0,0,1,.23-1.39,3,3,0,0,1,.31-.69,1.16,1.16,0,0,1,.71-.53,1,1,0,0,1,.81.24,2.18,2.18,0,0,1,.49.52,6.31,6.31,0,0,1,.63,1.17A15.92,15.92,0,0,1,468.06,145.18Zm0,0a9.36,9.36,0,0,0-.94-2.4,5.18,5.18,0,0,0-.77-1c-.27-.29-.68-.53-.88-.43s-.34.46-.38.83a6.85,6.85,0,0,0,0,1.2,15.94,15.94,0,0,0,.41,2.44,15.33,15.33,0,0,0,.75,2.35,6,6,0,0,0,.56,1.07c.21.31.51.58.72.56s.48-.4.59-.78a5.19,5.19,0,0,0,.21-1.25A9.39,9.39,0,0,0,468.06,145.18Z" transform="translate(-4.28 -14.5)"/><path class="cls-9" d="M455.7,109.49a27.3,27.3,0,0,1,10.45,5.09,24.88,24.88,0,0,1,4.13,4.2,56,56,0,0,1,3.23,4.9A107,107,0,0,1,483,145a73.41,73.41,0,0,1,2.55,11.45l.33,2.92.11,2.94c.06,1-.06,2-.09,3a14.54,14.54,0,0,1-.11,1.47l-.23,1.46a28.14,28.14,0,0,1-3.92,11,10.55,10.55,0,0,1-4.5,3.76,7.7,7.7,0,0,1-5.74,0,7.45,7.45,0,0,0,2.85.38,8.5,8.5,0,0,0,1.42-.19,8,8,0,0,0,1.35-.47,10,10,0,0,0,4.15-3.79,27.84,27.84,0,0,0,3.51-10.84,41.59,41.59,0,0,0-.18-11.47,72.42,72.42,0,0,0-2.61-11.24,111.88,111.88,0,0,0-9.2-21.24,54.24,54.24,0,0,0-3-4.9,25.47,25.47,0,0,0-3.9-4.21A28.34,28.34,0,0,0,455.7,109.49Z" transform="translate(-4.28 -14.5)"/><path class="cls-19" d="M400.05,226.76s-5.62-12.37-5.06-15.18,7-9.7,10-8.57-1.62,9.84-1.62,9.84,7.52,9.13,6.68,13.77S400.05,226.76,400.05,226.76Z" transform="translate(-4.28 -14.5)"/><path class="cls-8" d="M345.19,216.8s24.51,13,28.72,18,15.46,28.94,15.46,28.94l-24.45,32.89S338.81,257.74,345.19,216.8Z" transform="translate(-4.28 -14.5)"/><path class="cls-19" d="M350.05,225.32a8,8,0,0,1-1.2-5,19.38,19.38,0,0,1-3.73-3.46c-.43-1.56-1.44-5.37-2.19-9.68a45.39,45.39,0,0,1-.81-11.39v0a9.75,9.75,0,0,1,1.13-4.1L306,170.71c0,.12,0,.23.07.36.59,3.46,5.08,30.59.47,45A27.25,27.25,0,0,1,296,218.41a19.1,19.1,0,0,0-12.46,5c-3.63,3.41-6.84,9.14-6.9,18.68,3.41.43,6.82,1.1,10.22,1.71,10.16,1.83,20.3,3.77,30.49,5.46,13.13,2.18,26.61,2.65,39.89,4.13C356.68,243.44,354.74,233.18,350.05,225.32Z" transform="translate(-4.28 -14.5)"/><path class="cls-25" d="M342.93,207.16c-20.25,2.56-30.51-21.62-30.89-22.53A23.86,23.86,0,0,0,326.5,195a39.64,39.64,0,0,0,15.5.79l.12,0A45.39,45.39,0,0,0,342.93,207.16Z" transform="translate(-4.28 -14.5)"/><path class="cls-8" d="M305.62,215.73s23.89,26.41,30.92,22.2,8.79-20.33,8.79-20.33,24.09,20.89,27.46,27.64,3.09,19.95-5.34,40.75-5.27,48.9-5.27,48.9H285.1s6.47-13.49,4.5-29.23-20.51-66.05-20.51-66.05S265.43,216.57,305.62,215.73Z" transform="translate(-4.28 -14.5)"/><path class="cls-9" d="M304.92,218.54c1.85,2.09,3.73,4.16,5.7,6.14s3.93,3.95,6,5.79a80.38,80.38,0,0,0,6.47,5.23,32.41,32.41,0,0,0,7.19,4,10.36,10.36,0,0,0,7.77.22,11.31,11.31,0,0,0,5.51-5.59,27.88,27.88,0,0,0,2.45-7.86,48.11,48.11,0,0,0,.77-8.31c.35,5.55-.07,11.32-2.41,16.57a11.89,11.89,0,0,1-5.91,6.17,10,10,0,0,1-4.32.79,14.58,14.58,0,0,1-4.26-.9,32.65,32.65,0,0,1-7.4-4.19,61.05,61.05,0,0,1-6.46-5.43A100.49,100.49,0,0,1,304.92,218.54Z" transform="translate(-4.28 -14.5)"/><path class="cls-9" d="M360.53,249.64a72.46,72.46,0,0,0,4.73,10.75c1.78,3.49,3.44,7.24,3.83,11.27A32.87,32.87,0,0,1,368,283.52c-.52,1.91-1.14,3.79-1.81,5.64s-1.43,3.67-2.23,5.47c.55-1.89,1.16-3.75,1.69-5.64s1.07-3.77,1.48-5.68a36.72,36.72,0,0,0,.85-11.52c-.34-3.84-1.89-7.44-3.47-11-.79-1.79-1.61-3.59-2.31-5.44A40.89,40.89,0,0,1,360.53,249.64Z" transform="translate(-4.28 -14.5)"/><path class="cls-9" d="M324.45,293.83a24.3,24.3,0,0,1,8.41-.68,24,24,0,0,1,8.17,2.1c-2.8-.33-5.52-.72-8.27-.94S327.27,294,324.45,293.83Z" transform="translate(-4.28 -14.5)"/><path class="cls-19" d="M261.1,287c-1.58-1.47-3.17-2.92-4.73-4.4-7.25-6.87-14.73-13.42-21.9-20.26q-3,3.26-6.08,6.72c-4.63,5.23-9.35,10.81-14.06,16.72a21.46,21.46,0,0,0-.6,26c3.75,5.17,7.69,10.3,11.85,15.34,12.11,14.68,26,28.52,41.78,40l9.84-9.31s-13.8-24.65-30.35-54.82C251.71,297.45,256.5,292.08,261.1,287Z" transform="translate(-4.28 -14.5)"/><path class="cls-19" d="M266.7,364.27s5.22,21.45,10.55,27.63a.58.58,0,0,0,1-.26c.24-1.09.16-3.47-1.8-8.6,0,0,6.71,9.54,8.79,9.9s-4.74-13-4.74-13,8.69,9.93,10.56,9.49-6.41-12.81-6.41-12.81,9.54,9.71,10.21,8.82c1.66-2.23-11.38-16.23-9.76-17.44,1.43-1.08,5.73.87,7.75,2.25a.8.8,0,0,0,1.2-.31c.45-.92.73-2.5-1.3-4.09a43.34,43.34,0,0,0-20.22-9.22Z" transform="translate(-4.28 -14.5)"/><path class="cls-9" d="M240.42,296.39a18.28,18.28,0,0,1,6.46,6.46,18.28,18.28,0,0,1-6.46-6.46Z" transform="translate(-4.28 -14.5)"/><path class="cls-8" d="M227.77,268l28.11,25.86,35.41-36.54s2.29-37.91-5.3-38.6C274.71,217.69,238.45,252.54,227.77,268Z" transform="translate(-4.28 -14.5)"/><polygon class="cls-9" points="275.06 255.05 289.39 241.56 278.99 267.55 275.06 255.05"/><path class="cls-19" d="M362,161.8c-.42-11-1.76-22.28-5.54-32-4.86-12.51-27.79-17.38-43.78-3.48-7.43,6.46-9,18.16-8.55,28.85a5.06,5.06,0,0,0-1-.39c-3.25-.81-6.52,1.64-7.49,4.7a8.75,8.75,0,0,0,1.14,7.33,11,11,0,0,0,5,4.21,13.81,13.81,0,0,0,4.33.43,32.25,32.25,0,0,0,10.65,18.12,29.2,29.2,0,0,0,24.84,6.29c6.92-1.43,17.15-5.87,19.69-13.05a18.21,18.21,0,0,0,.75-5.88c0-.46,0-.92,0-1.38C362.17,171.13,362.17,166.48,362,161.8Z" transform="translate(-4.28 -14.5)"/><path class="cls-25" d="M362.12,175.56a7.26,7.26,0,0,1-1.82.24,7.11,7.11,0,0,1,0-14.21,6.75,6.75,0,0,1,1.69.21C362.17,166.48,362.17,171.13,362.12,175.56Z" transform="translate(-4.28 -14.5)"/><path class="cls-25" d="M317.83,168.69a7.11,7.11,0,1,0,7.11-7.1A7.11,7.11,0,0,0,317.83,168.69Z" transform="translate(-4.28 -14.5)"/><path class="cls-9" d="M349.46,154.9c0,2.33.92,4.21,2.05,4.21s2.05-1.88,2.05-4.21-.92-4.2-2.05-4.2S349.46,152.58,349.46,154.9Z" transform="translate(-4.28 -14.5)"/><path class="cls-9" d="M355.7,149.37a6,6,0,0,1-1.39,1.8,4.86,4.86,0,0,1-2.15,1.11h0a.76.76,0,0,1-.34-1.48.44.44,0,0,1,.2,0,4.46,4.46,0,0,0,3.29-1.67v0a.25.25,0,0,1,.35,0A.23.23,0,0,1,355.7,149.37Z" transform="translate(-4.28 -14.5)"/><path class="cls-9" d="M326.33,154.34a4.41,4.41,0,0,0,3.29,1.66.77.77,0,0,1,.79.73.75.75,0,0,1-.73.79.68.68,0,0,1-.2,0h0a5,5,0,0,1-2.15-1.12,6,6,0,0,1-1.39-1.79.25.25,0,0,1,.11-.33.24.24,0,0,1,.29.06Z" transform="translate(-4.28 -14.5)"/><path class="cls-9" d="M329.06,156.11a7,7,0,0,1,2.35-1.66,5.93,5.93,0,0,1,2.79-.48,6.85,6.85,0,0,1,2.65.78,12,12,0,0,1,1.14.7l1,.84a.46.46,0,0,1-.55.73l0,0-1-.69a11.75,11.75,0,0,0-1.06-.54,5.8,5.8,0,0,0-2.21-.49,4.57,4.57,0,0,0-2.11.55,5.34,5.34,0,0,0-1.67,1.35l0,.06a.85.85,0,1,1-1.32-1.06Z" transform="translate(-4.28 -14.5)"/><path class="cls-9" d="M350.33,167.62a10.11,10.11,0,0,1-3.1,3.51,7.83,7.83,0,0,1-4.59,1.53,7.93,7.93,0,0,1-4.57-1.58,14.89,14.89,0,0,1-1.78-1.58c-.48-.62-1-1.24-1.37-1.88.63.46,1.21.95,1.79,1.43s1.22.88,1.88,1.21a7.91,7.91,0,0,0,8.13.05A18,18,0,0,0,350.33,167.62Z" transform="translate(-4.28 -14.5)"/><path class="cls-9" d="M344.78,175.07a3.44,3.44,0,0,1-2.16.73,3.63,3.63,0,0,1-2.16-.73,11.8,11.8,0,0,0,2.16.24A9.47,9.47,0,0,0,344.78,175.07Z" transform="translate(-4.28 -14.5)"/><path class="cls-9" d="M337.49,140.33a4.84,4.84,0,0,0-3.18-1.17,9.52,9.52,0,0,0-3.38.48,8.31,8.31,0,0,0-3,1.7,8.73,8.73,0,0,0-2,2.61,1,1,0,0,0,1.52,1.2l.08-.07a12,12,0,0,1,2-1.61,7,7,0,0,1,2.24-.92,8.85,8.85,0,0,1,2.42-.24,9.2,9.2,0,0,0,2.59-.15l.26-.06a1,1,0,0,0,.76-1.24A1.07,1.07,0,0,0,337.49,140.33Z" transform="translate(-4.28 -14.5)"/><path class="cls-9" d="M347.75,140.33a4.86,4.86,0,0,1,3.18-1.17,9.6,9.6,0,0,1,3.39.48,8.18,8.18,0,0,1,3,1.7,8.73,8.73,0,0,1,2,2.61,1,1,0,0,1-1.52,1.2l-.08-.07a12,12,0,0,0-2-1.61,6.94,6.94,0,0,0-2.24-.92,8.85,8.85,0,0,0-2.42-.24,9.2,9.2,0,0,1-2.59-.15l-.26-.06a1,1,0,0,1-.76-1.24A1.15,1.15,0,0,1,347.75,140.33Z" transform="translate(-4.28 -14.5)"/><path class="cls-9" d="M343.1,148.49c.36,1.58.63,3.15.92,4.71s.59,3.1,1,4.57c.1.37.22.74.35,1.09a4,4,0,0,1,.36,1.35,2.73,2.73,0,0,1-1.48,2.49,3.28,3.28,0,0,1-2.68.15,6.58,6.58,0,0,1-2.12-1.27c1.48.55,3.2,1,4.23.2a1.58,1.58,0,0,0,.73-1.5,2.84,2.84,0,0,0-.31-.93c-.15-.39-.29-.79-.41-1.19a22.3,22.3,0,0,1-.77-4.83A25.26,25.26,0,0,1,343.1,148.49Z" transform="translate(-4.28 -14.5)"/><path class="cls-9" d="M298.24,161.76a3.5,3.5,0,0,1,1.09-2.78,3.28,3.28,0,0,1,3.17-.31,6,6,0,0,1,2.56,1.87,9.41,9.41,0,0,1,1.59,2.68.7.7,0,0,1-.38.92.75.75,0,0,1-.77-.16l0,0a6.2,6.2,0,0,0-2.35-1.66,1.05,1.05,0,0,0-1,.11,2.58,2.58,0,0,0-.71,1.09c-.36.92-.57,2,.21,2.42a5.21,5.21,0,0,0,3.11.21,4.81,4.81,0,0,1-3.41.46,1.91,1.91,0,0,1-1.21-1.61,5,5,0,0,1,.2-1.86,3.63,3.63,0,0,1,1-1.72,2.37,2.37,0,0,1,2.15-.44,6.82,6.82,0,0,1,3.07,2.06l-1.2.71a7.53,7.53,0,0,0-3.22-4,2.64,2.64,0,0,0-2.39-.14A3.5,3.5,0,0,0,298.24,161.76Z" transform="translate(-4.28 -14.5)"/><path class="cls-9" d="M358.54,133.45a23.08,23.08,0,0,0-5.34-10.66c-5.95-6.51-15.46-8.28-24.26-8.48-5.94-.15-12,.29-17.39,2.88-8.43,4.07-13.51,12.68-19.69,19.7A68,68,0,0,1,256.41,158c-11.15,2.56-22.73,2.24-34.15,3.27s-23.18,3.64-31.93,11c-6.82,5.73-11.49,14.11-19.43,18.14-4.4,2.26-9.43,2.94-14.35,3.6l-8.06,1c-11.85,1.57-18.57,14.82-12.33,25a1.55,1.55,0,0,1,.12.22c4.1,6.58,10.69,11.69,13.19,19,2.27,6.73.71,14.1,1.25,21.18.87,11.13,7.2,21.45,15.95,28.38s19.74,10.65,30.84,11.87a77.16,77.16,0,0,0,12.26.37,21.34,21.34,0,0,1,4.55-15.43c4.72-5.9,9.44-11.48,14.06-16.73l.24-.25-.84-.78c10.67-15.44,46.93-50.3,58.21-49.27a17,17,0,0,1,7.57-.08,20.09,20.09,0,0,1,2.46-.24,27.13,27.13,0,0,0,10.52-2.33c4.47-14,.39-39.88-.42-44.61a14.07,14.07,0,0,1-4.28-.43,11,11,0,0,1-5-4.21,8.77,8.77,0,0,1-1.14-7.34,6.8,6.8,0,0,1,6.76-4.8,31.86,31.86,0,0,0,5.08,6.58,3.15,3.15,0,0,0,2.21,1.18c1.12-.06,1.84-1.18,2.36-2.17.68-1.27,1.85-2.58,2.52-3.85a26,26,0,0,0,21.23-9.29,50.46,50.46,0,0,0,4.11-6.1l5.11-8.43c3.78,4.22,9.75,11.84,15.37,12.51A37,37,0,0,0,358.54,133.45Z" transform="translate(-4.28 -14.5)"/></g><path class="cls-20" d="M89.44,514.82l-7,2.52h0a22,22,0,0,0-9.28-2.44c-1.27-.08-1.67.6-1.8,1.09a.41.41,0,0,0,.35.51c1.21.15,3.45.83,3.64,1.7s-9.18,1.94-9.27,3.31c0,.56,6.67,0,6.67,0s-7.09,1.91-6.52,2.68,7-.08,7-.08-6.85,2.75-6,3.3,6.49-.82,6.49-.82c-2.39,1.27-3.19,2.13-3.44,2.62a.28.28,0,0,0,.3.43c2.48-.35,6.84-2.92,9.79-4.81h0l0,.1a99.55,99.55,0,0,0,11.83.37C91.21,521.9,90.28,518.38,89.44,514.82Z" transform="translate(-4.28 -14.5)"/><path class="cls-8" d="M132.43,469.43l-17.29,35.62-32,10.75,1.26,10.75s37.94-2.32,44-8.43,17.71-35.62,18.13-38.57S132.43,469.43,132.43,469.43Z" transform="translate(-4.28 -14.5)"/><path class="cls-8" d="M143.07,464.3s-8,8.19-7.69,14.62.84,41.73.84,41.73L133,522.23l-6.75-2.42s3.27-37.31,3.37-41.31,1.27-10.12,5.06-11.81A38.81,38.81,0,0,1,143.07,464.3Z" transform="translate(-4.28 -14.5)"/><path class="cls-26" d="M39.25,535.73c-14.23,1.81-24,3.13-24,3.13l-3.15,13.56,28.51.33C39.92,547.1,39.48,541.43,39.25,535.73Z" transform="translate(-4.28 -14.5)"/><path class="cls-8" d="M17.27,538.23A27,27,0,0,1,13,532.3c-1.24-2.76-.55-15.18-6.76-14.36v28.71l2.55,2.56H6v5.72s6.35,2.21,10.22.14c0,0-3.73-4.14-2.07-8.69S17.27,538.23,17.27,538.23Z" transform="translate(-4.28 -14.5)"/><path class="cls-7" d="M31.89,534.77V554H168.47s-4.78-27.55-15.88-31.06S31.89,534.77,31.89,534.77Z" transform="translate(-4.28 -14.5)"/><path class="cls-27" d="M42.72,531.55,22.81,542.63l-1.6,9.5,4.56,5.34L30.15,556l.22-.08c1.42-.59,9.66-4,21.26-8.82C48.5,542,45.49,536.85,42.72,531.55Z" transform="translate(-4.28 -14.5)"/><path class="cls-8" d="M23.4,540.81a26.54,26.54,0,0,1-6.52-3.31c-2.37-1.88-7.46-13.23-12.6-9.65l13.18,25.51,3.44,1.1-2.52,1.3L21,560.85s6.65-1,9.14-4.57c0,0-5.21-2-5.83-6.77S23.4,540.81,23.4,540.81Z" transform="translate(-4.28 -14.5)"/><path class="cls-7" d="M31.67,536l8,16.44,50.38-20s58,32.24,73.56,26.13,16.44-36,10.12-39.62-40.82,1.19-40.82,1.19l-1.76,1.55s-34.35-14.55-42.57-14.13S31.67,536,31.67,536Z" transform="translate(-4.28 -14.5)"/><path class="cls-9" d="M40.32,551.85c4.08-1.84,8.2-3.58,12.33-5.3s8.29-3.35,12.44-5,8.34-3.22,12.51-4.84c2.09-.81,4.2-1.55,6.29-2.33s4.2-1.54,6.32-2.27l-.08.28q-1.3-1.74-2.6-3.49,1.45,1.62,2.88,3.26l.16.18-.23.1c-2,.91-4.11,1.77-6.18,2.63S80,536.78,78,537.61c-4.16,1.65-8.29,3.36-12.47,5s-8.33,3.25-12.54,4.77S44.56,550.42,40.32,551.85Z" transform="translate(-4.28 -14.5)"/><path class="cls-9" d="M136.64,554c-2-.79-3.94-1.64-5.91-2.46l-5.87-2.57c-3.91-1.71-7.78-3.51-11.65-5.3s-7.72-3.65-11.54-5.55L96,535.22c-1.89-1-3.8-2-5.68-3,2,.79,4,1.64,5.92,2.46l5.86,2.57c3.91,1.71,7.78,3.51,11.65,5.3s7.72,3.65,11.54,5.55L131,551C132.86,552,134.77,552.93,136.64,554Z" transform="translate(-4.28 -14.5)"/><path class="cls-9" d="M131.37,521.92a45.61,45.61,0,0,1,7.13,3.17,47,47,0,0,1,6.58,4.2,45.61,45.61,0,0,1-7.13-3.17A47,47,0,0,1,131.37,521.92Z" transform="translate(-4.28 -14.5)"/><path class="cls-9" d="M148.66,526.55a29.58,29.58,0,0,1-6.32-.48,30.22,30.22,0,0,1-6.12-1.62,29.58,29.58,0,0,1,6.32.48A30.89,30.89,0,0,1,148.66,526.55Z" transform="translate(-4.28 -14.5)"/><path class="cls-27" d="M173.39,467.45a9.42,9.42,0,0,0-6.13-2.44,13.29,13.29,0,0,1-5.16-1.15c-2.28-7.08-.08-20.44.21-22.15,0-.06,0-.12,0-.18L144,451.84a4.73,4.73,0,0,1,.55,2h0a21.94,21.94,0,0,1-.4,5.6c-.37,2.13-.86,4-1.07,4.77-1.5,1.81-3.47,2.74-6.12,4.18a9.22,9.22,0,0,1-.15,2.13c-.78,4.27.61,10.25.41,14.68-.23,5.17-.4,10.29-.36,15.47.06,6.44.33,12.58.79,18.8h34.75c-1-9.25,1.36-23,4-38.22C177.68,473.68,175.7,469.61,173.39,467.45Z" transform="translate(-4.28 -14.5)"/><path class="cls-28" d="M144.17,459.47c10,1.26,15-10.64,15.2-11.08a11.72,11.72,0,0,1-7.11,5.1,19.49,19.49,0,0,1-7.63.39h-.06A21.94,21.94,0,0,1,144.17,459.47Z" transform="translate(-4.28 -14.5)"/><path class="cls-6" d="M143,464.61s-3.89,8.05-1.08,9.88,20.38-10.68,20.38-10.68,9.55,1.12,12.22,7.87-1.12,48.48-1.12,48.48-32.32,2-40.47,0c0,0,.14-20.66-.84-27.12s-.39-17.39,1.61-21.82C134.74,468.92,143,464.61,143,464.61Z" transform="translate(-4.28 -14.5)"/><path class="cls-8" d="M162.57,463.32s-15,6.95-13.49,14.54,8,82.84,8,82.84,19.6.63,27-3.16-9.27-55.23-8.43-60.07,5.27-26.56-1.06-30.57A21.57,21.57,0,0,0,162.57,463.32Z" transform="translate(-4.28 -14.5)"/><path class="cls-9" d="M158.07,553.46a39.67,39.67,0,0,0,6.61,2,33.86,33.86,0,0,0,6.79.75,32.39,32.39,0,0,0,3.41-.13,31.88,31.88,0,0,0,3.36-.58,34.22,34.22,0,0,0,6.53-2.22,21.39,21.39,0,0,1-6.3,3.1,22.53,22.53,0,0,1-3.46.79,28.07,28.07,0,0,1-3.55.21,26.24,26.24,0,0,1-7-1A23.25,23.25,0,0,1,158.07,553.46Z" transform="translate(-4.28 -14.5)"/><rect class="cls-9" x="102.6" y="468.35" width="2.98" height="17.32" transform="translate(509.79 727.63) rotate(135.2)"/><path class="cls-27" d="M102.39,485.28s.68,1.26,1.19,1.5a26.71,26.71,0,0,0,3.22.85h0c.12.1,2.52,2.13,6.11,5.08,1.11-1.49,2.26-3,3.43-4.47.79-1,1.55-2,2.31-3.08l-3.92-1.79-2.28-1.78c-1-1.28-4-6.08-5.39-6-1.67.13-1.57.78-1.57.78s2.6,3.32,2,4.63-6.23-4.95-6.23-4.95l-1.51-1.19s-.26,3.46,1,4.63a3.37,3.37,0,0,0,.63,3.34S101.44,484.71,102.39,485.28Z" transform="translate(-4.28 -14.5)"/><path class="cls-8" d="M161.09,468.8l-11.38,28.45-36.46-15.59s-6.33,8-5.69,8.22,32.88,31.61,46.37,29.3,22.55-41.95,22.55-41.95Z" transform="translate(-4.28 -14.5)"/><path class="cls-9" d="M153.44,519.32a10.41,10.41,0,0,0,6.74-4.08c2.67-3.65,12.23-23,12.23-23S167.21,525.78,153.44,519.32Z" transform="translate(-4.28 -14.5)"/><path class="cls-9" d="M155.4,499.92a18,18,0,0,1-3.1-.95,30.54,30.54,0,0,1-2.9-1.35L148,496.9l1.47-.33a20.26,20.26,0,0,1,4.36-.58,20.4,20.4,0,0,1-4.07,1.67l.1-1.05a30.59,30.59,0,0,1,2.85,1.46A18.36,18.36,0,0,1,155.4,499.92Z" transform="translate(-4.28 -14.5)"/><path class="cls-9" d="M117.74,498.94a68.67,68.67,0,0,1,7.81,5.3,68.46,68.46,0,0,1,7.09,6.22,66.15,66.15,0,0,1-7.81-5.3A68.31,68.31,0,0,1,117.74,498.94Z" transform="translate(-4.28 -14.5)"/><path class="cls-9" d="M124.21,486.15a13.06,13.06,0,0,1,3.9,1.16,12.37,12.37,0,0,1,3.4,2.22,14.2,14.2,0,0,1-7.3-3.38Z" transform="translate(-4.28 -14.5)"/><path class="cls-9" d="M155.82,475.76A12.45,12.45,0,0,1,157,472.2a13,13,0,0,1,2.11-3.13,9.56,9.56,0,0,1,3.12-2.24,6.64,6.64,0,0,1,3.75-.35,11,11,0,0,0-3.35,1.17,12.51,12.51,0,0,0-2.66,2.21,20.75,20.75,0,0,0-2.18,2.8C157.09,473.65,156.45,474.68,155.82,475.76Z" transform="translate(-4.28 -14.5)"/><path class="cls-27" d="M167.43,436a2.88,2.88,0,0,0-4.16-2.12c.22-5.26-.55-11-4.2-14.2-7.87-6.84-19.16-4.44-21.55,1.71-2.74,7-2.88,15.75-2.79,23.2a9.33,9.33,0,0,0,.37,2.89c1.25,3.54,6.29,5.72,9.7,6.43a14.36,14.36,0,0,0,12.22-3.1,15.9,15.9,0,0,0,5.24-8.92,6.73,6.73,0,0,0,2.13-.21,5.39,5.39,0,0,0,2.48-2.07A4.28,4.28,0,0,0,167.43,436Z" transform="translate(-4.28 -14.5)"/><path class="cls-9" d="M140.46,433.76c0,1.14-.45,2.06-1,2.06s-1-.92-1-2.06.45-2.07,1-2.07S140.46,432.62,140.46,433.76Z" transform="translate(-4.28 -14.5)"/><ellipse class="cls-9" cx="143.91" cy="419.26" rx="1.01" ry="2.07"/><path class="cls-9" d="M140,440a4.94,4.94,0,0,0,1.52,1.73,3.73,3.73,0,0,0,4.51,0,8.17,8.17,0,0,0,.88-.78c.23-.3.47-.61.67-.93-.31.23-.59.47-.88.71s-.6.43-.92.59a4.18,4.18,0,0,1-2,.57,4,4,0,0,1-2-.54A8.35,8.35,0,0,1,140,440Z" transform="translate(-4.28 -14.5)"/><path class="cls-9" d="M142.76,443.68a1.68,1.68,0,0,0,1.06.36,1.79,1.79,0,0,0,1.07-.36,5.84,5.84,0,0,1-1.07.12A4.92,4.92,0,0,1,142.76,443.68Z" transform="translate(-4.28 -14.5)"/><path class="cls-9" d="M146.35,426.59a2.35,2.35,0,0,1,1.56-.58,4.75,4.75,0,0,1,1.67.23,4.16,4.16,0,0,1,1.46.84,4.44,4.44,0,0,1,1,1.29.49.49,0,0,1-.19.66.48.48,0,0,1-.56-.07l0,0a6.53,6.53,0,0,0-1-.79,3.5,3.5,0,0,0-1.1-.45,4.37,4.37,0,0,0-1.2-.12,4.6,4.6,0,0,1-1.27-.07l-.13,0a.51.51,0,0,1-.37-.62A.47.47,0,0,1,146.35,426.59Z" transform="translate(-4.28 -14.5)"/><path class="cls-9" d="M141.3,426.59a2.37,2.37,0,0,0-1.57-.58,4.73,4.73,0,0,0-1.66.23,4.27,4.27,0,0,0-2.47,2.13.49.49,0,0,0,.18.66.5.5,0,0,0,.57-.07l0,0a6.47,6.47,0,0,1,1-.79,3.46,3.46,0,0,1,1.11-.45,4.26,4.26,0,0,1,1.19-.12,4.6,4.6,0,0,0,1.27-.07l.13,0a.51.51,0,0,0,.37-.62A.46.46,0,0,0,141.3,426.59Z" transform="translate(-4.28 -14.5)"/><path class="cls-9" d="M141.78,430.41c-.18.77-.31,1.55-.45,2.31s-.29,1.53-.51,2.26c0,.18-.11.36-.17.53a2,2,0,0,0-.18.67,1.36,1.36,0,0,0,.73,1.22,1.61,1.61,0,0,0,1.32.07,3.3,3.3,0,0,0,1-.62c-.72.27-1.57.48-2.08.1a.8.8,0,0,1-.36-.74,1.5,1.5,0,0,1,.15-.46c.08-.19.15-.39.21-.58a11.46,11.46,0,0,0,.38-2.38A12.61,12.61,0,0,0,141.78,430.41Z" transform="translate(-4.28 -14.5)"/><path class="cls-9" d="M166.25,436.94a1.72,1.72,0,0,0-.54-1.37,1.59,1.59,0,0,0-1.56-.15,3,3,0,0,0-1.26.92,4.7,4.7,0,0,0-.78,1.32.35.35,0,0,0,.57.37l0,0a3,3,0,0,1,1.16-.82.52.52,0,0,1,.48.05,1.21,1.21,0,0,1,.35.54c.18.45.28,1-.1,1.19a2.6,2.6,0,0,1-1.53.11,2.44,2.44,0,0,0,1.68.22.93.93,0,0,0,.59-.79,2.33,2.33,0,0,0-.1-.92,1.64,1.64,0,0,0-.49-.84,1.13,1.13,0,0,0-1.05-.22,3.31,3.31,0,0,0-1.51,1l.59.35a3.64,3.64,0,0,1,1.58-2,1.3,1.3,0,0,1,1.18-.08A1.72,1.72,0,0,1,166.25,436.94Z" transform="translate(-4.28 -14.5)"/><path class="cls-9" d="M168.24,428.47c-.61-1.92-1.54-4.13-3.53-4.47a6.42,6.42,0,0,0-.05-5.34,9.07,9.07,0,0,0-3.25-3.46,15.22,15.22,0,0,0-6.19-2.38c-3.37-.49-6.81.17-10.15.83-1.74.34-3.92.62-5.65,1-1.74-1.36-4.49-.64-5.89,1.06a9.45,9.45,0,0,0-1.7,6.28c.12,4.36,1.52,8.56,3.1,12.64.11-1.69.31-3.37.56-5a13,13,0,0,1,3-4.86,16.22,16.22,0,0,0,16.61,3.77,13.7,13.7,0,0,0,1.09,4c.67,1.54,1.78,3.1,3.43,3.41a1.62,1.62,0,0,0,1.86-.79c.22-.63,1.8-1.23,1.8-1.16a2.56,2.56,0,0,1,.47-.19,3.27,3.27,0,0,1,3.68,2.31,4.32,4.32,0,0,1-.56,3.61,5.34,5.34,0,0,1-2.48,2.07,6.7,6.7,0,0,1-2.14.22,16.37,16.37,0,0,1-2,5.14,6.79,6.79,0,0,0,4-.57c1.72-.91,2.71-2.75,3.55-4.5a17.56,17.56,0,0,0,1.74-4.86C170,434.22,169.11,431.29,168.24,428.47Z" transform="translate(-4.28 -14.5)"/><path class="cls-29" d="M750.89,287a10.56,10.56,0,0,0-6.41-5.77c-3.9-1.25-8.18-.95-11.81-3-4.07-2.29-7.34-7.45-11.86-6.95-3.62.4-6.23,4.44-9.8,5.25-7.39,1.67-12.3-10.68-19.83-10.69-4.49,0-8.23,4.51-12.71,4.67-5.82.21-9.66-6.5-13.21-11.78-5.26-7.83-14.38-14.34-22.18-10.13-5.18,2.79-7.83,9.3-10.65,15s-7.11,11.65-12.84,11.66c-6,0-12.08-6.63-17.33-3.24-2.47,1.6-3.66,5.06-3.64,8.3a24,24,0,0,0,1.15,6.67Z" transform="translate(-4.28 -14.5)"/></svg>