<svg id="Layer_1" data-name="Layer 1" xmlns="http://www.w3.org/2000/svg" xmlns:xlink="http://www.w3.org/1999/xlink" viewBox="0 0 715.21 532.54"><defs><style>.cls-1{fill:none;}.cls-2{fill:#a2dcea;}.cls-3{fill:#72ccd6;}.cls-4{fill:url(#New_Pattern_Swatch_7);}.cls-5{fill:#0e834f;}.cls-6{fill:#c1424d;}.cls-7{fill:#1aa363;}.cls-8{fill:#eb4f63;}.cls-9{fill:#f9af92;}.cls-10{fill:#3e2e51;}.cls-11{fill:#f8c7a4;}.cls-12{fill:#63498a;}.cls-13{fill:#f19a88;}.cls-14{fill:#ee744c;}.cls-15{fill:#d55331;}.cls-16{fill:#1d5389;}.cls-17{fill:#4778bc;}.cls-18{fill:#dec9e2;}.cls-19{fill:#e19426;}.cls-20{fill:#fee669;}.cls-21{fill:#231b30;}.cls-22{fill:#f6b190;}.cls-23{fill:#fcb32b;}.cls-24{fill:#fff;}.cls-25{fill:#a33240;}.cls-26{fill:#5e9bd3;}.cls-27{fill:#0b2728;}.cls-28{fill:#faf5d4;}</style><pattern id="New_Pattern_Swatch_7" data-name="New Pattern Swatch 7" width="20.67" height="20.67" patternTransform="translate(-10.59 -22.76)" patternUnits="userSpaceOnUse" viewBox="0 0 20.67 20.67"><rect class="cls-1" width="20.67" height="20.67"/><rect class="cls-2" width="20.67" height="20.67"/></pattern></defs><title>hero-banner2</title><polygon class="cls-3" points="20.22 451.02 20.22 437.52 46.15 437.52 46.15 420.5 40.27 420.5 40.27 412.54 65.92 412.54 65.92 397.04 83.46 397.04 83.46 361.81 88.47 361.81 88.47 345.41 90.29 345.41 90.29 361.81 93.48 361.81 93.48 397.04 114.3 397.04 114.3 374.67 129.99 374.67 129.99 350.65 169.32 350.65 169.32 357.96 166 357.96 166 410.93 183.01 410.93 183.01 395.88 193.75 395.88 193.75 365.37 199.52 365.37 199.52 324.73 202.54 324.73 202.54 365.37 207.13 365.37 207.13 395.88 219.04 395.88 219.04 416.7 227.69 416.7 227.69 400.78 234.99 400.78 234.99 416.7 238.86 416.7 238.86 384.01 242.95 384.01 242.95 344.21 246.16 344.21 246.16 372.34 257.81 384.01 261.44 384.01 261.44 341.86 300.78 341.86 300.78 349.17 297.47 349.17 297.47 402.14 314.48 402.14 314.48 387.1 315.16 387.1 315.16 360.82 325.2 360.82 325.2 356.58 330.98 356.58 330.98 315.94 333.99 315.94 333.99 356.58 338.59 356.58 338.59 360.82 344.58 360.82 344.58 387.1 350.49 387.1 350.49 407.9 357.79 407.9 357.79 407.01 359.16 407.01 359.16 392 366.45 392 366.45 407.01 370.31 407.01 370.31 375.22 374.41 375.22 374.41 335.43 377.61 335.43 377.61 363.56 389.28 375.22 404.26 375.22 404.26 384.01 445.08 384.01 445.08 407.01 446.61 407.01 446.61 352.03 476.05 352.03 476.05 400.43 489.24 400.43 489.24 398.22 535.14 398.22 535.14 375.22 576.53 375.22 576.53 398.22 587.22 398.22 587.22 340.92 615.49 340.92 615.49 366.03 643.64 366.03 643.64 423.53 649.79 423.53 649.79 397.04 658.97 397.04 658.97 312.01 661.21 312.01 661.21 397.04 672.62 397.04 672.62 434.05 687.07 434.05 687.07 451.02 701.92 451.02 701.92 527.35 13.28 527.35 13.28 451.02 20.22 451.02"/><polygon class="cls-4" points="708 516.53 708 502.51 681.07 502.51 681.07 484.83 687.17 484.83 687.17 476.56 660.54 476.56 660.54 460.46 642.32 460.46 642.32 423.88 637.12 423.88 637.12 406.84 635.23 406.84 635.23 423.88 631.91 423.88 631.91 460.46 610.29 476.49 610.29 453.26 594 453.26 594 428.32 553.15 428.32 553.15 435.91 556.6 435.91 556.6 490.92 538.93 490.92 538.93 475.29 527.78 475.29 527.78 443.6 521.79 443.6 521.79 417.42 518.65 417.42 518.65 443.6 513.88 443.6 513.88 475.29 501.51 475.29 501.51 496.91 492.52 496.91 492.52 480.38 484.95 480.38 484.95 496.91 480.93 496.91 480.93 462.97 476.68 462.97 476.68 437.65 473.35 437.65 473.35 450.84 461.24 462.97 457.48 462.97 457.48 419.19 416.61 419.19 416.61 426.78 420.06 426.78 420.06 481.79 402.39 481.79 402.39 466.17 401.69 466.17 401.69 438.88 391.26 422.85 391.26 418.44 385.25 418.44 385.25 376.24 382.13 376.24 382.13 418.44 377.35 418.44 377.35 422.85 371.12 422.85 371.12 450.14 364.99 450.14 364.99 471.75 357.41 471.75 357.41 470.82 355.99 470.82 355.99 455.24 348.41 455.24 348.41 470.82 344.4 470.82 344.4 437.81 340.14 437.81 340.14 396.48 336.83 396.48 336.83 425.7 324.7 437.81 309.15 437.81 309.15 446.94 266.75 446.94 266.75 470.82 265.16 470.82 265.16 413.72 234.59 413.72 234.59 463.98 220.89 463.98 220.89 461.69 173.22 461.69 173.22 437.81 130.23 437.81 130.23 461.69 119.13 461.69 119.13 402.19 89.77 402.19 89.77 428.26 60.53 428.26 60.53 487.98 54.14 487.98 54.14 460.46 44.61 460.46 44.61 372.16 42.29 372.16 42.29 460.46 30.43 460.46 30.43 498.91 15.42 498.91 15.42 516.53 0 516.53 0 532.54 715.21 532.54 715.21 516.53 708 516.53"/><path class="cls-5" d="M424.68,20.77,470,65.07a47.16,47.16,0,0,1-65.9,67.49l-45.37-44.3L375.9,70.73,421.26,115a22.66,22.66,0,0,0,31.66-32.42l-45.37-44.3Z" transform="translate(-17.17 -15.76)"/><rect class="cls-6" x="364.83" y="75.39" width="24.51" height="27.24" transform="translate(32.77 280.85) rotate(-45.68)"/><rect class="cls-6" x="413.61" y="25.44" width="24.51" height="27.24" transform="translate(83.21 300.69) rotate(-45.68)"/><path class="cls-7" d="M419,26.62l45.36,44.3a47.16,47.16,0,0,1-65.9,67.49l-45.37-44.3,17.13-17.53,45.36,44.29a22.65,22.65,0,1,0,31.66-32.41l-45.37-44.3Z" transform="translate(-17.17 -15.76)"/><rect class="cls-8" x="359.12" y="81.24" width="24.51" height="27.24" transform="translate(26.87 278.52) rotate(-45.68)"/><rect class="cls-8" x="407.9" y="31.28" width="24.51" height="27.24" transform="translate(77.31 298.37) rotate(-45.68)"/><path class="cls-9" d="M127.05,349.16l-19.61,2.4-14.19,1.72c-2.58,14.34,11.37,97.13,11.37,97.13-2,31.76,7.87,84.32,7.87,84.32l9.21.9c-2.11-48.1,5.35-71.54,3.81-149a1,1,0,0,1,.63-.9h0a1,1,0,0,1,.38-.08,1,1,0,0,1,.52.15Z" transform="translate(-17.17 -15.76)"/><path class="cls-10" d="M110.07,548.31c-1.19-1.2,0-6.77,0-6.77,0-3.63-2.27-12.36-.31-13.78,6.75-4.91,13-2.65,14.62.61,1.47,2.9-.17,10,4,12.39,3.06,1.74,1.51,6.67,1.38,7.55Z" transform="translate(-17.17 -15.76)"/><path class="cls-10" d="M92.51,356s-3.67,12.17.76,28.18l5.5,54.22V448.8s19.24,4.47,28.28,0l7.8-72.76S139.54,357.29,92.51,356Z" transform="translate(-17.17 -15.76)"/><path class="cls-11" d="M173.93,533.73l-9.4,1.37c-7.92-31.5-18.55-45.56-20.07-80.38-.78-18-17-68.45-17-68.45-.46-.18-.9-.38-1.33-.58h0c-14.89-6.94-18-25.75-18.7-34.13L153.16,346C156.67,396.78,163.55,463.69,173.93,533.73Z" transform="translate(-17.17 -15.76)"/><path class="cls-10" d="M162.5,548.31c-1.43-8.89.52-13.21.52-13.21s-3.15-4.69-1.45-5.82c7.66-5.09,11,.1,11,.1,1.35-7,3.08-3,3.08-3s3.15,9.36,5.8,10.51,12.73,2.69,11.79,9.65c-.12.86-.26,1.33-.08,1.72Z" transform="translate(-17.17 -15.76)"/><path class="cls-12" d="M107.44,365.77s4,16.06,17.87,24.1c0,0,10.78,47.42,12.57,52.95v6.87s21.71,2.64,29-2.23c0,0-4.91-80.35-13.4-95.08S107.44,365.77,107.44,365.77Z" transform="translate(-17.17 -15.76)"/><path class="cls-9" d="M136.49,243.5s33.24,21.78,37.55,36.66-6.35,11.69-12.25,6.7-31.91-40.62-31.91-40.62Z" transform="translate(-17.17 -15.76)"/><path class="cls-9" d="M137,239.21c0,6.47-1.25,12.19-5.29,9.46s-4.25-8.67,1.43-14.89C133.09,233.78,137,236.6,137,239.21Z" transform="translate(-17.17 -15.76)"/><path class="cls-13" d="M130,225.09s8.09-2.05,7.79-.1-7.21,2.6-7.21,2.6A2.61,2.61,0,0,1,130,225.09Z" transform="translate(-17.17 -15.76)"/><path class="cls-11" d="M132.54,208.27c-3.58-8.6-23.07.79-23.6,6.85s1.33,25.06,15,26.77C138.33,243.67,135.8,216.08,132.54,208.27Z" transform="translate(-17.17 -15.76)"/><path class="cls-9" d="M127,228.63s4.58,10.89-.43,13.24S110.69,228.53,127,228.63Z" transform="translate(-17.17 -15.76)"/><path class="cls-11" d="M126,239.68a94.82,94.82,0,0,0,.22,14.48S122,259.07,111,251.6c0,0,2.18-11.7.74-16.85l.92-1.22A12.11,12.11,0,0,1,126,239.68Z" transform="translate(-17.17 -15.76)"/><path class="cls-12" d="M136.41,202.15c-4.61,2.66-8.77-1.22-18.8.23-20.42,3-15.76,28.83-5.83,32.37,11,3.92,15.23-6.12,15.23-6.12-1.22-1.84-.9-7.63,1.19-7.53a2,2,0,0,1,2.1,1.86c2.12-6.35,2-10.47,1.68-12.61C137.77,210,136.41,202.15,136.41,202.15Z" transform="translate(-17.17 -15.76)"/><path class="cls-14" d="M158.3,314.75s.79-54.34-14.23-61.7c-16.58-8.12-44.85-4-54.69,4.73-8.52,7.58,1.79,52.47,2.05,70.42s-2.75,43.55-2.75,43.55,8.7,2.69,28.09,2.69a99.3,99.3,0,0,0,43.17-10.36Z" transform="translate(-17.17 -15.76)"/><path class="cls-9" d="M165.9,291.58h-.06a4.14,4.14,0,0,1,.34.48Z" transform="translate(-17.17 -15.76)"/><path class="cls-15" d="M129.3,247.62s-9.92-5.68-21.23-3.7l-4.4,6.76s.78,2.92,26.21-1.1Z" transform="translate(-17.17 -15.76)"/><path class="cls-11" d="M146.9,255.22c-8.39-4.24-11.43,6.61-7.68,17.16s35.83,28.32,35.83,14C175.05,279.51,161.74,262.71,146.9,255.22Z" transform="translate(-17.17 -15.76)"/><path class="cls-11" d="M135.81,241a6.55,6.55,0,0,0,.68-2.83c0-1.59-2.11-4.35-2.11-4.35s-1.42-.73-1,2.88c.19,1.78-2.17,4.58-2.4,7.79s2.16,6,3.63,4.16S135.81,241,135.81,241Z" transform="translate(-17.17 -15.76)"/><path class="cls-15" d="M138.87,254.27s8.13-6.63,29.26,15.93c0,0,3.42,16.13-7.93,20.82,0,0-10.66-3.71-15.2-7.11S132.29,263.21,138.87,254.27Z" transform="translate(-17.17 -15.76)"/><rect class="cls-16" x="420.4" y="91.95" width="220.24" height="319.64" rx="7.31"/><rect class="cls-17" x="414.44" y="91.95" width="220.24" height="319.64" rx="7.31"/><rect class="cls-18" x="422" y="109.97" width="205.14" height="278.21"/><path class="cls-16" d="M547.16,414.71a5.43,5.43,0,1,1-5.43-5.43A5.43,5.43,0,0,1,547.16,414.71Z" transform="translate(-17.17 -15.76)"/><path class="cls-16" d="M544.08,117.57a2.35,2.35,0,1,1-2.35-2.34A2.35,2.35,0,0,1,544.08,117.57Z" transform="translate(-17.17 -15.76)"/><path class="cls-19" d="M494,277.69c11.33-6.47,70.95-5.43,82.44,16.13s-74.18,2.58-74.18,2.58Z" transform="translate(-17.17 -15.76)"/><path class="cls-19" d="M436.47,312.6l-4.83,4.53a132.16,132.16,0,0,0,19.17-37.82s-10.51.65-13.48-6.66c0,0-76.73,70.3-63.42,92.7s84.37-15.18,84.37-15.18l12.76-62S459.46,290.88,436.47,312.6Z" transform="translate(-17.17 -15.76)"/><path class="cls-20" d="M595.09,329.51a1.37,1.37,0,0,1,0,.28c-.35,4.8-1.11,10.76-2.14,17.26a1.09,1.09,0,0,1,0,.26C590,365.9,585,389,581.64,403.94H452.48c-.62-10.25-1.64-30.14-1.68-50.07,0-24.26,1.38-48.57,6.73-55.53A34.65,34.65,0,0,1,471,288.16h0c.62-.29,1.27-.57,1.93-.82a85.76,85.76,0,0,1,23-5.21c2.74-.3,5.59-.51,8.52-.67l.44,0c1.82-.08,3.68-.16,5.57-.19,6.5-.16,13.39,0,20.6.3,2.49.12,4.92.34,7.31.65a88.51,88.51,0,0,1,11.75,2.32c.28.05.55.14.83.21a83.47,83.47,0,0,1,26.52,12.67,56.06,56.06,0,0,1,12.13,11.73h0a28.35,28.35,0,0,1,5.32,10.9s0,.05,0,.09A40.62,40.62,0,0,1,595.09,329.51Z" transform="translate(-17.17 -15.76)"/><path class="cls-11" d="M557.17,242c-13.63,33.34-50.93,22.74-54,7-1-5-.45-13.25,1.35-21.69.4-1.92.87-3.84,1.4-5.74,3.61-12.89,10-24.78,18.24-25.18C552.72,195,570.8,208.67,557.17,242Z" transform="translate(-17.17 -15.76)"/><path class="cls-20" d="M514.94,201.3s18.12-6.52,38.53,7.45c0,0-1.61,20.95-3.22,30.08,0,0,7.46,5.81-6.47,20.36,0,0,11.27,2.78,23.66-25.73,10.74-24.71-5.78-29-5.78-29s.81-16.65-17.39-19.87-27.86.45-28.39-8.59S494.39,190.79,514.94,201.3Z" transform="translate(-17.17 -15.76)"/><path class="cls-21" d="M533,224.8c-.6,1.91-2,3.18-3,2.85s-1.43-2.16-.83-4.06,2-3.19,3-2.86S533.57,222.89,533,224.8Z" transform="translate(-17.17 -15.76)"/><path class="cls-21" d="M515.05,220.74c-.61,1.91-1.95,3.18-3,2.85s-1.43-2.15-.83-4.06,1.95-3.19,3-2.86S515.65,218.83,515.05,220.74Z" transform="translate(-17.17 -15.76)"/><path class="cls-13" d="M517.29,224.74s-6.32,6-9.36,3.84-3,6.68,7.26,6.92C515.19,235.5,519,231.79,517.29,224.74Z" transform="translate(-17.17 -15.76)"/><path class="cls-21" d="M508.69,237.89s-.4,3.62,5.84,4.83a18.83,18.83,0,0,0,11.28-1.41S521,253.09,512,250.17C504.46,247.76,508.69,237.89,508.69,237.89Z" transform="translate(-17.17 -15.76)"/><path class="cls-22" d="M538.5,233.1c0,1.64-1.67,3-3.72,3s-3.73-1.33-3.73-3,1.67-3,3.73-3S538.5,231.45,538.5,233.1Z" transform="translate(-17.17 -15.76)"/><path class="cls-22" d="M509,226.77c-.85,1.34-2.87,1.56-4.56.55.4-1.92.87-3.84,1.4-5.74a4.54,4.54,0,0,1,1.68.66C509.28,223.37,509.94,225.4,509,226.77Z" transform="translate(-17.17 -15.76)"/><path class="cls-20" d="M532.22,211.1s4.26.6,6.28,3.62" transform="translate(-17.17 -15.76)"/><path class="cls-20" d="M516.94,208.68s-4.14-1.21-5,1" transform="translate(-17.17 -15.76)"/><path class="cls-11" d="M550.25,238.83s7.65-4.77,11.55.87-8.59,14.9-14,12.69S550.25,238.83,550.25,238.83Z" transform="translate(-17.17 -15.76)"/><path class="cls-9" d="M511.5,259.57,510,290.93s7.16,6.51,28.54,0c0,0-2.63-25,10.53-38.21,0,0-2.15-.52-5.6-1.14C543.43,251.58,534.78,267.86,511.5,259.57Z" transform="translate(-17.17 -15.76)"/><path class="cls-23" d="M595.09,329.51a1.37,1.37,0,0,1,0,.28c-.35,4.8-1.11,10.76-2.14,17.26a1.09,1.09,0,0,1,0,.26C590,365.9,585,389,581.64,403.94H524.26c-2.19-28.08-3.67-66.77-1.22-82.76l.06-.05c.68-.76,10.08-11.09,18.09-17.1.4-.3.81-.64,1.18-1,6.36-5.73,8.18-15.78,8.57-18.34a83.47,83.47,0,0,1,26.52,12.67,56.06,56.06,0,0,1,12.13,11.73h0a28.35,28.35,0,0,1,5.32,10.9s0,.05,0,.09A40.62,40.62,0,0,1,595.09,329.51Z" transform="translate(-17.17 -15.76)"/><path class="cls-23" d="M504.44,281.45a68.87,68.87,0,0,0-4.79,9.14,85,85,0,0,0-6.54,24.91c-.08.86-.19,2-.31,3.44-.06.35-.07.73-.11,1.08-1.38,16.24-4.31,59.94-5.9,83.92H452.48c-.62-10.25-1.64-30.14-1.68-50.07,0-24.26,1.38-48.57,6.73-55.53A34.65,34.65,0,0,1,471,288.16h0c.62-.29,1.27-.57,1.93-.82a85.76,85.76,0,0,1,23-5.21C498.66,281.82,501.51,281.61,504.44,281.45Z" transform="translate(-17.17 -15.76)"/><path class="cls-9" d="M437.33,272.65s-1-4.26,2.73-14,13.56-15.36,13.56-15.36l15.6,16s-8.56,16.86-24.92,23.63C432.41,287.79,437.33,272.65,437.33,272.65Z" transform="translate(-17.17 -15.76)"/><path class="cls-8" d="M458.06,239.6a62.5,62.5,0,0,1-15,26.32,3.79,3.79,0,0,0,.64,5.8c2.93,1.89,7,3.86,9.81,2.64,5-2.12,15.92-19.63,17.21-28.71S458.06,239.6,458.06,239.6Z" transform="translate(-17.17 -15.76)"/><path class="cls-24" d="M486.11,238.86a15,15,0,0,0-8.37-19.54l-16.49-6.6c-1.84-.74-5.83,4.91-8.92,12.62s-4.09,14.55-2.25,15.29l16.49,6.6A15,15,0,0,0,486.11,238.86Z" transform="translate(-17.17 -15.76)"/><path class="cls-8" d="M449.17,237.87c1.55.62,4.94-4.2,7.57-10.77s3.5-12.39,1.95-13c-21.17-8.47-44.5-37.5-48.83-43.06a.67.67,0,0,0-1.15.17l-12.66,31.62L383.4,234.43a.67.67,0,0,0,.71.92C391.09,234.31,428,229.39,449.17,237.87Z" transform="translate(-17.17 -15.76)"/><path class="cls-6" d="M403.22,205.68C396,223.75,386.63,237,382.31,235.27s-2-17.78,5.27-35.85,16.6-31.31,20.92-29.58S410.46,187.61,403.22,205.68Z" transform="translate(-17.17 -15.76)"/><path class="cls-25" d="M402.76,205.5c-6.92,17.28-15.87,29.95-20,28.3s-1.87-17,5.05-34.29,15.88-30,20-28.3S409.68,188.21,402.76,205.5Z" transform="translate(-17.17 -15.76)"/><path class="cls-11" d="M462.36,248.61s-8.72-10.28-12-9.47-.44,4-.44,4-5.05-.52-5.65,2a11.58,11.58,0,0,0-.43,3.78s-3.95.51-2.59,2.9-1.88,3.61-1.18,6.88,6.15,8.68,7.83,7.91-.23-6.41-.23-6.41,2.09,4.07,4.4,3.37-.9-10.41-.9-10.41,4.82,6.37,7.08,4.88-2.69-10.11-2.69-10.11S463.58,254.73,462.36,248.61Z" transform="translate(-17.17 -15.76)"/><path class="cls-11" d="M464.11,254.54s4.79,1.19,5.22,3.72S465.87,260.46,464.11,254.54Z" transform="translate(-17.17 -15.76)"/><path class="cls-19" d="M523,321.18c3.45-16.39,25.38-45,43.78-39.74s22.79,27.67,22.79,27.67-11.86-6.09-31.09-4.76S523,321.18,523,321.18Z" transform="translate(-17.17 -15.76)"/><path class="cls-19" d="M492.69,320s-25.39-28.6-18.61-35.28c14.13-14,33.42-8.07,33.42-8.07S494.33,298.49,492.69,320Z" transform="translate(-17.17 -15.76)"/><path class="cls-19" d="M630.16,403.94H581.64a245.09,245.09,0,0,0-10.57-45.79c-6-37,18.54-49,18.54-49S610.43,315.52,630.16,403.94Z" transform="translate(-17.17 -15.76)"/><path class="cls-19" d="M589.61,403.94c10.53-52.19,32.89-85.77,40.55-88s16,2.23,18.07,13.42-18.07,74.56-18.07,74.56Z" transform="translate(-17.17 -15.76)"/><path class="cls-11" d="M636.7,326.27c-5.52-3.2-6.54-10.31-6.54-10.31a31,31,0,0,1,11.51-23.51s2.11.43,1.15,3.15-2.87,5.83-1.48,8.66,8.2-3,9.51-5.08,14.75-18.38,17.43-13.5a1,1,0,0,1-.1.14c-1.25,1.46-13.06,15.55-12.34,16.44v0c.89.85,14-10.41,17.73-10,3.17.29,2.3,2.84,2.3,2.84a13,13,0,0,0-3.9,2.6s2.52,0,2.37,2.09a13.81,13.81,0,0,0-3.85,3.53s1.37.24-1.09,3.68C668.13,308.75,642.25,329.49,636.7,326.27Z" transform="translate(-17.17 -15.76)"/><path class="cls-9" d="M672,297.67s-1.6-.26-4,1.78-9,7.14-11.18,8-1.6-.92.47-1.68S669.63,295.59,672,297.67Z" transform="translate(-17.17 -15.76)"/><path class="cls-9" d="M670.5,303.29c-1.45-1.12-3.62,1-4.83,2.4s-7,6.48-8.62,6.69-.72-.69,1.06-1.61,8.9-8.26,10.79-8.48S670.5,303.29,670.5,303.29Z" transform="translate(-17.17 -15.76)"/><path class="cls-9" d="M641.81,304.76s1,5.24-.95,8C640.86,312.74,645.55,308.37,641.81,304.76Z" transform="translate(-17.17 -15.76)"/><path class="cls-9" d="M655.84,302.26c-2-.35,3.28-6.55,7.14-11.65s5.3-4.93,5.3-4.93a1,1,0,0,1-.1.14C666.93,287.28,655.12,301.37,655.84,302.26Z" transform="translate(-17.17 -15.76)"/><path class="cls-9" d="M646.39,304.65s.11.88.38,2.12a9.56,9.56,0,0,0,.65,2c.09.17.16.34.26.49l.18.31.14.29a3.72,3.72,0,0,1,.22,1.55,22,22,0,0,1-1.11,4.57,7,7,0,0,0-.27,1.46,3.16,3.16,0,0,0,0,.59,2.12,2.12,0,0,1-.25-.57,4.7,4.7,0,0,1-.16-1.62c0-1.32.5-3,.6-4.56a3.5,3.5,0,0,0-.07-1l-.13-.3,0-.07v0l-.08-.16a4.88,4.88,0,0,1-.27-.64,7.69,7.69,0,0,1-.35-2.32A7.52,7.52,0,0,1,646.39,304.65Z" transform="translate(-17.17 -15.76)"/><path class="cls-11" d="M284.53,295.42l20.92,10.65a98.28,98.28,0,0,0,12.21-41.38l7-.64s-1.11,48.34-10.13,57.44S268.7,305,268.7,305Z" transform="translate(-17.17 -15.76)"/><path class="cls-9" d="M295.79,252.07s-3.38,3.49-3.38,5.45,5.44,2.72,5.44,2.72,2.9.17,2.56,1.53-.85-.23-3.24.74-12.31,4.29-12.31,4.29l-3.69-3.48s0-7.33,2.48-8.19,3.93-1.7,4.72-3.06.83-.2,2.43-.87S294.93,250.54,295.79,252.07Z" transform="translate(-17.17 -15.76)"/><path class="cls-11" d="M310.1,252.8s3.38,3.49,3.38,5.45S308,261,308,261s-2.9.17-2.56,1.54.85-.23,3.24.73S321,267.53,321,267.53l3.68-3.48s0-7.33-2.47-8.18-3.93-1.71-4.73-3.07-.82-.2-2.43-.86S311,251.27,310.1,252.8Z" transform="translate(-17.17 -15.76)"/><path class="cls-9" d="M287.33,265.31s-15.57,28.5-26.75,32.88L254,287.35s15.58-13.81,27.15-24Z" transform="translate(-17.17 -15.76)"/><path class="cls-10" d="M191.61,548.31v-3.2c0-3.69,3.44-10.37,3.44-12.83s9.5,2,9.5,2a11.84,11.84,0,0,0,3.27,7.14,9.13,9.13,0,0,1,2.31,6.89Z" transform="translate(-17.17 -15.76)"/><path class="cls-10" d="M256.49,548.31l-1.64-.77-.77.77h-6.27c-.63-1.81-2.75-8.67-.83-13.43,2.22-5.52,9.1-4,9.1-4s4.67,6.52,7.37,7.68,13,5.34,14.25,8c.36.8-.26,1.35-.08,1.75Z" transform="translate(-17.17 -15.76)"/><path class="cls-5" d="M208.51,345.88l-19.57,2.39L174.5,350c-2.52,14,14.44,94.14,14.44,94.14l3.5,91.07a14.43,14.43,0,0,0,12.75,0s8.29-79.44,8.29-91.07c0-14.69-6.18-60.28-6.18-60.28a1,1,0,0,1,.64-.91h0a.81.81,0,0,1,.38-.08l.17,0Z" transform="translate(-17.17 -15.76)"/><path class="cls-7" d="M259.26,533.16s-2.07,3.36-13.81,1.59l-10.38-89.39-25.77-61.8c-.46-.17-.91-.38-1.34-.58h0c-15.14-7.05-18.34-26.18-19-34.71l46.48-5.67c2.05,29.73,20.65,71.72,23.7,96.33C262,462.31,259.26,533.16,259.26,533.16Z" transform="translate(-17.17 -15.76)"/><path class="cls-13" d="M269.45,249.7s8.33.6,7.43,2.36-7.66.2-7.66.2A2.61,2.61,0,0,1,269.45,249.7Z" transform="translate(-17.17 -15.76)"/><path class="cls-11" d="M277.18,234.55c-.7-9.3-22.14-6.5-24.56-.92s-6.61,24.21,5.87,30.14C271.55,270,277.82,243,277.18,234.55Z" transform="translate(-17.17 -15.76)"/><path class="cls-9" d="M265.53,252.13s.92,11.78-4.57,12.44S250.07,246.91,265.53,252.13Z" transform="translate(-17.17 -15.76)"/><path class="cls-11" d="M261.08,262.31a94.7,94.7,0,0,0-4.33,13.81s-5.58,3.33-13.6-7.2c0,0,5.74-10.42,6-15.77l1.26-.86A12.1,12.1,0,0,1,261.08,262.31Z" transform="translate(-17.17 -15.76)"/><path class="cls-21" d="M278.78,233.5s2.29.4,1.69-.74-5.72-6.29-15.61-8.5c-24.07-5.36-23.05,24.08-15.71,28.89,9.76,6.41,16.38-1,16.38-1-.58-2.13,1.55-7.52,3.5-6.77a2,2,0,0,1,1.4,2.43c4-5.36,5.22-9.3,5.57-11.44a15.29,15.29,0,0,0,4.38,1.69C282.54,238.1,278.78,233.5,278.78,233.5Z" transform="translate(-17.17 -15.76)"/><path class="cls-17" d="M244.58,328.12s40-41.18,28.11-52.89c-13.19-12.92-41.32-17.91-53.41-12.7-10.47,4.52-30.6,35.32-36.61,52.23-7.72,21.72-9,38.22-9,38.22s1.2,7.79,19.61,13.89c23,7.62,41.76-7.89,41.76-7.89Z" transform="translate(-17.17 -15.76)"/><path class="cls-9" d="M281.29,318.67l-.05,0c.07.18.12.38.17.56Z" transform="translate(-17.17 -15.76)"/><path class="cls-26" d="M271,273.67s5.62,2.95,24.68,26.23c0,0-2.22,12.51-18.7,14.83l-17.77-9.84S261.74,276.4,271,273.67Z" transform="translate(-17.17 -15.76)"/><path class="cls-21" d="M274.82,228.1s9.54.67,8.18,15.13-14,4.09-14,4.09,3.63-3.58,2.1-11.07S274.82,228.1,274.82,228.1Z" transform="translate(-17.17 -15.76)"/><rect class="cls-27" x="296.48" y="244.83" width="11.84" height="21.1" rx="0.42" transform="translate(540.61 -62.79) rotate(90)"/><polygon class="cls-4" points="276.48 244.72 276.48 234.52 293.98 234.52 293.98 244.72 276.48 244.72"/><path class="cls-26" d="M263.59,268.65A51.34,51.34,0,0,0,246.07,257c-11.07-4.45-25.19,1.28-22.81,11.61s33.7,0,33.7,0A21.45,21.45,0,0,1,263.59,268.65Z" transform="translate(-17.17 -15.76)"/><path class="cls-8" d="M373.55,284.93s9.45,20.14,9.79,28.34-8.74,38.6-8.74,38.6H338.37l-.64-53.62Z" transform="translate(-17.17 -15.76)"/><rect class="cls-27" x="380.08" y="253.48" width="11.84" height="21.1" rx="0.42"/><rect class="cls-4" x="380.9" y="254.79" width="10.2" height="17.5"/><path class="cls-10" d="M346.12,526.35s-1.12-2.52,3.44-2.18,5.32,1,5.64,11.38h-5.33Z" transform="translate(-17.17 -15.76)"/><path class="cls-9" d="M340.6,344s-19.8,16.46-14.6,45.75c0,0,0,.3-.05.83h0a134.55,134.55,0,0,0,.25,22.35v.1c.05.48.1.95.16,1.41l0,.16c.06.45.11.89.17,1.32l0,.17c.06.43.12.85.19,1.27l0,.14c.07.42.14.84.21,1.24l0,.11c.07.42.15.84.23,1.24h0c.81,4.18,1.8,7.6,2.72,10.9l.18.63.21.76c.16.62.33,1.24.49,1.86,0,.09.05.18.07.28.17.69.34,1.38.5,2.08a.59.59,0,0,1,0,.13c.17.75.32,1.51.46,2.29,1.66,9.24-3.05,22.63,1.7,37.52.09.27.18.58.27.91a2.29,2.29,0,0,1,.08.28c.08.27.16.56.24.86l.06.23c.1.39.21.79.31,1.21,0,.09.05.19.07.28.09.35.18.72.27,1.1,0,.12,0,.24.08.36l.34,1.46,0,.12c.1.47.21,1,.32,1.46,0,.15.06.3.1.45.1.45.2.92.3,1.39l.06.3c.12.58.24,1.16.37,1.76,0,.13.05.26.08.39.1.5.21,1,.31,1.52,0,.14.06.27.08.41.13.63.26,1.26.38,1.9l.05.22.33,1.7.12.59.3,1.56c0,.14,0,.28.08.42.12.64.25,1.28.37,1.93,0,.18.07.37.1.55l.3,1.56.09.49.36,1.93c0,.21.07.41.11.62l.24,1.29.15.85c.08.41.15.81.23,1.22s.1.59.16.89l.27,1.48.15.84.18,1c.05.3.1.61.16.9s0,.27.07.41c.13.73.26,1.45.38,2.16l.09.48c.06.37.13.74.19,1.1,0,.07,0,.15,0,.22.14.82.28,1.61.41,2.37h0c.91,5.23,1.5,8.75,1.5,8.75v17.44h11.74s-4.62-19.3-4.62-26.56c0-31.31-4.32-68.64-3.68-82.84,0-.68.07-1.4.12-2.15,0-.11,0-.23,0-.34q.08-1.08.18-2.22l0-.43c.07-.78.14-1.58.22-2.39l0-.28c.09-.83.17-1.68.27-2.54V426c.1-.89.2-1.78.31-2.69l0-.34.33-2.69,0-.27c.24-1.92.5-3.84.76-5.72,0,0,4.1-26.4,7.34-28.31,1.95-1.15,17.67-43.6,17.67-43.6Z" transform="translate(-17.17 -15.76)"/><path class="cls-11" d="M420.12,545.9a8.39,8.39,0,0,0-3.05-1.61l-.06,0c-2.3-1.85-8.19-9.8-9.4-13.8-1-3.42-2.2-7.63-3.41-12.3-.53-2-1.08-4.2-1.63-6.41-.05-.19-.09-.38-.14-.57-.16-.64-.32-1.3-.48-1.95-.05-.21-.11-.42-.16-.64q-.24-1-.48-2c-.05-.19-.1-.39-.14-.59-.76-3.14-1.53-6.35-2.28-9.58l-.06-.26-.51-2.2c0-.18-.08-.36-.13-.54-.16-.73-.33-1.46-.5-2.19l-.09-.39c-.17-.76-.34-1.51-.52-2.27l0-.15q-.81-3.58-1.58-7c0-.14-.07-.28-.1-.42q-.21-1-.42-1.92l-.15-.67c-.14-.61-.27-1.22-.4-1.82,0-.24-.1-.47-.16-.7-.12-.59-.25-1.18-.38-1.76-.05-.22-.09-.44-.14-.66-.39-1.8-.77-3.53-1.12-5.18-.07-.31-.13-.63-.2-.93s-.17-.79-.25-1.19l-.21-1c-.08-.36-.15-.73-.23-1.08l-.21-1c-.07-.33-.13-.65-.2-1l-.21-1c-.06-.27-.12-.55-.17-.81-.12-.57-.23-1.13-.34-1.66,0-.09,0-.17-.05-.25-.09-.45-.18-.88-.26-1.3,0-.18-.07-.35-.11-.52s-.11-.58-.17-.85l-.09-.5c-.06-.27-.1-.52-.15-.76s-.05-.25-.07-.37-.09-.47-.13-.68a2.16,2.16,0,0,0-.05-.27c-.05-.28-.09-.53-.13-.74s-.07-.5-.11-.79c0-.11,0-.23-.05-.35s0-.4-.07-.62,0-.32-.05-.48,0-.42-.07-.65,0-.41,0-.63,0-.41-.06-.64-.05-.53-.07-.81,0-.38,0-.57q0-.55-.09-1.14a1.79,1.79,0,0,1,0-.23c-.47-5.89-1.06-14.5-2.05-24.3-.4-17.18-2.38-56.45-12-78.75l-22.71.53c.92,17.71-16.25,36.82,4.65,57.29l.19.54.12.32c0,.16.11.32.17.49s.11.32.17.49l.19.52c.06.19.13.38.2.58s.13.37.2.57.15.43.22.65l.21.59q.21.63.45,1.29a.75.75,0,0,0,0,.16l.43,1.25.18.53.33,1c.06.2.13.39.2.59s.22.67.34,1,.13.42.2.63.24.7.36,1.06c.06.19.13.38.19.58.16.49.32,1,.49,1.47,0,.08.05.15.07.23.19.59.39,1.18.58,1.78l.11.35c.15.47.31.95.46,1.43.06.2.13.39.19.59l.39,1.23c.06.21.13.43.2.64.13.43.26.85.4,1.28.05.19.11.37.17.56.14.47.28.94.43,1.41.05.15.09.31.14.47.37,1.24.74,2.47,1.09,3.7l.15.51c.13.44.25.88.37,1.31.06.21.12.41.17.61q.18.6.33,1.2l.18.64c.1.39.21.78.31,1.17l.15.59c.12.46.24.92.35,1.37l.09.33c.14.56.27,1.12.4,1.66,0,.12,0,.23.07.34.1.42.2.83.29,1.24,0,.18.07.35.11.53l.21,1c0,.18.07.36.11.55s.12.61.17.91.07.35.1.52.1.61.14.9.05.29.07.43c.06.43.12.84.17,1.23,1.54,13.48,4,19.45,11.85,34.49l1.11,2.21.31.63c.28.58.56,1.16.83,1.75l.27.56c.34.75.69,1.5,1,2.26l.18.42c.28.63.56,1.26.82,1.9.1.22.2.45.29.67.26.63.53,1.27.78,1.9l.17.41c.31.77.61,1.54.91,2.3.07.19.14.38.22.57.22.59.45,1.19.67,1.79l.24.63c.56,1.53,1.1,3,1.61,4.52.07.22.15.43.22.64.19.58.39,1.15.58,1.72l.18.53c.24.73.47,1.45.7,2.17l.11.35c.19.6.38,1.2.56,1.79l.18.59c.19.59.36,1.18.54,1.76l.09.29c.2.67.39,1.34.58,2l.14.47c.14.51.29,1,.43,1.5,0,.17.09.33.14.49.17.62.34,1.22.5,1.81h0c1.3,4.74,2.2,8.52,2.71,10.67a6.63,6.63,0,0,1-.32,1.63c-.59,2-2,6.22-2.4,8-.54,2.26,1.25,8.3,1.77,9.62h1.47c0-1.11.22-5.79,1.4-6.82,0,0,3.8-.71,5.78,2.45a17,17,0,0,0,2.43,3.18h12.55A6.52,6.52,0,0,0,420.12,545.9Z" transform="translate(-17.17 -15.76)"/><path class="cls-17" d="M325.15,390.58h0c-.27,4.48-.86,6.94-.83,10.48,0,0,2.45,1.61,12,2.48,10.92,1,16.32-1,16.32-1,1.47-7.31,1.74-15.51,3.49-16.55,1.95-1.15,17.68-43.6,17.68-43.6l-34,1.58S320,360.46,325.19,389.75C325.19,389.75,325.17,390.05,325.15,390.58Z" transform="translate(-17.17 -15.76)"/><path class="cls-26" d="M355.14,400.24l.82,2.33s4.64,1.61,14.31.7c10.82-1,16-3.4,16-3.4,1.23-22.76-3.7-41.35-10.66-57.45l-25.14.53C351.4,360.66,334.23,379.77,355.14,400.24Z" transform="translate(-17.17 -15.76)"/><path class="cls-11" d="M344.16,232.61s20.77-4.52,23.26,10-3.2,28.83-13.94,27.29C340.23,268,327.74,238.84,344.16,232.61Z" transform="translate(-17.17 -15.76)"/><path class="cls-9" d="M355.44,269.76s-1.31,4,1,6.54c0,0,1.55,1.94-1.3,3.46-9,4.76-18.66,1.79-18.66,1.79,4.12-9.15,4-22,4-22C342,260.82,347.54,259.45,355.44,269.76Z" transform="translate(-17.17 -15.76)"/><path class="cls-8" d="M340.33,263.68A14.93,14.93,0,0,1,352,265.77s5.71-3.09,7.41-6.47c0,0,.94-6.73,3.15-8.65s2.09,4.47,2.09,4.47a19.39,19.39,0,0,0,4.78-13.83c-.63-8.17-5.84-9.27-5.84-9.27s-10.37-6.65-18.68-2.8S323.55,242.39,340.33,263.68Z" transform="translate(-17.17 -15.76)"/><path class="cls-11" d="M400.17,294.57s-1.61-4.77-1.42-5.56.79-5.52.79-5.52,1.49.46,1.28,2.73.59,2.18.59,2.18,2.81-2.1,4.08-3.07,3.44-1.68,4.13-1.27-.64,1.22-.64,1.22,2.69-.75,2,.85-.87.9-.51,2.41-.92,2.53-1,3.54-2.85,3.84-5.13,5.75S400.17,294.57,400.17,294.57Z" transform="translate(-17.17 -15.76)"/><path class="cls-10" d="M394.12,548.31s-2.07-8.74,0-15.17-1.38-8.28,1.38-9.2,6.92,2.53,8.75,6.44c0,0-.7-7.59,4.35-7.59s1.15,7.13,1.61,9.43,4.83,9.19,7.59,10.11,5.28,1.61,4.82,6Z" transform="translate(-17.17 -15.76)"/><path class="cls-10" d="M346.66,525.33c6.38-.14,8.54,10.22,8.54,10.22s3.52,8.62,3.52,12.76H340.57a10,10,0,0,1,1-6.55C343.09,539.34,338.27,525.53,346.66,525.33Z" transform="translate(-17.17 -15.76)"/><path class="cls-20" d="M370.3,278.56s4.79,6.91,7.87,21.49c2.79,13.22-6.29,97.66-6.29,97.66a335.25,335.25,0,0,1-58-5.45s10.08-30.41,10.44-43.34,5.13-26.55,5.13-26.55-11.57-17.06-12.48-26-.91-12.27,5.67-18.1c0,0,28.26-.26,32.57-1.86S370.3,278.56,370.3,278.56Z" transform="translate(-17.17 -15.76)"/><path class="cls-11" d="M367.74,278.58s-6.8,11.84,0,18.54c2.09,2.05,21.81,34.55,32.53,31.38,0,0,2.57.94,4.18-32.42l-3.69-2.92-5.63,18a45.44,45.44,0,0,1-7.82-10.46C380.88,288.52,376.87,278,367.74,278.58Z" transform="translate(-17.17 -15.76)"/><path class="cls-8" d="M361.26,252.44c-1.18,13.33-7.08,19.14-3,29.33S339.39,305,328.12,300.05s3.6-29.33,2.46-44.8.92-29.32,19.29-29.32c24.51,0,30.64,29.32,14.73,29.19,0,0,1.65-9-.87-10.6S361.26,252.44,361.26,252.44Z" transform="translate(-17.17 -15.76)"/><polygon class="cls-4" points="303.05 42.07 300.8 41.71 275.94 37.75 297.7 44.98 297.26 46.24 296.46 48.54 298.71 48.9 323.57 52.86 301.8 45.63 302.24 44.37 303.05 42.07"/><polygon class="cls-4" points="329.72 19.45 328.12 17.84 310.36 0 323.7 18.66 322.6 19.42 320.59 20.8 322.2 22.42 339.96 40.26 326.62 21.6 327.72 20.84 329.72 19.45"/><polygon class="cls-4" points="306.39 69.92 304.21 70.56 280.05 77.63 302.81 74.83 302.95 76.16 303.21 78.58 305.4 77.95 329.56 70.87 306.79 73.67 306.65 72.34 306.39 69.92"/><circle class="cls-26" cx="238.02" cy="126.13" r="18.4" transform="translate(-48.5 106.72) rotate(-27.14)"/><path class="cls-24" d="M233.13,121.77l.92.44a2.32,2.32,0,0,0,3.08-1.12l2.84-6a.57.57,0,0,1,.76-.27h0a3.38,3.38,0,0,1,1.63,4.5l-1.74,3.7,5,2.34a3.14,3.14,0,0,1,1.51,4.19l-3.64,7.76a3.16,3.16,0,0,1-4.2,1.52l-4.14-1.95a7.62,7.62,0,0,1-2.94-2.43h0a7.65,7.65,0,0,0-2.95-2.43l-.74-.35Z" transform="translate(-17.17 -15.76)"/><path class="cls-28" d="M228.73,120.2H231a0,0,0,0,1,0,0v12.44a0,0,0,0,1,0,0h-2.27a.18.18,0,0,1-.18-.18V120.38a.18.18,0,0,1,.18-.18Z" transform="translate(366.86 322.72) rotate(-154.85)"/><path class="cls-26" d="M327.45,166.18a15,15,0,1,0,5-20.61A15,15,0,0,0,327.45,166.18Z" transform="translate(-17.17 -15.76)"/><path class="cls-24" d="M335,159.12l.76-.34a1.89,1.89,0,0,0,.94-2.5l-2.24-5a.46.46,0,0,1,.23-.62h0a2.76,2.76,0,0,1,3.65,1.38l1.37,3,4.09-1.85a2.57,2.57,0,0,1,3.4,1.28l2.88,6.37a2.56,2.56,0,0,1-1.28,3.4l-3.4,1.54a6.24,6.24,0,0,1-3.07.54h0a6.34,6.34,0,0,0-3.07.53l-.6.28Z" transform="translate(-17.17 -15.76)"/><path class="cls-28" d="M335.22,158.59h1.85a0,0,0,0,1,0,0v10.14a0,0,0,0,1,0,0h-1.85a.15.15,0,0,1-.15-.15v-9.84A.15.15,0,0,1,335.22,158.59Z" transform="translate(692.55 158.47) rotate(155.66)"/><circle class="cls-17" cx="147.76" cy="174.7" r="10.94"/><path class="cls-28" d="M161.05,190.18l.59-.13a1.37,1.37,0,0,0,1.05-1.64l-.84-3.89a.33.33,0,0,1,.25-.4h0a2,2,0,0,1,2.4,1.54L165,188l3.2-.7a1.87,1.87,0,0,1,2.23,1.44l1.09,5A1.87,1.87,0,0,1,170.1,196l-2.66.58a4.48,4.48,0,0,1-2.27-.08h0a4.47,4.47,0,0,0-2.27-.08l-.47.1Z" transform="translate(-17.17 -15.76)"/><path class="cls-28" d="M161.22,197.35l1.32-.28.08-.13-1.53-7-.13-.08-1.32.29Z" transform="translate(-17.17 -15.76)"/><path class="cls-17" d="M174.15,98A10.95,10.95,0,1,0,180.88,84,11,11,0,0,0,174.15,98Z" transform="translate(-17.17 -15.76)"/><path class="cls-28" d="M180.6,94.06l.59-.13a1.37,1.37,0,0,0,1.05-1.64l-.84-3.89a.33.33,0,0,1,.26-.4h0a2,2,0,0,1,2.39,1.54l.52,2.37,3.2-.69A1.87,1.87,0,0,1,190,92.65l1.09,5a1.88,1.88,0,0,1-1.43,2.24l-2.67.58a4.6,4.6,0,0,1-2.27-.09h0a4.71,4.71,0,0,0-2.27-.08l-.47.1Z" transform="translate(-17.17 -15.76)"/><path class="cls-28" d="M180.77,101.24l1.32-.29.08-.13-1.53-7-.13-.08-1.32.29Z" transform="translate(-17.17 -15.76)"/><circle class="cls-8" cx="209.64" cy="174" r="18.4"/><path class="cls-24" d="M226.65,186.69s4.72-7.19,8.17-2.67c5.5,7.22-8.17,15.7-8.17,15.7s-12.05-7.95-8.49-14.15C221.89,179.08,226.65,186.69,226.65,186.69Z" transform="translate(-17.17 -15.76)"/><circle class="cls-8" cx="163.5" cy="147.67" r="15" transform="translate(-59.13 52.37) rotate(-20.93)"/><path class="cls-24" d="M164.37,145.33s5.87-3.85,7,.65c1.76,7.19-11.21,9.09-11.21,9.09s-6.42-9.87-1.75-13.34C163.28,138.09,164.37,145.33,164.37,145.33Z" transform="translate(-17.17 -15.76)"/><path class="cls-6" d="M286,174.1a9.76,9.76,0,1,0,12.3-6.25A9.77,9.77,0,0,0,286,174.1Z" transform="translate(-17.17 -15.76)"/><path class="cls-28" d="M295.72,175.55s3.56-2.85,4.56,0c1.58,4.54-6.7,6.57-6.7,6.57s-4.77-6-2-8.53S295.72,175.55,295.72,175.55Z" transform="translate(-17.17 -15.76)"/><path class="cls-6" d="M252.64,88.4a9.75,9.75,0,1,0,6.64-12.08A9.75,9.75,0,0,0,252.64,88.4Z" transform="translate(-17.17 -15.76)"/><path class="cls-28" d="M261.47,84.14s1.33-4.36,3.76-2.57c3.87,2.87-1.84,9.21-1.84,9.21s-7.31-2.27-6.41-6C257.91,81,261.47,84.14,261.47,84.14Z" transform="translate(-17.17 -15.76)"/><path class="cls-6" d="M85.77,165.52a9.75,9.75,0,1,0,.54-13.78A9.75,9.75,0,0,0,85.77,165.52Z" transform="translate(-17.17 -15.76)"/><path class="cls-28" d="M91.76,157.77s-.75-4.5,2.22-4c4.74.83,2.47,9.05,2.47,9.05s-7.55,1.24-8.4-2.45C87.17,156.52,91.76,157.77,91.76,157.77Z" transform="translate(-17.17 -15.76)"/></svg>