<svg id="Layer_1" data-name="Layer 1" xmlns="http://www.w3.org/2000/svg" viewBox="0 0 747.57 526.81"><defs><style>.cls-1{fill:#f0e5f1;}.cls-2{fill:#dec9e2;}.cls-12,.cls-3{fill:#112029;}.cls-27,.cls-29,.cls-3{opacity:0.2;}.cls-4{fill:#fbc0ad;}.cls-5{fill:#fcb65e;}.cls-22,.cls-6{fill:#fff;}.cls-10,.cls-18,.cls-29,.cls-7{fill:#0e1324;}.cls-24,.cls-26,.cls-31,.cls-8{fill:none;}.cls-8{stroke:#fff;stroke-width:1.04px;}.cls-24,.cls-25,.cls-31,.cls-8{stroke-linecap:round;}.cls-22,.cls-26,.cls-8{stroke-miterlimit:10;}.cls-27,.cls-9{fill:#323369;}.cls-10{opacity:0.3;}.cls-11{fill:#52528e;}.cls-13{fill:#fdd1ae;}.cls-14{fill:#e19480;}.cls-15{fill:#f48080;}.cls-16{fill:#c05151;}.cls-17{fill:#f7f8f8;}.cls-18{opacity:0.1;}.cls-19{fill:#fdd8c9;}.cls-20{fill:#403f77;}.cls-21{fill:#ffd8a2;}.cls-22,.cls-26{stroke:#8589c3;stroke-width:1.88px;}.cls-23{fill:#8589c3;}.cls-24,.cls-25{stroke:#ced6ed;}.cls-24,.cls-25,.cls-31{stroke-linejoin:round;}.cls-24{stroke-width:2.04px;}.cls-25{fill:#ced6ed;stroke-width:1.51px;}.cls-28{fill:#e3b89a;}.cls-30{fill:#fcb857;}.cls-31{stroke:#fcb65e;stroke-width:6.57px;}</style></defs><title>hero-banner</title><circle class="cls-1" cx="202.14" cy="211.74" r="195.44"/><circle class="cls-2" cx="211.82" cy="203.03" r="195.44"/><circle class="cls-2" cx="477.89" cy="193.35" r="35.8"/><circle class="cls-1" cx="194.4" cy="465.23" r="35.8"/><circle class="cls-2" cx="202.14" cy="469.1" r="35.8"/><circle class="cls-1" cx="85.07" cy="312.36" r="17.42"/><ellipse class="cls-3" cx="373.78" cy="507.47" rx="373.78" ry="19.34"/><polygon class="cls-4" points="166.67 442.32 167.97 488.34 151.25 496.43 147.63 447.44 166.67 442.32"/><path class="cls-5" d="M150.87,502.78l4.75,3.45,18.23-2-1.23,16.84L117.81,521s-1.14-2.43,2.2-6.16C124.37,510,150.87,502.78,150.87,502.78Z" transform="translate(-2.57 -19.57)"/><path class="cls-6" d="M132.58,508.55c-5.65,2.06-10.84,4.34-12.57,6.26-3.34,3.73-2.2,6.16-2.2,6.16l20.42,0C136.53,516.79,134.66,512.63,132.58,508.55Z" transform="translate(-2.57 -19.57)"/><polygon class="cls-6" points="115.04 498.08 115.23 501.39 170.05 501.53 170.31 497.58 115.04 498.08"/><polygon class="cls-7" points="114.98 499.02 115.04 499.94 170.13 499.67 170.25 498.59 114.98 499.02"/><polygon class="cls-5" points="144.82 485.8 146.59 478.02 155.07 482.03 153.11 490.59 144.82 485.8"/><line class="cls-8" x1="134.6" y1="487.21" x2="137.66" y2="491.4"/><line class="cls-8" x1="137.61" y1="486.02" x2="140.67" y2="490.2"/><line class="cls-8" x1="141.14" y1="484.44" x2="144.45" y2="488.45"/><polygon class="cls-4" points="105.55 442.36 101.5 488.25 83.95 494.58 86.04 445.5 105.55 442.36"/><path class="cls-5" d="M84.2,502.78l4.74,3.45,18.23-2-1.23,16.84L51.13,521s-1.14-2.43,2.2-6.16C57.69,510,84.2,502.78,84.2,502.78Z" transform="translate(-2.57 -19.57)"/><path class="cls-6" d="M65.9,508.55c-5.65,2.06-10.84,4.34-12.57,6.26-3.34,3.73-2.2,6.16-2.2,6.16l20.43,0C69.85,516.79,68,512.63,65.9,508.55Z" transform="translate(-2.57 -19.57)"/><polygon class="cls-6" points="48.36 498.08 48.56 501.39 103.37 501.53 103.63 497.58 48.36 498.08"/><polygon class="cls-7" points="48.31 499.02 48.37 499.94 103.45 499.67 103.57 498.59 48.31 499.02"/><polygon class="cls-5" points="78.14 485.8 79.91 478.02 88.4 482.03 86.43 490.59 78.14 485.8"/><line class="cls-8" x1="67.93" y1="487.21" x2="70.98" y2="491.4"/><line class="cls-8" x1="70.93" y1="486.02" x2="73.99" y2="490.2"/><line class="cls-8" x1="74.46" y1="484.44" x2="77.78" y2="488.45"/><path class="cls-9" d="M165.32,278.13s13.87,185.13,7.09,220.37c0,0-14.11,5.42-25.11-3.18,0,0-18.36-148.21-19.74-167.25L118.63,327s-4.88,158.5-8.37,165.43c0,0-16.61,7.64-27.52.15L84.94,275Z" transform="translate(-2.57 -19.57)"/><path class="cls-10" d="M84.81,287.45l.13-12.5,80.38,3.18s.86,12.47,1.29,18.53C123.15,300.14,96.53,289,84.81,287.45Z" transform="translate(-2.57 -19.57)"/><path class="cls-10" d="M118.63,327s-4.88,158.5-8.37,165.43c0,0-16.61,7.64-27.52.15l1.71-169.69Z" transform="translate(-2.57 -19.57)"/><path class="cls-11" d="M112,486.69s-17.68,1.95-30.68-1.63l-.35,8.62s7.8,6.51,29.82,1.95Z" transform="translate(-2.57 -19.57)"/><path class="cls-11" d="M144.71,490.29l.34,9.51s16.08,3.91,29.15-1l.5-9S156.28,491.82,144.71,490.29Z" transform="translate(-2.57 -19.57)"/><path class="cls-12" d="M178.26,134.07s-8.09,11.77-14.24,12.3,5.72-15.93,5.72-15.93Z" transform="translate(-2.57 -19.57)"/><polygon class="cls-13" points="165.64 115.01 158.67 147.93 138.29 167.62 132.28 142.95 138.68 118.3 165.64 115.01"/><path class="cls-13" d="M172.48,86.1c15.12,8.76,10.9,18.79,10.9,18.79a89.19,89.19,0,0,1-5,15.52,6.12,6.12,0,0,1,7.32.55c4.77,4-4.93,17.37-12.89,13.21a54.23,54.23,0,0,1-7.41,11.12c-4.06,3.74-19.12,6.65-29,6-14.37-1-18.27-15.77-15.48-25.92,3.87-14,20.14-44,20.14-44S147.45,71.6,172.48,86.1Z" transform="translate(-2.57 -19.57)"/><path class="cls-12" d="M177.43,90.19c4.25,1.39,9.87,9.9,14.16,11.2l-.08.07c-1.35,1.5-7.74,18.47-7.74,18.47-4.35-1.21-5.43,2.34-5.43,2.34l-3.25,7-2.9-1.38,4.23-15.73A8.05,8.05,0,0,1,174,107S177.07,93.12,177.43,90.19Z" transform="translate(-2.57 -19.57)"/><path class="cls-12" d="M177.63,118.66s-5.23-6.48-4.81-14.14,1.68-11.38,1.68-11.38-9.84,5.69-25.95,1.18l7.11-2.95s-18,.39-25.94-7.07l5.44-.39a20,20,0,0,1-9.42-11.58L132,73.9s-4.81-4.12,1.67-10.8c0,0,1.05,5.69,6.91,6.09,0,0-3.14-3.73,2.93-7.86,0,0-3.14,5.89,4,6.68,5.3.58,30.76-8.84,37.25,13,0,0,14,1.87,12.55,18.06-1,11.58-11.59,21.93-11.59,21.93s-4.1-4.26-7.87,2Z" transform="translate(-2.57 -19.57)"/><path class="cls-14" d="M145.37,105.16c-.94,1.66-1.92,3.32-2.93,4.94s-2,3.25-3.07,4.85c-2.1,3.2-4.23,6.37-6.47,9.48l0-.47L135,126.5c.66.87,1.36,1.71,2,2.6-.81-.74-1.58-1.52-2.37-2.28l-2.29-2.35-.2-.2.17-.27c2-3.24,4.15-6.42,6.32-9.58q1.62-2.36,3.32-4.67T145.37,105.16Z" transform="translate(-2.57 -19.57)"/><path class="cls-7" d="M165.44,107.33c-1.19-.68-2.24-1.29-3.31-1.83a22.26,22.26,0,0,0-3.14-1.34,16.84,16.84,0,0,0-3.28-.76c-1.16-.21-2.36-.19-3.76-.35a7.42,7.42,0,0,1,3.69-1.75,8.23,8.23,0,0,1,4.2.33,9.11,9.11,0,0,1,3.55,2.19A7.5,7.5,0,0,1,165.44,107.33Z" transform="translate(-2.57 -19.57)"/><path class="cls-7" d="M144.65,100.75c-1-.76-1.86-1.41-2.73-2a10.55,10.55,0,0,0-2.56-1.2,9.42,9.42,0,0,0-2.77-.38c-.51-.06-1,.06-1.6,0s-1.12.12-1.77.1a7.79,7.79,0,0,1,1.3-1.33c.26-.17.53-.33.8-.49a3.47,3.47,0,0,1,.88-.39,6.16,6.16,0,0,1,3.94-.1,6.33,6.33,0,0,1,3.22,2.23A5.89,5.89,0,0,1,144.65,100.75Z" transform="translate(-2.57 -19.57)"/><path class="cls-15" d="M129.59,129.89s11.63,3.71,20.6,5.46c0,0-8.87,6.16-16.75,2.56C128.6,135.7,129.59,129.89,129.59,129.89Z" transform="translate(-2.57 -19.57)"/><path class="cls-16" d="M141.51,135.25a10.74,10.74,0,0,1,5.78,1.71,22.76,22.76,0,0,0,2.9-1.61c-9-1.75-20.6-5.46-20.6-5.46s-1,5.81,3.85,8a13.5,13.5,0,0,0,1.52.58A8.32,8.32,0,0,1,141.51,135.25Z" transform="translate(-2.57 -19.57)"/><path class="cls-12" d="M151.15,111.53a7.23,7.23,0,0,0,.56,3.31,3.59,3.59,0,0,0,2.33,1.92,3.5,3.5,0,0,0,3-.37,8.15,8.15,0,0,0,2.32-2.45,5.77,5.77,0,0,1-1.9,3,4.15,4.15,0,0,1-1.74.8,4.47,4.47,0,0,1-1.93-.13,4.07,4.07,0,0,1-2.74-2.55A5.41,5.41,0,0,1,151.15,111.53Z" transform="translate(-2.57 -19.57)"/><path class="cls-12" d="M132.39,106.19a8.25,8.25,0,0,0,.22,3.31,2.63,2.63,0,0,0,2.15,1.82,3.43,3.43,0,0,0,2.84-.83,11.48,11.48,0,0,0,2.25-2.49,7,7,0,0,1-1.78,3,3.86,3.86,0,0,1-3.47,1.19,3.36,3.36,0,0,1-1.74-.85,3.18,3.18,0,0,1-.93-1.67A5.78,5.78,0,0,1,132.39,106.19Z" transform="translate(-2.57 -19.57)"/><path class="cls-13" d="M79.66,115.07s-7.87-5.45-7-8.51,2.55-3.18,2.55-3.18S73.73,96.73,78.28,98c0,0,0-5.94,5.22-3.38S99.67,101,98.37,106.5s-10.71,15.1-10.71,15.1Z" transform="translate(-2.57 -19.57)"/><path class="cls-9" d="M91,96.41,61,120.82s8.22,7.82,8.83,7,25.64-25.28,25.64-25.28Z" transform="translate(-2.57 -19.57)"/><path class="cls-17" d="M46.4,35.73A11,11,0,0,0,48,51.89a12.79,12.79,0,0,0,17.22-1.54,11,11,0,0,0-1.64-16.16A12.79,12.79,0,0,0,46.4,35.73Z" transform="translate(-2.57 -19.57)"/><path class="cls-17" d="M85,23.61S82.73,55.05,109,77L89.54,96.12S51.37,68.52,30.86,70.19Z" transform="translate(-2.57 -19.57)"/><path class="cls-9" d="M34.6,75.71a5.57,5.57,0,0,0,4.81-2.66C55,46.81,88.81,29.44,89.15,29.27a5,5,0,0,0,2.23-7,5.69,5.69,0,0,0-7.45-2.09c-1.51.76-37,19-54.13,47.85a5,5,0,0,0,2.13,7A5.78,5.78,0,0,0,34.6,75.71Z" transform="translate(-2.57 -19.57)"/><path class="cls-17" d="M103.84,92.43c-5.13,5.65-10.19,9-4.38,13.65a14.76,14.76,0,0,0,19.84-1.82,12.68,12.68,0,0,0-1.24-18.67C112.24,81,109,86.77,103.84,92.43Z" transform="translate(-2.57 -19.57)"/><polygon class="cls-9" points="106.47 53.97 82.31 75.85 95.28 88.48 119.56 65.57 106.47 53.97"/><path class="cls-13" d="M83.6,95.58s24.94,23.07-.48,6.32c0,0,9.15,6.7,6.73,8.42s-11-5.53-11-5.53,9.16,7.63,8.2,8.72-12.25-5-12.25-5l1.54-4.7Z" transform="translate(-2.57 -19.57)"/><path class="cls-5" d="M168.85,157.4l-34.6-4.19L132,163.16,70.64,149,92.4,120.75,74,110.81S31,149,33.26,160.54s58.59,34,58.59,34-9.49,66-12.28,86.38c0,0,40.17,11,87.6,6.81,0,0,37.4-97.38,36.84-104.18s-36.84-17.28-36.84-17.28Z" transform="translate(-2.57 -19.57)"/><path class="cls-18" d="M125.26,243.8c22.41-5.53,46.71-12.5,67.3-24.16-10.81,30.17-25.39,68.12-25.39,68.12-47.43,4.18-87.6-6.81-87.6-6.81.86-6.29,2.35-16.9,4-28.57Q104.57,248.92,125.26,243.8Z" transform="translate(-2.57 -19.57)"/><path class="cls-18" d="M101.79,170.34c-.33.61-.61,1.25-1,1.88-5.2,9.08-8.21,20.56-9,22.35-4.11-1.7-14.86-6.19-23.62-10.36A86.61,86.61,0,0,1,101.79,170.34Z" transform="translate(-2.57 -19.57)"/><path class="cls-19" d="M221.18,255.88s.21-15.14-2.14-21.19-20.91,13.14-20.91,13.14c-20.19,18.86-23.19,24.28-31.7,31.48-1.25-2.21-4.57-7.4-7.93-6.93,0,0-24,8.58-2.53,3.6,0,0-16.87,15,2.61,1.67,0,0-14.8,19,2.27,2.71,0,0-15.35,17.92.63,4.28,0,0-1.29,7.38,5.44,6.13a38.85,38.85,0,0,0,8.27-3.41C184.9,283,214.68,267.77,221.18,255.88Z" transform="translate(-2.57 -19.57)"/><path class="cls-5" d="M202.88,181s21.21,47.64,20.65,73.81c0,0-25.11,24.09-48.55,34.56l-8.37-13.09,28.46-28.79L182.8,219.18Z" transform="translate(-2.57 -19.57)"/><path class="cls-9" d="M214.48,496.48c0,6.94,6,12.57,13.4,12.57H588c7.4,0,13.4-5.63,13.4-12.57v-220c0-6.94-6-12.57-13.4-12.57H227.88c-7.4,0-13.4,5.63-13.4,12.57Z" transform="translate(-2.57 -19.57)"/><path class="cls-20" d="M114.8,517.23c0,4.34,6.14,7.86,13.72,7.86H687.37c7.57,0,13.71-3.52,13.71-7.86v-2.94c0-4.34-6.14-7.86-13.71-7.86H128.52c-7.58,0-13.72,3.52-13.72,7.86Z" transform="translate(-2.57 -19.57)"/><path class="cls-21" d="M229.53,475.66c0,6.86,5.93,12.42,13.24,12.42h331.7c7.31,0,13.24-5.56,13.24-12.42V287.84c0-6.86-5.93-12.42-13.24-12.42H242.77c-7.31,0-13.24,5.56-13.24,12.42Z" transform="translate(-2.57 -19.57)"/><path class="cls-9" d="M350.27,511.63H465.62c8,0,14.42,3.7,14.42,8.26v5.2H335.85v-5.2C335.85,515.33,342.3,511.63,350.27,511.63Z" transform="translate(-2.57 -19.57)"/><path class="cls-22" d="M258.51,388.92a3.83,3.83,0,0,0,3.95,3.7H407a3.83,3.83,0,0,0,3.95-3.7V297.06a3.83,3.83,0,0,0-3.95-3.7H262.46a3.83,3.83,0,0,0-3.95,3.7Z" transform="translate(-2.57 -19.57)"/><path class="cls-23" d="M258.51,300.76v-3.7a3.83,3.83,0,0,1,3.95-3.7H407a3.83,3.83,0,0,1,3.95,3.7v3.7Z" transform="translate(-2.57 -19.57)"/><path class="cls-6" d="M313.26,469.77a6.1,6.1,0,0,0,6.29,5.89H550a6.1,6.1,0,0,0,6.29-5.89V323.34a6.11,6.11,0,0,0-6.29-5.9H319.55a6.11,6.11,0,0,0-6.29,5.9Z" transform="translate(-2.57 -19.57)"/><path class="cls-5" d="M482.13,461V420.18A3.27,3.27,0,0,1,485.5,417h25.23a3.27,3.27,0,0,1,3.37,3.16V461Z" transform="translate(-2.57 -19.57)"/><path class="cls-23" d="M436.29,461V397.28a3.27,3.27,0,0,1,3.36-3.16h25.24a3.26,3.26,0,0,1,3.36,3.16V461Z" transform="translate(-2.57 -19.57)"/><path class="cls-5" d="M390.45,461V418a3.27,3.27,0,0,1,3.36-3.16h25.24a3.27,3.27,0,0,1,3.36,3.16v43Z" transform="translate(-2.57 -19.57)"/><path class="cls-23" d="M344.6,461V368.14A3.27,3.27,0,0,1,348,365H373.2a3.27,3.27,0,0,1,3.37,3.16V461Z" transform="translate(-2.57 -19.57)"/><polyline class="cls-24" points="328.46 440.92 524.8 440.92 524.8 323.18"/><polyline class="cls-24" points="510.75 368.88 459.69 340.13 417.27 361.5 354.51 319.57"/><polygon class="cls-25" points="365.42 319.55 352.7 316.99 357.69 327.67 365.42 319.55"/><path class="cls-23" d="M313.26,329.23v-5.89a6.11,6.11,0,0,1,6.29-5.9H550a6.11,6.11,0,0,1,6.29,5.9v5.89Z" transform="translate(-2.57 -19.57)"/><path class="cls-26" d="M313.26,469.77a6.1,6.1,0,0,0,6.29,5.89H550a6.1,6.1,0,0,0,6.29-5.89V323.34a6.11,6.11,0,0,0-6.29-5.9H319.55a6.11,6.11,0,0,0-6.29,5.9Z" transform="translate(-2.57 -19.57)"/><path class="cls-27" d="M443.28,263.88c-4.71,30.19-15.42,70.76-15.42,70.76a70.89,70.89,0,0,1-16.51-1.17c-4.24,9.22-8.84,18.44-12.86,24.78l1.24.87c1.56.88,14.27,8.17,15.45,13.06l0,0a3.27,3.27,0,0,1,.26,1.75c-.85,5.29-30.88-8.71-30.88-8.71l.15-1.62,0,0L385,361l.19.06,4.17-22.75c.49-3.63,1.05-7.38,1.65-11.08a82.34,82.34,0,0,1-8.74-4.28C386.4,306.68,396.76,271,396.76,271s-4.87.93-12.15,2c-6.7,29.6-19.25,67.6-19.25,67.6a71.58,71.58,0,0,1-17.44-2.32,197.4,197.4,0,0,1-12.61,17.94l1.12,1c1.37,1,12.66,9.35,13.62,14.39,0-.05.06-.09.08-.14a3.07,3.07,0,0,1,0,1.72c-1.52,5-29.6-11.8-29.6-11.8l.35-1.55.1.06.56-2.44.18.08,7-22.12c.34-1.26.68-2.53,1-3.81a81.9,81.9,0,0,1-9.25-5.13c5.12-16,17.66-51.06,17.66-51.06s-56.69,7.72-72.35-4.13a13.27,13.27,0,0,1-4.37-6.2,7.43,7.43,0,0,1-.65-1.22Z" transform="translate(-2.57 -19.57)"/><path class="cls-13" d="M334.17,284.43s-24.9,70.37-15.68,70.76,42.86-61.6,42.86-61.6Z" transform="translate(-2.57 -19.57)"/><path class="cls-13" d="M321,326.56l-7.93,24.94c6.68,3,39.1,18,13.65-4.14Z" transform="translate(-2.57 -19.57)"/><path class="cls-9" d="M313.6,349.15l-.89,3.88s27.85,16.63,29.36,11.67-13.77-15.9-13.77-15.9S334.33,358.45,313.6,349.15Z" transform="translate(-2.57 -19.57)"/><path class="cls-12" d="M312.94,351.54l-.35,1.55s28.08,16.82,29.6,11.8a3.1,3.1,0,0,0,0-1.73C340.58,367.7,316.21,353.47,312.94,351.54Z" transform="translate(-2.57 -19.57)"/><path class="cls-13" d="M389.25,286.14s-15.8,72.66-6.6,72,34.74-65.94,34.74-65.94Z" transform="translate(-2.57 -19.57)"/><path class="cls-13" d="M381.5,329.44l-4.7,25.66c7,2.24,41.1,13.53,13-5.64Z" transform="translate(-2.57 -19.57)"/><path class="cls-9" d="M377,352.7l-.39,3.95s29.76,13.4,30.63,8.31-15.68-14.25-15.68-14.25S398.79,359.62,377,352.7Z" transform="translate(-2.57 -19.57)"/><path class="cls-12" d="M376.76,355.25l-.15,1.62s30,14,30.88,8.71a3.3,3.3,0,0,0-.27-1.76C406.25,368.62,380.25,356.85,376.76,355.25Z" transform="translate(-2.57 -19.57)"/><path class="cls-5" d="M317.72,203.64l30.45,12.85s75.75,2.2,86.63,7.15-14.91,102.68-14.91,102.68c-23.79,1.28-45.59-11.67-45.59-11.67,4.12-16.28,14.49-51.92,14.49-51.92s-56.12,10.78-72.49-.21S317.72,203.64,317.72,203.64Z" transform="translate(-2.57 -19.57)"/><path class="cls-18" d="M317.72,203.64l30.45,12.85s75.75,2.2,86.63,7.15-14.91,102.68-14.91,102.68c-23.79,1.28-45.59-11.67-45.59-11.67,4.12-16.28,14.49-51.92,14.49-51.92s-56.12,10.78-72.49-.21S317.72,203.64,317.72,203.64Z" transform="translate(-2.57 -19.57)"/><path class="cls-5" d="M262.94,204.28l29.61,14.48s75.49,6.29,86.05,11.83-21.22,101.7-21.22,101.7c-23.82,0-44.79-14.12-44.79-14.12,5.12-16,17.66-51.05,17.66-51.05s-56.69,7.72-72.35-4.13S262.94,204.28,262.94,204.28Z" transform="translate(-2.57 -19.57)"/><path class="cls-5" d="M348.17,216.49s-12.26-31.93-18.45-38.3l-62,6s-24.83,65-12.83,74.13S348.17,216.49,348.17,216.49Z" transform="translate(-2.57 -19.57)"/><path class="cls-13" d="M275.4,81.53c-.28,5.79-4.64,10.31-9.73,10.09s-9-5.09-8.71-10.89,4.64-10.31,9.73-10.09S275.68,75.73,275.4,81.53Z" transform="translate(-2.57 -19.57)"/><path class="cls-12" d="M275.47,48s8.25-21.25,29-16.16,13.77,13.48,22.64,21.92c9.15,8.72,20.88,1.55,23.12,12,3.76,17.48-17.28,16-17.28,16s8.84,9,3.52,19.49c-8,15.78-40.06,11.17-50.28,2.35S275.47,48,275.47,48Z" transform="translate(-2.57 -19.57)"/><path class="cls-13" d="M302,97.54s-2.84.2.27,17.62c.52,2.9,15.9-.07,16.74,3.56l-21.18,20.84-34.18-12.48,16-6.75c-.83-5.21-2.09-13.55-3.36-23.31C274.15,80.07,302,97.54,302,97.54Z" transform="translate(-2.57 -19.57)"/><path class="cls-28" d="M277.79,107.62c-.46-3.26-1-6.82-1.44-10.6-2.2-17,25.69.52,25.69.52s-1.47,3.38-.09,14.84C293.5,112.3,285.25,111.25,277.79,107.62Z" transform="translate(-2.57 -19.57)"/><path class="cls-13" d="M315.57,69.56c-8-32.81-33.29-18.32-48.92-12,3.92,16.54,4.91,19.31,3.46,35.73C288.53,111.2,326,112.24,315.57,69.56Z" transform="translate(-2.57 -19.57)"/><path class="cls-12" d="M282,34.41s14.46,9.84,13.71,17.19S289.52,66.09,276.9,67c0,0,2.36,16,0,15.86S270.7,73,270.7,73s-10.84-3.41-6.35,9.32c2,5.77,7.26,4.37,7.26,4.37s11.16,13,5.2,22.36-26.37,8.46-32.43-4.34c0,0-22.61,4.19-23.57-16.51C220.11,73,252.19,73.7,248,62.09s-1-18.86,8.34-25.84c12.87-9.56,42.13-9.25,39.36,15.35" transform="translate(-2.57 -19.57)"/><path class="cls-12" d="M294.58,69.46a30.59,30.59,0,0,0-4.24-.95,13.11,13.11,0,0,0-4.1,0,7.89,7.89,0,0,0-3.63,1.61,10.68,10.68,0,0,0-1.54,1.41c-.5.52-.87,1.14-1.4,1.7a12.08,12.08,0,0,1,.77-2.13l.6-1a5,5,0,0,1,.76-.9,4,4,0,0,1,.88-.8,10.79,10.79,0,0,1,1-.66c.37-.17.74-.32,1.12-.48s.77-.2,1.16-.29a10.2,10.2,0,0,1,4.64.34A11,11,0,0,1,294.58,69.46Z" transform="translate(-2.57 -19.57)"/><path class="cls-12" d="M314.13,66.68a34.11,34.11,0,0,0-3.2-1.26,10.43,10.43,0,0,0-3.14-.57,5,5,0,0,0-2.85.89,7.06,7.06,0,0,0-1.24,1c-.4.4-.71.88-1.15,1.31a6.08,6.08,0,0,1,1.68-3.21,5.06,5.06,0,0,1,3.54-1.46,7.57,7.57,0,0,1,3.6,1A8.83,8.83,0,0,1,314.13,66.68Z" transform="translate(-2.57 -19.57)"/><path class="cls-14" d="M301.5,74.68a20.19,20.19,0,0,1,3.06,2.41,28.36,28.36,0,0,1,2.64,2.84l.17.2-.09.19c-.74,1.59-1.5,3.17-2.34,4.71.49-1.69,1.07-3.34,1.67-5l.08.4a29.55,29.55,0,0,1-2.81-2.67A20.13,20.13,0,0,1,301.5,74.68Z" transform="translate(-2.57 -19.57)"/><path class="cls-12" d="M292.72,78.37a7.76,7.76,0,0,0-2.16-2.59,3.92,3.92,0,0,0-3-.69,3.34,3.34,0,0,0-2.49,1.64,7.43,7.43,0,0,0-.78,3.26,5.45,5.45,0,0,1,.13-3.58,3.55,3.55,0,0,1,1.2-1.52,4.27,4.27,0,0,1,1.8-.72,4.74,4.74,0,0,1,1.91.11,4.17,4.17,0,0,1,1.67.93A5.7,5.7,0,0,1,292.72,78.37Z" transform="translate(-2.57 -19.57)"/><path class="cls-12" d="M312.77,73.56a8.74,8.74,0,0,0-1.87-2.75,2.88,2.88,0,0,0-2.78-.68,3.17,3.17,0,0,0-2.12,2,10.52,10.52,0,0,0-.68,3.27,6.64,6.64,0,0,1,0-3.51,4.15,4.15,0,0,1,.9-1.64,3.57,3.57,0,0,1,1.66-1,3.37,3.37,0,0,1,3.51,1.07A6,6,0,0,1,312.77,73.56Z" transform="translate(-2.57 -19.57)"/><path class="cls-15" d="M309.82,88.37s-9.95,2.36-17.57,3.28c0,0,7.1,5.52,13.9,3C310.33,93.16,309.82,88.37,309.82,88.37Z" transform="translate(-2.57 -19.57)"/><path class="cls-16" d="M299.54,92.06a9.4,9.4,0,0,0-5,1.06,19.41,19.41,0,0,1-2.34-1.47c7.62-.92,17.57-3.28,17.57-3.28s.51,4.79-3.67,6.32a10.63,10.63,0,0,1-1.3.38A7.05,7.05,0,0,0,299.54,92.06Z" transform="translate(-2.57 -19.57)"/><path class="cls-13" d="M389.56,115s9.78.2,11.08-2.72.06-4,.06-4,5.51-4.41,1.11-6c0,0,3.83-4.72-1.93-5.67s-17-4.23-19.54.9-3.91,16.61-3.91,16.61Z" transform="translate(-2.57 -19.57)"/><path class="cls-9" d="M326.65,119.13l35.19,25.49,10.92-35.85s13.58-.48,19.74,6.39c0,0-7.43,58.15-24.2,57.93S321,146.32,321,146.32Z" transform="translate(-2.57 -19.57)"/><path class="cls-29" d="M326.65,119.13l35.19,25.49,10.92-35.85s13.58-.48,19.74,6.39c0,0-7.43,58.15-24.2,57.93S321,146.32,321,146.32Z" transform="translate(-2.57 -19.57)"/><path class="cls-30" d="M392.76,93.77l7.79,36.49s-11.61,1.47-11.56.49S385.18,96,385.18,96Z" transform="translate(-2.57 -19.57)"/><path class="cls-13" d="M399.15,97.34s-34.77,4-3.74,5.28c0,0-11.61,0-10.81,2.81s12.32,1.94,12.32,1.94-12.23.78-12.18,2.2,13,3.06,13,3.06l1.85-4.6Z" transform="translate(-2.57 -19.57)"/><path class="cls-6" d="M466.64,71.8c.22,6.33-5.07,11.63-11.82,11.84s-12.41-4.76-12.63-11.09S447.26,60.91,454,60.7,466.42,65.46,466.64,71.8Z" transform="translate(-2.57 -19.57)"/><path class="cls-17" d="M445,39.61s-18.72,26.17-53.81,28.5l2.93,26.25s48.19.07,63.33,13.16Z" transform="translate(-2.57 -19.57)"/><path class="cls-31" d="M443,39.6s16.33,34.53,11.23,66.05" transform="translate(-2.57 -19.57)"/><path class="cls-17" d="M385.19,83.24c.37,7.42,2.19,13-5.44,13.31a13.74,13.74,0,0,1-14.5-12.82,13.55,13.55,0,0,1,13.14-14.06C386,69.33,384.81,75.82,385.19,83.24Z" transform="translate(-2.57 -19.57)"/><polygon class="cls-30" points="390.81 45.74 395.66 76.91 377.17 79.47 372.89 47.41 390.81 45.74"/><path class="cls-9" d="M329.72,178.19s-37.67,6.51-62,6c0,0-17-50-7.44-58.23s59.88-17.74,69-4.14,25.85,36.16,2,48.34Z" transform="translate(-2.57 -19.57)"/><path class="cls-29" d="M270.45,141.54c8.49,5,17.05,11.13,26.13,15,15.92,6.86,32.95,3.22,46.81-5.39.57,7.17-2.37,13.94-12.19,18.95l-1.48,8.06s-37.67,6.51-62,6c0,0-13.55-39.76-9.66-54.19A38.46,38.46,0,0,0,270.45,141.54Z" transform="translate(-2.57 -19.57)"/><path class="cls-9" d="M309.12,123.46l-.64-13.24s-20.56-.88-33,3.16l-.64,13.18Z" transform="translate(-2.57 -19.57)"/><path class="cls-13" d="M334.53,215c-2.64-.37-3.17-.87,2.67-1.48l1.32-.72,1.47.46.82-.07c17.93-1.43,9.17,1.45,6.14,2.35,7.45,2.5,17,5.93,16.26,6.8-1.25,1.43-10.5-2.29-10.5-2.29s26.2,11.08.64,3c0,0,19.62,9-2.05,1.75,0,0,25.26,11.46-25.24-5.1Z" transform="translate(-2.57 -19.57)"/><path class="cls-9" d="M258,127.87s-15.16,11-1.86,38c10,20.19,16,28.12,16,28.12s29,24.67,55.37,28.85c0,0,10-7.12,12.44-13.11l-47.1-29.58S275.5,113.38,258,127.87" transform="translate(-2.57 -19.57)"/></svg>