<svg id="Layer_1" data-name="Layer 1" xmlns="http://www.w3.org/2000/svg" viewBox="0 0 142.8 147.45"><defs><style>.cls-1{fill:#141526;}.cls-2{fill:#fcb65e;}.cls-3{fill:#444445;}.cls-4{fill:#fff;}</style></defs><title>ico</title><path class="cls-1" d="M98.63,72.88l.92-.31h0Z" transform="translate(-3.53 -1.55)"/><path class="cls-2" d="M81.38,40a7.56,7.56,0,0,0-1.55-3.75c-3.79-5.14-8.78-8.08-15.21-8.33-.9,0-1.15-.34-1.28-1.15a44.13,44.13,0,0,0-.89-4.41c-3-11.82-10.71-19.11-21.73-20.67C35,.9,29.11,3.15,25.92,7.38c.55.19.85-.26,1.22-.49A16.73,16.73,0,0,1,41.93,5.27,23.9,23.9,0,0,1,56.6,19.38a18.18,18.18,0,0,1,1.27,8.48c-.08,1.07-.35,1.69-1.65,1.88a11.45,11.45,0,0,0-6.91,3.65c-.75.82-1.1.75-1.82,0A47.46,47.46,0,0,0,35.65,23.6c-6.61-3.68-13.46-5.13-20.72-2-4.88,2.07-8.4,5.66-11.4,10.31.53-.08.6-.06.64-.1.48-.41,1-.84,1.44-1.25,7.66-6.5,16-7.64,25.07-3.17A49.41,49.41,0,0,1,43.45,37a1.92,1.92,0,0,1,.43,2.75c-6.06,11.44-7.14,23.45-4.06,36,.3,1.22.71,1.56,1.94,1.39A87.24,87.24,0,0,0,60.1,72.87a37.57,37.57,0,0,0,14.1-8.54C80.93,57.52,82.44,49.16,81.38,40ZM61,56.28a24.78,24.78,0,0,1-10.3,5c-1,.24-1.36,0-1.55-1a34.15,34.15,0,0,1-1-7.85c-.07-3.51.28-6.77,2.49-9.47a13.26,13.26,0,0,1,7.59-4.79c3.17-.67,6,1.1,7.12,4.35C66.9,47,65.08,52.8,61,56.28Z" transform="translate(-3.53 -1.55)"/><path class="cls-3" d="M58.38,116.88v0c.19-.11.38-.21.57-.33Q58.66,116.75,58.38,116.88Z" transform="translate(-3.53 -1.55)"/><path class="cls-3" d="M57.43,129.24a5.11,5.11,0,0,1-1,.43Z" transform="translate(-3.53 -1.55)"/><path class="cls-4" d="M129.35,106.68A21.38,21.38,0,0,0,124.2,102c.33.24.67.48,1,.74l.51.4c.15.11.3.24.45.36.31.26.62.52.91.8l.38.35a0,0,0,0,1,0,0c.13.12.26.24.38.37a16.35,16.35,0,0,1,1.47,1.65l.19.24.17.24c.23.3.43.62.63.94l.22.39A12.57,12.57,0,0,0,129.35,106.68Zm1.32,2.06,0-.07a1.74,1.74,0,0,0,.1.19Z" transform="translate(-3.53 -1.55)"/><line class="cls-3" x1="110.58" y1="104.64" x2="110.58" y2="104.64"/><path class="cls-3" d="M114.28,106" transform="translate(-3.53 -1.55)"/><path class="cls-4" d="M80.58,95.14a100.54,100.54,0,0,0-13.93,7.15,141.15,141.15,0,0,1,19.93-9.42C84.56,93.55,82.56,94.32,80.58,95.14Zm0,0a100.54,100.54,0,0,0-13.93,7.15,141.15,141.15,0,0,1,19.93-9.42C84.56,93.55,82.56,94.32,80.58,95.14Zm0,0a100.54,100.54,0,0,0-13.93,7.15,141.15,141.15,0,0,1,19.93-9.42C84.56,93.55,82.56,94.32,80.58,95.14Zm0,0a100.54,100.54,0,0,0-13.93,7.15,141.15,141.15,0,0,1,19.93-9.42C84.56,93.55,82.56,94.32,80.58,95.14Zm0,0a100.54,100.54,0,0,0-13.93,7.15,141.15,141.15,0,0,1,19.93-9.42C84.56,93.55,82.56,94.32,80.58,95.14Zm0,0a100.54,100.54,0,0,0-13.93,7.15,141.15,141.15,0,0,1,19.93-9.42C84.56,93.55,82.56,94.32,80.58,95.14Zm0,0a100.54,100.54,0,0,0-13.93,7.15,141.15,141.15,0,0,1,19.93-9.42C84.56,93.55,82.56,94.32,80.58,95.14Zm0,0a100.54,100.54,0,0,0-13.93,7.15,141.15,141.15,0,0,1,19.93-9.42C84.56,93.55,82.56,94.32,80.58,95.14Zm0,0a100.54,100.54,0,0,0-13.93,7.15,141.15,141.15,0,0,1,19.93-9.42C84.56,93.55,82.56,94.32,80.58,95.14Z" transform="translate(-3.53 -1.55)"/><path class="cls-2" d="M146.33,67.25c-.25,4.16-2.15,7.73-4.56,11.1-5.33,7.47-12.5,12.9-20,17.93-1.08.73-2.2,1.41-3.4,2.17l.06,0,0,0a39.2,39.2,0,0,1,5.85,3.38l.1.06,1,.74.51.4.46.37c.31.25.61.52.91.79l.38.35s0,0,0,0l.38.37a18.87,18.87,0,0,1,1.47,1.65l.19.24.18.24c.22.31.43.62.62.94l.23.4a1.09,1.09,0,0,0,.08.15h0l.1.2,0,.06s0,0,0,0l.12.25.12.28c.05.11.09.23.13.34l.12.32c.92,2.79.36,5.65-1.66,8.51a27.21,27.21,0,0,1-10.28,8.3,80.85,80.85,0,0,1-42.76,8.76,2.87,2.87,0,0,0-2.51,1.08c-5,5.24-10.72,9.49-17.84,11.49a18.46,18.46,0,0,1-5.12.81,118.28,118.28,0,0,0,5.17-19.37c2.07-.91,5.93-2.58,10.37-4.28l.13-.06c3.5-1.28,7.47-2.61,11.42-3.62l1.5-.38a55.66,55.66,0,0,1,7-1.24h0l-.26.43-2.74,4.69,0,0,.07,0s11.72,2.37,20.44-1.06h0l.11,0a29.45,29.45,0,0,0,9-5.92c5-4.72,2.93-7.78-1.26-10.92a14.35,14.35,0,0,0-4.68-2.19,31.92,31.92,0,0,0-12.86-.79c-.3,0-.6.07-.89.12,0,0,0,0,0,0a53.93,53.93,0,0,0-8.53,1.36h-.07a92.74,92.74,0,0,0-18.18,6.48l-1.07.5c-2.27,1.1-4.65,2.35-7.12,3.75l-.57.3c.42-3.57.74-7,1-10.31h0l.79-.48.34-.2,0,0c1.46-.89,3.58-2.14,6.12-3.56l0,0a141.33,141.33,0,0,1,20-9.42,54.43,54.43,0,0,1,11.2-2.6c-.3,1.48-.6,3-.94,4.68h0c8.56-2.34,16.81-4.73,24-9.64a18.07,18.07,0,0,0,4.85-4.66,9.16,9.16,0,0,0,1.11-8.88c-1-2.69-2.56-3.65-5.48-3.46-1.21.08-2.42.16-3.63.28a91.16,91.16,0,0,0-18.25,4h0l-.93.31c-.93.3-1.84.62-2.76.94A136.31,136.31,0,0,0,71.54,85.52c-.73.44-1.45.89-2.17,1.35l-.84.52c-1.08.69-2.15,1.39-3.22,2.1l-2.42,1.6L60,93c.07-2.77.08-5.08.08-6.8a5.21,5.21,0,0,1,.48-.71c12.55-15.84,28.23-26.82,48.33-30.83a57,57,0,0,1,26.65.49l.45.12h0l.11,0h0a16.59,16.59,0,0,1,4.13,2l.81.57c.38.3.76.61,1.14,1s.61.6.9.93a14,14,0,0,1,1.07,1.38c.24.36.47.75.69,1.15A13.16,13.16,0,0,1,146.33,67.25Z" transform="translate(-3.53 -1.55)"/><path class="cls-4" d="M59,116.58c-.19.12-.38.22-.57.33v0Q58.67,116.75,59,116.58Z" transform="translate(-3.53 -1.55)"/><path class="cls-4" d="M97.82,90.26v0a53.79,53.79,0,0,0-11.17,2.59A40.75,40.75,0,0,1,97.82,90.26Z" transform="translate(-3.53 -1.55)"/></svg>