<svg id="Layer_1" data-name="Layer 1" xmlns="http://www.w3.org/2000/svg" viewBox="0 0 292.69 95.71"><defs><style>.cls-1{fill:#403f77;}.cls-2{fill:#fcb65e;}.cls-3{fill:#141526;}.cls-4{fill:#444445;}.cls-5{fill:#fff;}</style></defs><title>logo</title><path class="cls-1" d="M17.36,79.16a8.48,8.48,0,0,1-4-.92,6.38,6.38,0,0,1-2.65-2.67V87.44H2.92V57.3H9.65v3.22a8,8,0,0,1,2.82-2.69,8.23,8.23,0,0,1,4.12-.94,9.51,9.51,0,0,1,3.95.83A9.28,9.28,0,0,1,23.68,60a10.88,10.88,0,0,1,2.06,3.51,12.4,12.4,0,0,1,.76,4.4,13.73,13.73,0,0,1-.7,4.47A11.5,11.5,0,0,1,23.89,76,8.82,8.82,0,0,1,21,78.32,7.94,7.94,0,0,1,17.36,79.16Zm-2.69-6.53a3.33,3.33,0,0,0,1.57-.37,3.69,3.69,0,0,0,1.22-1,5.35,5.35,0,0,0,.82-1.51,5.59,5.59,0,0,0,.3-1.84,4.5,4.5,0,0,0-1.16-3.26,4,4,0,0,0-3.08-1.23,4.39,4.39,0,0,0-3.67,2.21v3.71a5.94,5.94,0,0,0,1.67,2.36A3.53,3.53,0,0,0,14.67,72.63Z" transform="translate(-2.92 -2.42)"/><path class="cls-1" d="M29.31,55.5V49h7.75V55.5Zm0,23.25V57.3h7.75V78.75Z" transform="translate(-2.92 -2.42)"/><path class="cls-1" d="M75.56,78.75H67.81V66.68a3.47,3.47,0,0,0-.63-2.31,2,2,0,0,0-1.53-.71,3.17,3.17,0,0,0-2,.86,4.94,4.94,0,0,0-1.52,2.2v12H54.4V66.68a3.46,3.46,0,0,0-.64-2.31,2,2,0,0,0-1.53-.71,3.12,3.12,0,0,0-2,.86,4.88,4.88,0,0,0-1.53,2.2v12H41V57.3h7v3.18a7.26,7.26,0,0,1,3.14-2.67,11.12,11.12,0,0,1,4.73-.92,7.9,7.9,0,0,1,2.29.3A5.94,5.94,0,0,1,59.8,58a4.53,4.53,0,0,1,1.14,1.18,5.74,5.74,0,0,1,.67,1.39,7.77,7.77,0,0,1,3.13-2.73,9.89,9.89,0,0,1,4.5-1,6.2,6.2,0,0,1,3.37.79,5.41,5.41,0,0,1,1.89,2,7.51,7.51,0,0,1,.86,2.53,15.9,15.9,0,0,1,.2,2.45Z" transform="translate(-2.92 -2.42)"/><path class="cls-1" d="M93.75,79.16a8.44,8.44,0,0,1-4-.92,6.27,6.27,0,0,1-2.65-2.67V87.44H79.32V57.3h6.73v3.22a7.92,7.92,0,0,1,2.81-2.69A8.29,8.29,0,0,1,93,56.89a9.59,9.59,0,0,1,4,.83A9.38,9.38,0,0,1,100.08,60a11.07,11.07,0,0,1,2.06,3.51,12.63,12.63,0,0,1,.75,4.4,14,14,0,0,1-.69,4.47A11.32,11.32,0,0,1,100.28,76a8.72,8.72,0,0,1-2.9,2.34A7.94,7.94,0,0,1,93.75,79.16Zm-2.69-6.53a3.31,3.31,0,0,0,1.57-.37,3.63,3.63,0,0,0,1.23-1A5.52,5.52,0,0,0,95,67.9a4.54,4.54,0,0,0-1.16-3.26,4.06,4.06,0,0,0-3.08-1.23,4.38,4.38,0,0,0-3.67,2.21v3.71a5.84,5.84,0,0,0,1.67,2.36A3.51,3.51,0,0,0,91.06,72.63Z" transform="translate(-2.92 -2.42)"/><path class="cls-1" d="M144.05,78.75H136.3V66.68a3.46,3.46,0,0,0-.64-2.31,2,2,0,0,0-1.53-.71,3.12,3.12,0,0,0-2,.86,4.88,4.88,0,0,0-1.53,2.2v12h-7.75V66.68a3.41,3.41,0,0,0-.64-2.31,2,2,0,0,0-1.53-.71,3.12,3.12,0,0,0-2,.86,4.88,4.88,0,0,0-1.53,2.2v12h-7.75V57.3h7v3.18a7.26,7.26,0,0,1,3.14-2.67,11.12,11.12,0,0,1,4.73-.92,7.85,7.85,0,0,1,2.29.3,5.94,5.94,0,0,1,1.69.84,4.53,4.53,0,0,1,1.14,1.18,6.18,6.18,0,0,1,.68,1.39,7.68,7.68,0,0,1,3.12-2.73,9.89,9.89,0,0,1,4.5-1,6.2,6.2,0,0,1,3.37.79,5.41,5.41,0,0,1,1.89,2,7.51,7.51,0,0,1,.86,2.53,16,16,0,0,1,.21,2.45Z" transform="translate(-2.92 -2.42)"/><path class="cls-1" d="M147.31,80.91a9.57,9.57,0,0,0,3.18.7c1.66,0,2.57-1,2.73-2.86L145.43,57.3h8l4.07,14.88,3.31-14.88H168l-7.26,24a10.19,10.19,0,0,1-1.39,2.87,9.37,9.37,0,0,1-2.14,2.21,9.8,9.8,0,0,1-2.75,1.41,10.37,10.37,0,0,1-3.15.48,10.49,10.49,0,0,1-4-.77Z" transform="translate(-2.92 -2.42)"/><path class="cls-2" d="M238.76,79.57a6.23,6.23,0,0,1-5-2,8.59,8.59,0,0,1-1.71-5.77V57.7h7.75V70.06a3.39,3.39,0,0,0,.63,2.2,2.11,2.11,0,0,0,1.74.78,4.61,4.61,0,0,0,1.83-.41,4.78,4.78,0,0,0,1.88-1.79V57.7h7.75V70.59a2.67,2.67,0,0,0,.32,1.53,1.54,1.54,0,0,0,1.15.51v6.53a17.29,17.29,0,0,1-3.27.41c-2.63,0-4.16-1-4.57-3l-.16-.78a8.67,8.67,0,0,1-3.59,2.88A12.26,12.26,0,0,1,238.76,79.57Z" transform="translate(-2.92 -2.42)"/><path class="cls-2" d="M257.24,74.59,267,63h-9.18V57.7H275.1v4.57l-9.75,11.59h10.12v5.3H257.24Z" transform="translate(-2.92 -2.42)"/><path class="cls-2" d="M277.39,74.59,287.17,63H278V57.7h17.25v4.57L285.5,73.86h10.12v5.3H277.39Z" transform="translate(-2.92 -2.42)"/><path class="cls-3" d="M203.32,48.72l.6-.2h0Z" transform="translate(-2.92 -2.42)"/><path class="cls-2" d="M192.12,27.39a5,5,0,0,0-1-2.44,12.38,12.38,0,0,0-9.87-5.4c-.58,0-.75-.22-.83-.75a27.85,27.85,0,0,0-.58-2.86c-2-7.67-7-12.4-14.1-13.41a10.33,10.33,0,0,0-9.61,3.68c.36.12.55-.17.79-.32a10.81,10.81,0,0,1,9.6-1A15.43,15.43,0,0,1,176,14a11.72,11.72,0,0,1,.83,5.5c-.05.69-.22,1.09-1.07,1.22a7.45,7.45,0,0,0-4.49,2.37c-.48.53-.71.48-1.18,0a30.66,30.66,0,0,0-7.69-6.33c-4.28-2.39-8.73-3.33-13.44-1.32a16.4,16.4,0,0,0-7.4,6.69A2.28,2.28,0,0,0,142,22c.31-.27.62-.55.93-.81,5-4.23,10.41-5,16.28-2.07a32.44,32.44,0,0,1,8.29,6.29,1.25,1.25,0,0,1,.28,1.79,31.9,31.9,0,0,0-2.64,23.33c.2.79.46,1,1.27.9a56.27,56.27,0,0,0,11.89-2.76,24.35,24.35,0,0,0,9.16-5.54C191.83,38.75,192.81,33.32,192.12,27.39ZM178.88,37.94a15.92,15.92,0,0,1-6.68,3.28c-.65.16-.88,0-1-.62a22.1,22.1,0,0,1-.63-5.1c-.05-2.28.18-4.39,1.61-6.14a8.6,8.6,0,0,1,4.93-3.11,4,4,0,0,1,4.62,2.82C182.72,32,181.54,35.69,178.88,37.94Z" transform="translate(-2.92 -2.42)"/><path class="cls-4" d="M177.19,77.28v0l.37-.21Z" transform="translate(-2.92 -2.42)"/><path class="cls-4" d="M176.57,85.31a3.05,3.05,0,0,1-.61.27Z" transform="translate(-2.92 -2.42)"/><path class="cls-5" d="M223.26,70.66a14.21,14.21,0,0,0-3.35-3l.66.48.33.26.3.24c.2.16.39.34.59.51l.24.23h0l.24.24a12.34,12.34,0,0,1,1,1.08l.12.15.11.16c.14.2.28.4.41.61l.14.25A8.79,8.79,0,0,0,223.26,70.66Zm.85,1.34s0,0,0,0l.06.13Z" transform="translate(-2.92 -2.42)"/><line class="cls-4" x1="210.44" y1="67.92" x2="210.44" y2="67.92"/><path class="cls-4" d="M213.48,70.22" transform="translate(-2.92 -2.42)"/><path class="cls-5" d="M191.6,63.17a64.76,64.76,0,0,0-9,4.64,90.46,90.46,0,0,1,12.93-6.11C194.18,62.14,192.89,62.64,191.6,63.17Zm0,0a64.76,64.76,0,0,0-9,4.64,90.46,90.46,0,0,1,12.93-6.11C194.18,62.14,192.89,62.64,191.6,63.17Zm0,0a64.76,64.76,0,0,0-9,4.64,90.46,90.46,0,0,1,12.93-6.11C194.18,62.14,192.89,62.64,191.6,63.17Zm0,0a64.76,64.76,0,0,0-9,4.64,90.46,90.46,0,0,1,12.93-6.11C194.18,62.14,192.89,62.64,191.6,63.17Zm0,0a64.76,64.76,0,0,0-9,4.64,90.46,90.46,0,0,1,12.93-6.11C194.18,62.14,192.89,62.64,191.6,63.17Zm0,0a64.76,64.76,0,0,0-9,4.64,90.46,90.46,0,0,1,12.93-6.11C194.18,62.14,192.89,62.64,191.6,63.17Zm0,0a64.76,64.76,0,0,0-9,4.64,90.46,90.46,0,0,1,12.93-6.11C194.18,62.14,192.89,62.64,191.6,63.17Zm0,0a64.76,64.76,0,0,0-9,4.64,90.46,90.46,0,0,1,12.93-6.11C194.18,62.14,192.89,62.64,191.6,63.17Zm0,0a64.76,64.76,0,0,0-9,4.64,90.46,90.46,0,0,1,12.93-6.11C194.18,62.14,192.89,62.64,191.6,63.17Z" transform="translate(-2.92 -2.42)"/><path class="cls-2" d="M234.28,45.07a14,14,0,0,1-3,7.2c-3.46,4.85-8.11,8.38-13,11.64-.71.47-1.43.91-2.21,1.41l0,0h0a25.8,25.8,0,0,1,3.8,2.19l.06,0q.33.22.66.48l.33.26c.1.08.2.15.3.24s.4.33.59.51l.25.23a0,0,0,0,1,0,0l.25.24a11.92,11.92,0,0,1,1,1.07l.12.16.12.15c.14.2.28.41.4.62l.15.25a.93.93,0,0,1,0,.1s0,0,0,0l.06.12s0,0,0,0v0s0,.1.08.16a1.42,1.42,0,0,1,.08.18l.09.22c0,.07,0,.13.07.2a6,6,0,0,1-1.08,5.53,17.67,17.67,0,0,1-6.67,5.39,52.37,52.37,0,0,1-27.76,5.68,1.84,1.84,0,0,0-1.62.71,25.89,25.89,0,0,1-11.58,7.46,12.2,12.2,0,0,1-3.33.52,78,78,0,0,0,3.36-12.57c1.34-.6,3.85-1.68,6.73-2.78l.08,0c2.28-.83,4.85-1.69,7.42-2.35.32-.09.65-.17,1-.24a36.56,36.56,0,0,1,4.56-.81h0l-.17.28c-.59,1-1.18,2-1.78,3a.05.05,0,0,0,0,0l0,0s7.61,1.54,13.27-.68h0l.07,0a19,19,0,0,0,5.86-3.85C216.3,75,215,73,212.24,71a9.51,9.51,0,0,0-3-1.42,20.83,20.83,0,0,0-8.35-.51l-.58.08v0a33.56,33.56,0,0,0-5.54.88h0a59,59,0,0,0-11.8,4.2l-.7.33c-1.47.71-3,1.52-4.62,2.43l-.37.19c.27-2.31.48-4.57.64-6.69h0l.51-.32.22-.13h0c.95-.58,2.33-1.39,4-2.31h0a92.13,92.13,0,0,1,13-6.12A35.22,35.22,0,0,1,202.81,60c-.19,1-.39,1.92-.61,3h0c5.56-1.52,10.91-3.07,15.61-6.26a11.61,11.61,0,0,0,3.15-3,5.92,5.92,0,0,0,.72-5.77,3.05,3.05,0,0,0-3.55-2.24c-.79.05-1.58.1-2.36.18a58.56,58.56,0,0,0-11.85,2.58h0l-.6.2c-.6.2-1.2.4-1.79.62a87.61,87.61,0,0,0-15.8,7.67l-1.41.87-.54.34c-.7.45-1.4.9-2.09,1.36l-1.57,1-1.86,1.22c0-1.79.05-3.29.05-4.4a2.72,2.72,0,0,1,.31-.47c8.14-10.28,18.32-17.41,31.37-20a36.93,36.93,0,0,1,17.3.32l.29.08h0l.07,0h0a10.4,10.4,0,0,1,2.69,1.29c.17.11.34.24.52.37s.5.4.74.62.39.39.58.6a8,8,0,0,1,.7.9,6.76,6.76,0,0,1,.45.75A8.56,8.56,0,0,1,234.28,45.07Z" transform="translate(-2.92 -2.42)"/><path class="cls-5" d="M177.56,77.09l-.37.21v0Z" transform="translate(-2.92 -2.42)"/><path class="cls-5" d="M202.79,60h0a35.87,35.87,0,0,0-7.25,1.69A26.36,26.36,0,0,1,202.79,60Z" transform="translate(-2.92 -2.42)"/></svg>