<svg id="Layer_1" data-name="Layer 1" xmlns="http://www.w3.org/2000/svg" viewBox="0 0 498.79 427.75"><defs><style>.cls-1{fill:#170e38;}.cls-2{fill:#fff;}.cls-3{fill:#e5e6ec;}.cls-4{fill:#b9e4ed;}.cls-5{fill:#ef4761;}.cls-6{fill:#d1d2df;}.cls-7{fill:#f58668;}.cls-8{fill:#e35a40;}.cls-9{fill:#2bc2dd;}.cls-10{fill:#fcb65e;}.cls-11{fill:#f99e3b;}</style></defs><title>mission</title><polygon class="cls-1" points="305.87 417.4 228.67 417.4 235.01 324.34 299.52 324.34 305.87 417.4"/><path class="cls-1" d="M316.54,439.53a5,5,0,0,0-4.19-2.23h-89a5,5,0,0,0-4.2,2.23l-11.66,17.4a5.05,5.05,0,0,0,4.19,7.86H324a5.05,5.05,0,0,0,4.19-7.86Z" transform="translate(-0.56 -37.03)"/><path class="cls-1" d="M78.26,66.55h378A21.72,21.72,0,0,1,478,88.28V327.36a21.72,21.72,0,0,1-21.72,21.72h-378a21.73,21.73,0,0,1-21.73-21.73V88.28A21.73,21.73,0,0,1,78.26,66.55Z"/><rect class="cls-2" x="75.94" y="85.27" width="382.66" height="242.17"/><rect class="cls-3" x="85.5" y="111.64" width="363.54" height="215.79"/><rect class="cls-4" x="85.5" y="111.64" width="363.54" height="17.85"/><rect class="cls-2" x="318.49" y="187.72" width="112.9" height="14.9"/><rect class="cls-2" x="318.49" y="214.07" width="112.9" height="14.9"/><rect class="cls-2" x="318.49" y="240.42" width="112.9" height="14.9"/><rect class="cls-2" x="119.03" y="147.41" width="112.9" height="14.9"/><rect class="cls-2" x="119.03" y="173.76" width="112.9" height="14.9"/><path class="cls-5" d="M227.23,215.4H14.08A13.51,13.51,0,0,0,.56,228.91v68.73a13.52,13.52,0,0,0,13.52,13.52H147.61l50.87,43.25-24.15-43.25h52.9a13.51,13.51,0,0,0,13.51-13.52V228.91A13.51,13.51,0,0,0,227.23,215.4Z" transform="translate(-0.56 -37.03)"/><rect class="cls-2" x="80.32" y="196.9" width="143.64" height="8.27"/><rect class="cls-2" x="80.32" y="213.77" width="143.64" height="8.27"/><rect class="cls-2" x="80.32" y="230.64" width="143.64" height="8.27"/><rect class="cls-2" x="80.32" y="247.52" width="95.34" height="8.27"/><path class="cls-1" d="M69.51,261.8a27.72,27.72,0,1,1-27.72-27.71A27.71,27.71,0,0,1,69.51,261.8Z" transform="translate(-0.56 -37.03)"/><ellipse class="cls-2" cx="41.23" cy="216.53" rx="7.82" ry="8.07"/><path class="cls-2" d="M41.93,262.84h-.28a13.89,13.89,0,0,0-13.88,13.89v8.85a27,27,0,0,0,28.05,0v-8.85A13.89,13.89,0,0,0,41.93,262.84Z" transform="translate(-0.56 -37.03)"/><path class="cls-6" d="M485.83,37H272.68a13.51,13.51,0,0,0-13.51,13.52v68.73a13.51,13.51,0,0,0,13.51,13.52H334.4L317.86,176l43.25-43.24H485.83a13.52,13.52,0,0,0,13.52-13.52V50.55A13.52,13.52,0,0,0,485.83,37Z" transform="translate(-0.56 -37.03)"/><rect class="cls-2" x="338.92" y="18.53" width="143.64" height="8.27"/><rect class="cls-2" x="338.92" y="35.41" width="143.64" height="8.27"/><rect class="cls-2" x="338.92" y="52.28" width="143.64" height="8.27"/><rect class="cls-2" x="338.92" y="69.16" width="95.34" height="8.27"/><path class="cls-1" d="M328.11,83.44A27.71,27.71,0,1,1,300.4,55.73,27.71,27.71,0,0,1,328.11,83.44Z" transform="translate(-0.56 -37.03)"/><path class="cls-2" d="M308.22,75.2a7.82,7.82,0,1,1-7.82-8.07A7.94,7.94,0,0,1,308.22,75.2Z" transform="translate(-0.56 -37.03)"/><path class="cls-2" d="M300.54,84.48h-.28a13.87,13.87,0,0,0-13.88,13.88v8.86a27,27,0,0,0,28,0V98.36A13.87,13.87,0,0,0,300.54,84.48Z" transform="translate(-0.56 -37.03)"/><rect class="cls-5" x="328.51" y="279.54" width="109.44" height="34.73" rx="12.45"/><path class="cls-2" d="M372.83,329.65a3.75,3.75,0,0,1-2.92,3.67,4.18,4.18,0,0,1,3.48,4.27c0,2.9-2.53,4.71-6.52,4.71h-8.35V325.38h8C370.4,325.38,372.83,327.05,372.83,329.65Zm-4.53.77c0-1-.75-1.61-2-1.59h-3.38v3.29h3.38C367.55,332.12,368.3,331.49,368.3,330.42Zm.53,6.62c0-1.06-1-1.74-2.51-1.71h-3.38v3.54h3.38C367.86,338.87,368.83,338.2,368.83,337Z" transform="translate(-0.56 -37.03)"/><path class="cls-2" d="M383.37,338.73a3.2,3.2,0,0,0,3.31-3.52v-9.83h4.41v9.83c0,4.46-3,7.28-7.74,7.28s-7.85-2.82-7.85-7.28v-9.83h4.42v9.83A3.3,3.3,0,0,0,383.37,338.73Z" transform="translate(-0.56 -37.03)"/><path class="cls-2" d="M403,336.89v5.41h-4.42V337l-6.23-11.64h4.42l4,7.27,3.91-7.27h4.41Z" transform="translate(-0.56 -37.03)"/><path class="cls-7" d="M280.73,206.35a63,63,0,0,1-17.1.76,26,26,0,0,1-6-1.31c.28,7.12.33,23.81-4.73,30.72,0,0,1.82,8.21,16.64,8.45S286,234,286,234,281,216.85,280.73,206.35Z" transform="translate(-0.56 -37.03)"/><path class="cls-8" d="M253,236.78c0,.14.13.34.23.58,0,0,0,0,0,.08a6.81,6.81,0,0,0,.46.86s0,0,0,0a11.09,11.09,0,0,0,.75,1l.13.15a12.19,12.19,0,0,0,2.69,2.34l.19.13a17,17,0,0,0,2,1.05l.3.12a19.69,19.69,0,0,0,2.6.89,20.85,20.85,0,0,1,4.36-10.52,26.16,26.16,0,0,1,16.69-9.69,100,100,0,0,1-2.7-17.51,63,63,0,0,1-17.1.76,26,26,0,0,1-6-1.31c.28,7.12.33,23.81-4.73,30.72,0,0,0,.09.05.18S253,236.75,253,236.78Z" transform="translate(-0.56 -37.03)"/><path class="cls-7" d="M260.2,166.38s24.28-7.17,28.15-1.29,3.17,15.38,4.78,19.56,7.63,8.6,8.28,10.27-4,4.87-4.69,6.18-3.1,15.05-7.31,18.08-26.83-5-32.43-15.69S253.69,169.9,260.2,166.38Z" transform="translate(-0.56 -37.03)"/><path class="cls-1" d="M271.26,170.64a24.09,24.09,0,0,1-2.56,12.55c-1.45,2.9,5.8,10.62,3.78,14.13-1.34,2.34-3.31,1.75-5.09-2.87-.61-1.58-2.35-2.67-3.93-3.35-5.94-2.57-7.32,6.48-2,9.17,3.73,1.89,1.51,11.33,1.51,11.33-4,3.08-17.24-.63-15.79-10.3.92-6.15,1.33-8.5-.83-10-3.9-2.71-9-10.24-2.56-16.63,8.85-8.8.78-11.59,11-14.13S273.5,164.25,271.26,170.64Z" transform="translate(-0.56 -37.03)"/><path class="cls-1" d="M253.15,165.47c.57-2.23,4.61-5.11,6.61-6.6a29.46,29.46,0,0,1,10.47-4.73,27.2,27.2,0,0,1,11.67-.39c3.32.64,6.1,2.11,9.5,2.5,3.14.35,6.26.21,8.47-1.64a21.63,21.63,0,0,1,.41,7.68c-.55,3-2.55,5.73-4.36,8.44-4.93,7.35-18.33,11.42-27.77,7.54-4.57-1.88-8.66-3.5-10.9-7.47A23.62,23.62,0,0,0,253.15,165.47Z" transform="translate(-0.56 -37.03)"/><path class="cls-1" d="M382.74,181.3l23.47,52.1s-6.87,7.73-9.16,6-37.5-44-40.93-46.18S382.74,181.3,382.74,181.3Z" transform="translate(-0.56 -37.03)"/><path class="cls-5" d="M324.54,187.79s.09,15,9.25,18.41c0,0,46.95-19.45,56.39-21.32s43.8-2.15,43.8-2.15L399.34,120.9s-16.6,33.21-31.77,44.08S324.54,187.79,324.54,187.79Z" transform="translate(-0.56 -37.03)"/><path class="cls-1" d="M355,197.62c3.72-1.48,7.59-3,11.41-4.48-5.75-6.47-8.74-15.5-9.88-21.18-3.56,2-7.25,4-10.82,5.83A43.14,43.14,0,0,0,355,197.62Z" transform="translate(-0.56 -37.03)"/><path class="cls-9" d="M446.76,136.8c9.78,23.59,6.33,47.43-7.71,53.25s-33.35-8.58-43.13-32.17-6.33-47.42,7.72-53.24S437,113.22,446.76,136.8Z" transform="translate(-0.56 -37.03)"/><path class="cls-1" d="M444.87,137.59c8.32,20.06,5.38,40.34-6.57,45.29s-28.37-7.3-36.68-27.36-5.38-40.34,6.56-45.29S436.55,117.53,444.87,137.59Z" transform="translate(-0.56 -37.03)"/><path class="cls-7" d="M379.66,218.81c-1.12-.67-.81-4.87-.58-6,.36-1.7,1.54-3.93.35-5.56-2.09-2.89-5,4.88-5.42,6-.74,2.16-1,3.63-.54,5.18a20.49,20.49,0,0,0,4.49,6.78c-.21.78-.45,1.58-.75,2.44a50.9,50.9,0,0,1,5.66,2.86c2.27,1.31,2.15,2.92,4.27,4.38l2.12-4.87C388.37,229,381.52,219.94,379.66,218.81Z" transform="translate(-0.56 -37.03)"/><path class="cls-7" d="M394.69,201.77c-2-2.19-5.19-1.35-7.64.44-1.79,1.31-7,5.48-5.57,8.51,1.16,2.52,7.8-3.05,7.8-3.05-2.44,2.1-7,3.79-5.86,5.89,1.28,2.35,7.08-1,8.35-1.93-1.3.34-7.78,4.27-5.18,6.32,1.78,1.41,6.54-1.55,8-2.55-1.91.58-4.51,2.28-4,4.93.84,1.45,3.72.49,5.33-.17,2.43-1,4.72-1.36,4.91-4.38a12.6,12.6,0,0,0,.08-1.64,16.41,16.41,0,0,0-2.13-6.56A28.35,28.35,0,0,0,394.69,201.77Z" transform="translate(-0.56 -37.03)"/><path class="cls-7" d="M147.57,219.06a26.77,26.77,0,0,1-2.72-5.78c-.6-1.73-1-3.49-1.62-5.22a13.42,13.42,0,0,1-1.17-5.12,14.73,14.73,0,0,1,.63-3.13c.34-1.32.83-2.62,1.1-4s.14-2.36.37-3.55a21,21,0,0,1,2.07-6.57,24.14,24.14,0,0,1,3-4.15,15.35,15.35,0,0,1,1.79-1.91,4.64,4.64,0,0,0,1.63-2,1.92,1.92,0,0,0-1.4-2.59c-2.09-.53-5.38.43-6.65,2.18-1.77,2.43-2.61,5.41-4.57,7.76-6,7.17-11.68-1.27-18.7-4.31a41.59,41.59,0,0,1-6.79-4.38c-1.26-.94-6.65-6.07-9.2-4.73-1.88,1,1.79,5.29,3.57,6.34.7.42,6.72,5.3,7.5,5.54-1.77-.3-6.38-3.35-10.09-6.25-2.66-2.09-5.25-4.14-6.7-2.95-4.47,3.66,13.07,12,14.44,12.81-1.46.13-15.19-9.6-16.49-6-.72,2,2.13,3.91,4.46,5.18,2.93,1.59,7.83,2.72,8.93,3.58-2.06.7-11.16-5.48-11.16-1.71,0,2.47,5.65,4.32,7.77,5s8.62,5,10.66,6c6.79,3.24,9.59,2.86,12.27,6.93,1.7,2.59,4.74,16.28,7.2,21.49Z" transform="translate(-0.56 -37.03)"/><path class="cls-10" d="M375.87,225.82c-6.05,17.62-19,48.8-23.27,46.61-8-4.1-25.26-18.21-38.15-26.84-10-6.69-15-8.64-15-8.64l9,42.55s42.53,32.3,51.44,27.35c7-3.9,24.25-53,30.34-73.36C390.21,233.49,376,225.9,375.87,225.82Z" transform="translate(-0.56 -37.03)"/><path class="cls-11" d="M333.76,286.51c-4.8-6.23-23.09-24.14-28-28l1.43,20.18S350,311,359.51,306.93C351.34,301.68,339.58,294.07,333.76,286.51Z" transform="translate(-0.56 -37.03)"/><path class="cls-10" d="M227.3,239.21s-52.3,21.11-58,19.62-24.65-55.41-24.65-55.41l-15.84,6.44s16.92,77.78,27.8,81.42,75.81-15.12,75.81-15.12S233.48,257.27,227.3,239.21Z" transform="translate(-0.56 -37.03)"/><path class="cls-11" d="M182.67,286.43c-4.6,1.65-9.29,3.28-14,4.66,22.18-2.93,63.75-14.93,63.75-14.93a113.51,113.51,0,0,0-1.14-19.77C218.41,270.34,200.09,280.18,182.67,286.43Z" transform="translate(-0.56 -37.03)"/><path class="cls-6" d="M420.08,152c-2.39-7.38-9.59-11.66-16.08-9.55a11.2,11.2,0,0,0-5.4,3.91,64.24,64.24,0,0,0,3,9.21,62.21,62.21,0,0,0,8.07,14.08,11.37,11.37,0,0,0,3-.48C419.16,167,422.47,159.33,420.08,152Z" transform="translate(-0.56 -37.03)"/><path class="cls-10" d="M227.38,302.83c-1.84,18.15-3.28,56.31-4.36,61.64h85.81c1.52-28.5,1-69.78-.4-85-2.46-26.47-9-42.55-9-42.55s-6.41-2-14-4.95c0,0-15.79,9.66-30.5.13,0,0-26.55,6.29-29.76,7.82C222.52,241.22,229.36,283.45,227.38,302.83Z" transform="translate(-0.56 -37.03)"/><path class="cls-10" d="M250.08,327.68a67.73,67.73,0,0,0-4.91-24.76,22.52,22.52,0,0,1-1.57-5.55A36.81,36.81,0,0,0,240,284.69c-1.92-2.9-3.86-5.78-5.75-8.7-1.06-1.42-2.16-2.94-3.39-4.72a82.33,82.33,0,0,1-5.24-9.27c1,13.33,2.79,31.13,1.8,40.83-1.84,18.15-3.28,56.31-4.36,61.64H263c-5.13-6.6-8.21-14.65-11.23-24.45A44.14,44.14,0,0,1,250.08,327.68Z" transform="translate(-0.56 -37.03)"/></svg>