<svg id="Layer_1" data-name="Layer 1" xmlns="http://www.w3.org/2000/svg" viewBox="0 0 444.87 493.36"><defs><style>.cls-1{fill:#170e38;}.cls-2{fill:#d1d2df;}.cls-3{fill:#fff;}.cls-4{fill:#ef4761;}.cls-5{fill:#2bc2dd;}</style></defs><title>social</title><rect class="cls-1" x="112.83" y="62.91" width="212.51" height="352.87" rx="8.82"/><rect class="cls-2" x="129.11" y="77.5" width="182.15" height="309.16"/><path class="cls-3" d="M246.29,409.46a5.73,5.73,0,1,1,5.73-5.73A5.72,5.72,0,0,1,246.29,409.46Z" transform="translate(-27.21 -3.55)"/><rect class="cls-3" x="136.13" y="87.09" width="8.93" height="7.22" rx="2.11"/><rect class="cls-3" x="160.5" y="87.09" width="8.93" height="7.22" rx="2.11"/><rect class="cls-3" x="278.2" y="87.09" width="8.93" height="7.22" rx="2.11"/><rect class="cls-3" x="250.89" y="87.09" width="8.93" height="7.22" rx="2.11"/><rect class="cls-3" x="295.31" y="87.09" width="8.93" height="7.22" rx="2.11"/><path class="cls-1" d="M209.4,227.55c-.33-.79-.65-1.61-.92-2.47-2.69-8.73-.45-17.17,5-18.85s12.05,4,14.74,12.77a25,25,0,0,1,.62,2.56l1.77-.54c-.19-.85-.39-1.7-.66-2.55-3.16-10.27-10.92-17-17.33-15s-9,11.9-5.88,22.17c.27.85.58,1.67.9,2.48Z" transform="translate(-27.21 -3.55)"/><polygon class="cls-3" points="234.53 265 181.45 281.35 169.12 225.38 213.22 211.79 234.53 265"/><path class="cls-1" d="M265.53,205.72c.11-.86.25-1.72.45-2.6,2.11-8.89,8.31-15,13.86-13.72s8.34,9.59,6.24,18.48a25.58,25.58,0,0,1-.76,2.53l1.8.42c.27-.82.52-1.66.73-2.53,2.47-10.46-.81-20.18-7.34-21.73s-13.82,5.68-16.29,16.13c-.21.88-.36,1.74-.49,2.6Z" transform="translate(-27.21 -3.55)"/><polygon class="cls-4" points="262.67 264.03 208.62 251.24 226.34 196.73 271.26 207.36 262.67 264.03"/><path class="cls-3" d="M276.7,143.59a29.31,29.31,0,1,1-29.31-29.3A29.3,29.3,0,0,1,276.7,143.59Z" transform="translate(-27.21 -3.55)"/><path class="cls-5" d="M245.92,143.85c-.48,0-4.6-11.87-6-11.4-2,.65-7.31,3.24-7.44,5.47s10.8,21.46,12.63,21.46c3.85,0,20-21.33,18.69-23.74s-7.4-5.75-8.31-4.84C254.81,131.48,246.34,143.86,245.92,143.85Z" transform="translate(-27.21 -3.55)"/><rect class="cls-4" x="184.7" y="345.64" width="72.53" height="23.02" rx="8.25"/><path class="cls-3" d="M240.92,357.86a2.5,2.5,0,0,1-1.94,2.43,2.77,2.77,0,0,1,2.3,2.83c0,1.92-1.68,3.12-4.32,3.12h-5.53V355h5.32C239.3,355,240.92,356.13,240.92,357.86Zm-3,.51c0-.67-.5-1.07-1.31-1.06h-2.25v2.18h2.25C237.41,359.49,237.91,359.07,237.91,358.37Zm.35,4.38c0-.7-.64-1.15-1.66-1.13h-2.25V364h2.25C237.62,364,238.26,363.52,238.26,362.75Z" transform="translate(-27.21 -3.55)"/><path class="cls-3" d="M247.9,363.87a2.12,2.12,0,0,0,2.19-2.33V355H253v6.51c0,2.95-2,4.83-5.14,4.83s-5.2-1.88-5.2-4.83V355h2.93v6.51A2.19,2.19,0,0,0,247.9,363.87Z" transform="translate(-27.21 -3.55)"/><path class="cls-3" d="M260.88,362.66v3.58H258v-3.5L253.82,355h2.93l2.66,4.81L262,355h2.92Z" transform="translate(-27.21 -3.55)"/><path class="cls-1" d="M92.93,208.46a1.84,1.84,0,0,0-2.62.16,1.87,1.87,0,0,0,.16,2.63q6.8,6,14.2,12.11a1.81,1.81,0,0,0,1.18.43A1.86,1.86,0,0,0,107,220.5Q99.69,214.41,92.93,208.46Z" transform="translate(-27.21 -3.55)"/><path class="cls-1" d="M132.2,124.16a1.86,1.86,0,0,0,.63-3.61c-6.11-2.21-12.06-4.23-17.69-6A1.86,1.86,0,1,0,114,118.1c5.58,1.75,11.49,3.75,17.55,5.94A1.76,1.76,0,0,0,132.2,124.16Z" transform="translate(-27.21 -3.55)"/><path class="cls-1" d="M66.17,182.85a1.86,1.86,0,1,0-2.7,2.56c4.11,4.32,8.56,8.77,13.23,13.22a1.86,1.86,0,0,0,2.57-2.7C74.64,191.52,70.24,187.12,66.17,182.85Z" transform="translate(-27.21 -3.55)"/><path class="cls-1" d="M151.3,254.24a1.86,1.86,0,0,0-2.15,3q7.5,5.3,15.35,10.59a1.8,1.8,0,0,0,1,.33,1.87,1.87,0,0,0,1.05-3.41Q158.76,259.52,151.3,254.24Z" transform="translate(-27.21 -3.55)"/><path class="cls-1" d="M121.5,232.12a1.86,1.86,0,0,0-2.29,2.93q7.2,5.63,14.84,11.3a1.89,1.89,0,0,0,1.11.36,1.84,1.84,0,0,0,1.49-.75,1.86,1.86,0,0,0-.38-2.6Q128.66,237.72,121.5,232.12Z" transform="translate(-27.21 -3.55)"/><path class="cls-1" d="M78.18,109.27c5.61.91,11.68,2.18,18,3.78a1.4,1.4,0,0,0,.45.06,1.86,1.86,0,0,0,.46-3.66c-6.47-1.63-12.65-2.92-18.36-3.85a1.86,1.86,0,1,0-.6,3.67Z" transform="translate(-27.21 -3.55)"/><path class="cls-1" d="M430.71,334.15a1.85,1.85,0,0,0,1.66,1,2,2,0,0,0,.84-.2,1.87,1.87,0,0,0,.82-2.5,120.18,120.18,0,0,0-10-16,1.86,1.86,0,0,0-3,2.17A117.12,117.12,0,0,1,430.71,334.15Z" transform="translate(-27.21 -3.55)"/><path class="cls-1" d="M30.93,125.21a18.82,18.82,0,0,1,.36-3.76,1.86,1.86,0,1,0-3.64-.76,22.72,22.72,0,0,0-.44,4.52,39.41,39.41,0,0,0,3.33,14.65A1.85,1.85,0,0,0,32.26,141a1.76,1.76,0,0,0,.71-.14,1.86,1.86,0,0,0,1-2.42A35.83,35.83,0,0,1,30.93,125.21Z" transform="translate(-27.21 -3.55)"/><path class="cls-1" d="M60,103.81H58.88c-7.09,0-13.1.89-17.87,2.63a1.86,1.86,0,0,0,.64,3.61,2,2,0,0,0,.64-.11c4.36-1.6,9.94-2.41,16.59-2.41H60a1.86,1.86,0,0,0,0-3.72Z" transform="translate(-27.21 -3.55)"/><path class="cls-1" d="M42.77,154.39a1.86,1.86,0,0,0-3.09,2.07,182.29,182.29,0,0,0,11.32,15,1.86,1.86,0,0,0,2.86-2.38A177.11,177.11,0,0,1,42.77,154.39Z" transform="translate(-27.21 -3.55)"/><path class="cls-1" d="M365.37,363.08c-5.61-1.53-11.57-3.32-17.71-5.34a1.86,1.86,0,1,0-1.16,3.53c6.2,2,12.23,3.85,17.9,5.39a1.66,1.66,0,0,0,.49.07,1.86,1.86,0,0,0,.48-3.65Z" transform="translate(-27.21 -3.55)"/><path class="cls-1" d="M197.77,284.93q-8-4.92-15.7-9.91a1.86,1.86,0,1,0-2,3.12q7.74,5,15.76,10a1.94,1.94,0,0,0,1,.28,1.86,1.86,0,0,0,1-3.45Z" transform="translate(-27.21 -3.55)"/><path class="cls-1" d="M401.54,369.77a151.48,151.48,0,0,1-18.19-2.48,1.86,1.86,0,1,0-.7,3.65,154.65,154.65,0,0,0,18.64,2.54h.13a1.86,1.86,0,0,0,.12-3.72Z" transform="translate(-27.21 -3.55)"/><path class="cls-1" d="M439.7,350.84a1.92,1.92,0,0,0-2-1.76,1.87,1.87,0,0,0-1.76,2c0,.43,0,.85,0,1.27a15.81,15.81,0,0,1-2.14,8.33c-2.53,4.16-7.34,7-14.3,8.36a1.86,1.86,0,0,0,.36,3.68,2.31,2.31,0,0,0,.37,0c8-1.61,13.65-5,16.75-10.08a19.45,19.45,0,0,0,2.68-10.26C439.74,351.83,439.73,351.33,439.7,350.84Z" transform="translate(-27.21 -3.55)"/><path class="cls-1" d="M399.59,288.1a1.86,1.86,0,0,0-2.65,2.61c4.52,4.6,8.75,9.16,12.58,13.55a1.86,1.86,0,0,0,1.4.64,1.89,1.89,0,0,0,1.22-.46,1.85,1.85,0,0,0,.18-2.62C408.45,297.37,404.17,292.76,399.59,288.1Z" transform="translate(-27.21 -3.55)"/><path class="cls-1" d="M384.92,278.3a1.86,1.86,0,0,0,1.26-3.22c-4.38-4.07-9.05-8.26-13.9-12.46a1.86,1.86,0,1,0-2.44,2.81c4.82,4.17,9.46,8.33,13.81,12.37A1.82,1.82,0,0,0,384.92,278.3Z" transform="translate(-27.21 -3.55)"/><path class="cls-1" d="M229.74,303.81q-8-4.5-16.07-9.28a1.86,1.86,0,0,0-1.9,3.2q8.11,4.8,16.15,9.32a1.86,1.86,0,1,0,1.82-3.24Z" transform="translate(-27.21 -3.55)"/><path class="cls-1" d="M330.19,351.57c-5.61-2.11-11.42-4.4-17.24-6.81a1.86,1.86,0,1,0-1.42,3.43c5.86,2.43,11.7,4.74,17.35,6.86a1.92,1.92,0,0,0,.66.12,1.86,1.86,0,0,0,.65-3.6Z" transform="translate(-27.21 -3.55)"/><path class="cls-1" d="M262.45,321.37q-8.15-4.15-16.44-8.61a1.86,1.86,0,0,0-1.77,3.28q8.34,4.48,16.52,8.64a1.84,1.84,0,0,0,.85.21,1.86,1.86,0,0,0,.84-3.52Z" transform="translate(-27.21 -3.55)"/><path class="cls-1" d="M295.92,337.41q-8.3-3.72-16.83-7.81a1.86,1.86,0,1,0-1.61,3.35q8.58,4.11,16.92,7.85a1.83,1.83,0,0,0,.76.17,1.86,1.86,0,0,0,.76-3.56Z" transform="translate(-27.21 -3.55)"/><path class="cls-1" d="M297.53,106.82a2,2,0,0,1,1.51-2.31,1.81,1.81,0,0,1,2.2,1.46q1.63,9.16,3.08,19a2,2,0,0,1-1.58,2.26,1.81,1.81,0,0,1-2.15-1.53Q299.16,115.94,297.53,106.82Z" transform="translate(-27.21 -3.55)"/><path class="cls-1" d="M289.32,69.69a2,2,0,0,1,1.32-2.43A1.8,1.8,0,0,1,293,68.51c1.6,5.9,3.13,12.17,4.54,18.64a2,2,0,0,1-.22,1.42,2,2,0,0,1-1.21.94,1.81,1.81,0,0,1-2.25-1.37C292.41,81.73,290.9,75.52,289.32,69.69Z" transform="translate(-27.21 -3.55)"/><path class="cls-1" d="M306.71,182.78a2,2,0,0,1,1.74-2.14,1.81,1.81,0,0,1,2,1.7q.66,9.47,1.16,19.25a2,2,0,0,1-1.79,2.1,1.8,1.8,0,0,1-2-1.75Q307.38,192.22,306.71,182.78Z" transform="translate(-27.21 -3.55)"/><path class="cls-1" d="M303.11,144.62a2,2,0,0,1,1.64-2.22,1.81,1.81,0,0,1,2.1,1.6q1.11,9.36,2,19.14a2,2,0,0,1-1.7,2.18,1.81,1.81,0,0,1-2.05-1.65Q304.21,153.94,303.11,144.62Z" transform="translate(-27.21 -3.55)"/><path class="cls-1" d="M219.2,43.93c-2.14,5.56-4.21,11.72-6.15,18.31a2.25,2.25,0,0,1-.19.45,1.93,1.93,0,0,1-2.16.93,1.84,1.84,0,0,1-1.25-2.35c2-6.7,4.08-13,6.26-18.63a2,2,0,0,1,2.45-1.18A1.87,1.87,0,0,1,219.2,43.93Z" transform="translate(-27.21 -3.55)"/><path class="cls-1" d="M229.82,476.94a2,2,0,0,1,0,2,2.17,2.17,0,0,1-.61.67,1.83,1.83,0,0,1-2.6-.51A119.34,119.34,0,0,1,218,462.06a2,2,0,0,1,1-2.58,1.81,1.81,0,0,1,2.47.92A115.73,115.73,0,0,0,229.82,476.94Z" transform="translate(-27.21 -3.55)"/><path class="cls-1" d="M257.76,8.87a17.23,17.23,0,0,0-3.46-1.54,1.87,1.87,0,0,1-1.15-2.41,1.94,1.94,0,0,1,2.41-1.28,21.87,21.87,0,0,1,4.15,1.84,38,38,0,0,1,11,10.35,1.94,1.94,0,0,1,.11,2.14,2.06,2.06,0,0,1-.49.57,1.83,1.83,0,0,1-2.64-.28A34.34,34.34,0,0,0,257.76,8.87Z" transform="translate(-27.21 -3.55)"/><path class="cls-1" d="M224,24.65l.58-1c3.71-6.45,7.63-11.48,11.63-14.95a1.84,1.84,0,0,1,2.65.19,2,2,0,0,1,.15,2.2,2.13,2.13,0,0,1-.43.52c-3.67,3.17-7.29,7.84-10.77,13.9l-.55,1,0,0A1.86,1.86,0,1,1,224,24.65Z" transform="translate(-27.21 -3.55)"/><path class="cls-1" d="M276.87,34.2a2,2,0,0,1,.91-2.61,1.82,1.82,0,0,1,2.51.82,186.75,186.75,0,0,1,7.08,17.79,2,2,0,0,1-1.16,2.5,1.8,1.8,0,0,1-2.4-1.09A178.75,178.75,0,0,0,276.87,34.2Z" transform="translate(-27.21 -3.55)"/><path class="cls-1" d="M289.1,431.9c1.62-5.87,3.17-12.19,4.64-18.79a2,2,0,0,1,2.25-1.54,1.84,1.84,0,0,1,1.42,2.25c-1.48,6.66-3.06,13.05-4.69,19a2,2,0,0,1-.2.48,1.93,1.93,0,0,1-2.13,1A1.85,1.85,0,0,1,289.1,431.9Z" transform="translate(-27.21 -3.55)"/><path class="cls-1" d="M309,240.38q-.11-9.72-.39-19.23a2,2,0,0,1,1.83-2.07,1.82,1.82,0,0,1,1.94,1.79c.19,6.36.32,12.81.39,19.31a2.14,2.14,0,0,1-.27,1,2,2,0,0,1-1.6,1A1.8,1.8,0,0,1,309,240.38Z" transform="translate(-27.21 -3.55)"/><path class="cls-1" d="M276,468.16a167.38,167.38,0,0,0,7.37-17.8,2,2,0,0,1,2.41-1.25,1.87,1.87,0,0,1,1.12,2.43,169.44,169.44,0,0,1-7.55,18.24l-.06.12a1.86,1.86,0,1,1-3.29-1.74Z" transform="translate(-27.21 -3.55)"/><path class="cls-1" d="M239.59,493.44a2,2,0,0,1-.5-2.65,1.9,1.9,0,0,1,2.62-.63c.36.24.72.46,1.08.67a15.23,15.23,0,0,0,8.35,2.2c4.93-.22,9.89-3.2,14.73-8.84a1.87,1.87,0,0,1,2.66-.24,1.93,1.93,0,0,1,.35,2.41,2.18,2.18,0,0,1-.22.31c-5.59,6.5-11.48,9.94-17.51,10.22a18.7,18.7,0,0,1-10.3-2.68C240.43,494,240,493.72,239.59,493.44Z" transform="translate(-27.21 -3.55)"/><path class="cls-1" d="M206.16,425.65a2,2,0,0,1,1.36-2.4,1.8,1.8,0,0,1,2.29,1.29c1.63,6.41,3.37,12.54,5.17,18.2a2,2,0,0,1-.18,1.6,2,2,0,0,1-1,.88,1.8,1.8,0,0,1-2.37-1.14C209.56,438.34,207.8,432.14,206.16,425.65Z" transform="translate(-27.21 -3.55)"/><path class="cls-1" d="M308.66,278.89q.27-9.51.36-19.26a2,2,0,0,1,1.9-2,1.82,1.82,0,0,1,1.87,1.87q-.09,9.76-.36,19.34a2.05,2.05,0,0,1-.27.95,2,2,0,0,1-1.67,1A1.82,1.82,0,0,1,308.66,278.89Z" transform="translate(-27.21 -3.55)"/><path class="cls-1" d="M297.53,394.14c1.11-6.17,2.15-12.59,3.11-19.1a2,2,0,0,1,2.14-1.71,1.83,1.83,0,0,1,1.58,2.13c-1,6.55-2,13-3.13,19.22a1.87,1.87,0,0,1-.24.66,2,2,0,0,1-2,1A1.83,1.83,0,0,1,297.53,394.14Z" transform="translate(-27.21 -3.55)"/><path class="cls-1" d="M306.77,317.42q.68-9.48,1.15-19.26a2,2,0,0,1,2-1.91,1.81,1.81,0,0,1,1.79,1.94q-.48,9.82-1.15,19.35a2,2,0,0,1-2,1.87A1.82,1.82,0,0,1,306.77,317.42Z" transform="translate(-27.21 -3.55)"/><path class="cls-1" d="M303.18,355.88q1.11-9.39,2-19.21a2,2,0,0,1,2.06-1.83,1.82,1.82,0,0,1,1.69,2q-.91,9.87-2,19.32a2,2,0,0,1-.26.77,2,2,0,0,1-1.84,1A1.83,1.83,0,0,1,303.18,355.88Z" transform="translate(-27.21 -3.55)"/><path class="cls-1" d="M144.73,363.1c-6.29,2-12.44,3.74-18.27,5.25a1.87,1.87,0,0,0-1.35,2.29,1.93,1.93,0,0,0,2.34,1.34c5.89-1.54,12.1-3.32,18.46-5.31a1.87,1.87,0,0,0,1.23-2.35A1.94,1.94,0,0,0,144.73,363.1Z" transform="translate(-27.21 -3.55)"/><path class="cls-1" d="M108,372.55a182.88,182.88,0,0,1-18.74,2.65,1.87,1.87,0,0,0,.08,3.74h.26a188,188,0,0,0,19.14-2.71,1.86,1.86,0,0,0,1.5-2.19A1.91,1.91,0,0,0,108,372.55Z" transform="translate(-27.21 -3.55)"/><path class="cls-1" d="M215.58,335.52q-8.82,4-17.4,7.67a1.84,1.84,0,0,0-1,2.46,1.91,1.91,0,0,0,1.67,1.13,2.12,2.12,0,0,0,.85-.15q8.61-3.67,17.48-7.71a1.85,1.85,0,0,0,.93-2.49A1.94,1.94,0,0,0,215.58,335.52Z" transform="translate(-27.21 -3.55)"/><path class="cls-1" d="M180.58,350.39q-9.11,3.57-17.81,6.67a1.85,1.85,0,0,0-1.14,2.4,1.9,1.9,0,0,0,1.71,1.23,1.88,1.88,0,0,0,.74-.11q8.76-3.1,17.93-6.71a1.87,1.87,0,0,0,1.06-2.44A1.93,1.93,0,0,0,180.58,350.39Z" transform="translate(-27.21 -3.55)"/><path class="cls-1" d="M384.29,126a1.76,1.76,0,0,0,.6-.07c6.43-1.78,12.64-3.31,18.45-4.55a1.88,1.88,0,0,0,1.46-2.23,1.93,1.93,0,0,0-2.29-1.43c-5.88,1.25-12.17,2.8-18.67,4.6a1.88,1.88,0,0,0-1.31,2.32A1.9,1.9,0,0,0,384.29,126Z" transform="translate(-27.21 -3.55)"/><path class="cls-1" d="M356.92,133.55c3.85-1,7.59-1.86,11.17-2.62a1.86,1.86,0,0,0,1.46-2.23,1.91,1.91,0,0,0-2.28-1.43q-5.14,1.1-10.66,2.48C354,130.41,354.54,134.15,356.92,133.55Z" transform="translate(-27.21 -3.55)"/><path class="cls-1" d="M249.81,319q-8.58,4.38-17,8.46a1.85,1.85,0,0,0-.86,2.51,1.91,1.91,0,0,0,2.56.85q8.47-4.1,17.1-8.5a1.86,1.86,0,0,0,.8-2.53A1.92,1.92,0,0,0,249.81,319Z" transform="translate(-27.21 -3.55)"/><path class="cls-1" d="M104.61,278.43a2,2,0,0,0-2.7-.15c-4.92,4.34-9.63,8.67-14,12.88a1.85,1.85,0,0,0,0,2.65,1.94,1.94,0,0,0,2.71,0c4.34-4.17,9-8.47,13.88-12.76A1.83,1.83,0,0,0,104.61,278.43Z" transform="translate(-27.21 -3.55)"/><path class="cls-1" d="M133.36,252.87a2,2,0,0,0-2.7-.14c-4.92,4.33-9.63,8.66-14,12.87a1.85,1.85,0,0,0,0,2.65,2,2,0,0,0,1.28.56,1.9,1.9,0,0,0,1.43-.53c4.34-4.17,9-8.47,13.88-12.76A1.84,1.84,0,0,0,133.36,252.87Z" transform="translate(-27.21 -3.55)"/><path class="cls-1" d="M54.19,334.38a1.94,1.94,0,0,0-2.6.75c-3.7,6.69-5.94,12.79-6.66,18.14a1.89,1.89,0,0,0,1.65,2.11h.16a1.89,1.89,0,0,0,2-1.62c.66-4.9,2.76-10.57,6.24-16.85A1.86,1.86,0,0,0,54.19,334.38Z" transform="translate(-27.21 -3.55)"/><path class="cls-1" d="M70.5,375.15c-7.37-.88-13-2.91-16.66-6a1.94,1.94,0,0,0-2.7.19,1.84,1.84,0,0,0,.2,2.64c4.27,3.63,10.57,6,18.71,6.92l.14,0a1.9,1.9,0,0,0,2-1.65A1.87,1.87,0,0,0,70.5,375.15Z" transform="translate(-27.21 -3.55)"/><path class="cls-1" d="M74.57,304.74c-4.6,5-8.75,9.87-12.34,14.51a1.88,1.88,0,0,0,1.44,3,1.91,1.91,0,0,0,1.61-.74c3.52-4.55,7.61-9.35,12.13-14.26a1.84,1.84,0,0,0-.14-2.65A1.94,1.94,0,0,0,74.57,304.74Z" transform="translate(-27.21 -3.55)"/><path class="cls-1" d="M347.81,261.07q-7.71,5.25-15.8,10.48a1.85,1.85,0,0,0-.54,2.59A2,2,0,0,0,333,275a1.93,1.93,0,0,0,1.13-.32q8.13-5.25,15.88-10.52a1.85,1.85,0,0,0,.48-2.61A2,2,0,0,0,347.81,261.07Z" transform="translate(-27.21 -3.55)"/><path class="cls-1" d="M441,113.47a123.39,123.39,0,0,0-19.41,1,1.88,1.88,0,0,0,.15,3.74,1.83,1.83,0,0,0,.33,0,119,119,0,0,1,18.78-.93,1.89,1.89,0,0,0,2-1.79A2,2,0,0,0,441,113.47Z" transform="translate(-27.21 -3.55)"/><path class="cls-1" d="M435.55,189.54c-4.14,4.32-8.65,8.76-13.41,13.21a1.85,1.85,0,0,0-.06,2.65,2,2,0,0,0,1.3.58,1.92,1.92,0,0,0,1.41-.52c4.81-4.49,9.37-9,13.55-13.35a1.84,1.84,0,0,0-.08-2.65A2,2,0,0,0,435.55,189.54Z" transform="translate(-27.21 -3.55)"/><path class="cls-1" d="M461.66,159.93a2,2,0,0,0-2.64.6,147.91,147.91,0,0,1-11,15,1.84,1.84,0,0,0,.3,2.63,1.86,1.86,0,0,0,1.11.42,1.91,1.91,0,0,0,1.58-.7,154.38,154.38,0,0,0,11.26-15.41A1.85,1.85,0,0,0,461.66,159.93Z" transform="translate(-27.21 -3.55)"/><path class="cls-1" d="M469.39,125.51a20.86,20.86,0,0,0-9.08-7.94,1.93,1.93,0,0,0-2.56.85,1.86,1.86,0,0,0,.87,2.51,17.08,17.08,0,0,1,7.47,6.48,16.48,16.48,0,0,1,2.14,9.39,31.37,31.37,0,0,1-1.32,7.3,1.87,1.87,0,0,0,1.31,2.32,1.78,1.78,0,0,0,.45.08,1.9,1.9,0,0,0,1.92-1.35,34.48,34.48,0,0,0,1.46-8.18A20.16,20.16,0,0,0,469.39,125.51Z" transform="translate(-27.21 -3.55)"/><path class="cls-1" d="M316,281.69q-8,4.94-16.25,9.81a1.87,1.87,0,0,0,.91,3.48,2,2,0,0,0,1.08-.26q8.3-4.91,16.31-9.86a1.84,1.84,0,0,0,.59-2.58A1.94,1.94,0,0,0,316,281.69Z" transform="translate(-27.21 -3.55)"/><path class="cls-1" d="M408.09,215.35c-4.59,4-9.49,8-14.54,12.06a1.86,1.86,0,0,0-.26,2.64,1.94,1.94,0,0,0,2.69.27c5.09-4.08,10-8.17,14.64-12.16a1.83,1.83,0,0,0,.17-2.64A1.91,1.91,0,0,0,408.09,215.35Z" transform="translate(-27.21 -3.55)"/><path class="cls-1" d="M283.27,301q-8.36,4.71-16.63,9.16a1.84,1.84,0,0,0-.76,2.54,1.92,1.92,0,0,0,1.6,1,1.89,1.89,0,0,0,1-.23q8.31-4.47,16.71-9.2a1.84,1.84,0,0,0,.7-2.55A1.94,1.94,0,0,0,283.27,301Z" transform="translate(-27.21 -3.55)"/><path class="cls-1" d="M378.62,239q-7.39,5.58-15.26,11.22a1.83,1.83,0,0,0-.41,2.61,1.89,1.89,0,0,0,1.46.77,1.91,1.91,0,0,0,1.21-.36q7.9-5.66,15.34-11.27a1.83,1.83,0,0,0,.35-2.62A2,2,0,0,0,378.62,239Z" transform="translate(-27.21 -3.55)"/><path class="cls-1" d="M76.8,375.73A16.84,16.84,0,1,1,60,358.89,16.84,16.84,0,0,1,76.8,375.73Z" transform="translate(-27.21 -3.55)"/><path class="cls-1" d="M421.43,297.25a16.84,16.84,0,1,1-16.84-16.84A16.84,16.84,0,0,1,421.43,297.25Z" transform="translate(-27.21 -3.55)"/><path class="cls-1" d="M322.24,153a16.84,16.84,0,1,1-16.83-16.83A16.84,16.84,0,0,1,322.24,153Z" transform="translate(-27.21 -3.55)"/></svg>